<svg  viewBox="0 0 68 68" fill="none" xmlns="http://www.w3.org/2000/svg">
<rect width="68" height="68" fill="white"/>
<path d="M1.30976 47.5643C0.910137 47.9455 0.895211 48.5785 1.27642 48.9782C1.65763 49.3778 2.29062 49.3927 2.69024 49.0115L2 48.2879L1.30976 47.5643ZM2.07236 48.2189L1.41119 47.4687L1.39639 47.4817L1.38212 47.4953L2.07236 48.2189ZM5.29806 45.2705L5.99818 45.9845L5.29806 45.2705ZM11.402 38.7443L10.6574 38.0768L11.402 38.7443ZM13.4707 36.5939L14.1668 37.3118L13.4707 36.5939ZM21.7766 33.3258L22.6891 32.9167L21.7766 33.3258ZM24.7567 38.4778L23.828 38.8485L24.7567 38.4778ZM27.7239 43.025L28.6438 42.6325L28.6381 42.6197L27.7239 43.025ZM28.0638 43.8214L27.144 44.2139L27.1707 44.2764L27.2055 44.3347L28.0638 43.8214ZM27.2569 44.4205C27.5403 44.8945 28.1544 45.0489 28.6284 44.7655C29.1024 44.482 29.2568 43.868 28.9733 43.394L28.1151 43.9072L27.2569 44.4205ZM2 48.2879L2.69024 49.0115L2.7626 48.9425L2.07236 48.2189L1.38212 47.4953L1.30976 47.5643L2 48.2879ZM2.07236 48.2189L2.73353 48.9691C4.17801 47.6961 5.26927 46.6992 5.99818 45.9845L5.29806 45.2705L4.59793 44.5565C3.90789 45.2331 2.84869 46.2018 1.41119 47.4687L2.07236 48.2189ZM5.29806 45.2705L5.99818 45.9845C6.7019 45.2945 7.41412 44.6128 8.13483 43.9395L7.45215 43.2088L6.76948 42.478C6.03701 43.1623 5.31315 43.8552 4.59793 44.5565L5.29806 45.2705ZM7.45215 43.2088L8.13483 43.9395C8.89704 43.2274 9.60461 42.4624 10.2573 41.6448L9.4758 41.0209L8.69429 40.397C8.10199 41.1389 7.46045 41.8325 6.76948 42.478L7.45215 43.2088ZM9.4758 41.0209L10.2573 41.6448C10.868 40.8798 11.4977 40.1355 12.1465 39.4119L11.402 38.7443L10.6574 38.0768C9.98299 38.829 9.32861 39.6024 8.69429 40.397L9.4758 41.0209ZM11.402 38.7443L12.1465 39.4119C12.7924 38.6915 13.4659 37.9915 14.1668 37.3118L13.4707 36.5939L12.7746 35.8759C12.0405 36.5878 11.3347 37.3214 10.6574 38.0768L11.402 38.7443ZM13.4707 36.5939L14.1668 37.3118C14.9611 36.5417 15.6166 35.6635 16.1312 34.6807L15.2453 34.2168L14.3594 33.753C13.943 34.5481 13.4155 35.2545 12.7746 35.8759L13.4707 36.5939ZM15.2453 34.2168L16.1312 34.6807C16.5799 33.8237 17.0706 32.9991 17.6033 32.2067L16.7733 31.6488L15.9434 31.091C15.3696 31.9446 14.8416 32.832 14.3594 33.753L15.2453 34.2168ZM16.7733 31.6488L17.6033 32.2067C18.0798 31.4979 18.6063 31.0255 19.1697 30.7384L18.7157 29.8474L18.2617 28.9564C17.3418 29.4252 16.5734 30.1538 15.9434 31.091L16.7733 31.6488ZM18.7157 29.8474L19.1697 30.7384C19.2681 30.6883 19.3207 30.6803 19.3339 30.6791C19.3404 30.6785 19.3297 30.6791 19.319 30.6745C19.3097 30.6705 19.4294 30.7216 19.6014 31.0664L20.4963 30.6201L21.3911 30.1739C21.1177 29.6256 20.7179 29.1014 20.1152 28.8398C19.47 28.5598 18.8161 28.6739 18.2617 28.9564L18.7157 29.8474ZM20.4963 30.6201L19.6014 31.0664C20.0406 31.9472 20.4615 32.8367 20.8641 33.7348L21.7766 33.3258L22.6891 32.9167C22.2753 31.9936 21.8427 31.0793 21.3911 30.1739L20.4963 30.6201ZM21.7766 33.3258L20.8641 33.7348C21.3032 34.7146 21.8478 35.6335 22.4968 36.4901L23.2939 35.8862L24.0909 35.2823C23.5333 34.5463 23.0663 33.7582 22.6891 32.9167L21.7766 33.3258ZM23.2939 35.8862L22.4968 36.4901C23.0459 37.2147 23.4893 38.0001 23.828 38.8485L24.7567 38.4778L25.6854 38.107C25.2805 37.0927 24.7487 36.1503 24.0909 35.2823L23.2939 35.8862ZM24.7567 38.4778L23.828 38.8485C24.2433 39.8887 24.8274 40.8317 25.5766 41.6736L26.3236 41.0088L27.0707 40.344C26.4743 39.6739 26.0138 38.9296 25.6854 38.107L24.7567 38.4778ZM26.3236 41.0088L25.5766 41.6736C26.2152 42.3912 26.6078 42.9749 26.8098 43.4303L27.7239 43.025L28.6381 42.6197C28.3185 41.8988 27.7776 41.1384 27.0707 40.344L26.3236 41.0088ZM27.7239 43.025L26.8042 43.4175L27.144 44.2139L28.0638 43.8214L28.9835 43.4289L28.6437 42.6325L27.7239 43.025ZM28.0638 43.8214L27.2055 44.3347L27.2569 44.4205L28.1151 43.9072L28.9733 43.394L28.922 43.3081L28.0638 43.8214Z" fill="currentColor"/>
<path d="M4.78938 53.5732C4.2372 53.5841 3.79834 54.0404 3.80915 54.5926C3.81997 55.1448 4.27636 55.5837 4.82854 55.5729L4.80896 54.573L4.78938 53.5732ZM4.90894 54.5711L4.99975 53.5752L4.94466 53.5702L4.88936 53.5713L4.90894 54.5711ZM9.27896 54.5031L9.06124 53.5271L9.27896 54.5031ZM15.2337 54.478L15.0397 55.459L15.2337 54.478ZM21.1956 54.3523L21.0824 53.3587L21.1956 54.3523ZM39.0778 54.6143L39.2113 53.6232L39.0778 54.6143ZM42.0593 54.5562L41.8886 53.5708L42.0593 54.5562ZM48.0203 54.5672L47.8323 55.5493L48.0203 54.5672ZM57.8194 54.4892L58.6744 55.008L58.8194 54.7689V54.4892H57.8194ZM57.7194 54.6541L56.8645 54.1354L55.9398 55.6595L57.7225 55.6541L57.7194 54.6541ZM57.8225 55.6538C58.3747 55.6521 58.8211 55.203 58.8194 54.6507C58.8178 54.0985 58.3687 53.6521 57.8164 53.6538L57.8194 54.6538L57.8225 55.6538ZM4.80896 54.573L4.82854 55.5729L4.92852 55.5709L4.90894 54.5711L4.88936 53.5713L4.78938 53.5732L4.80896 54.573ZM4.90894 54.5711L4.81813 55.567C6.76946 55.7449 8.35169 55.7345 9.49668 55.4791L9.27896 54.5031L9.06124 53.5271C8.22693 53.7132 6.89582 53.7481 4.99975 53.5752L4.90894 54.5711ZM9.27896 54.5031L9.49668 55.4791C10.4151 55.2742 11.3325 55.1741 12.2503 55.1777L12.2542 54.1777L12.2581 53.1777C11.1882 53.1736 10.1222 53.2904 9.06124 53.5271L9.27896 54.5031ZM12.2542 54.1777L12.2503 55.1777C13.1792 55.1813 14.1087 55.2748 15.0397 55.459L15.2337 54.478L15.4277 53.497C14.3737 53.2885 13.3169 53.1818 12.2581 53.1777L12.2542 54.1777ZM15.2337 54.478L15.0397 55.459C16.1222 55.6731 17.2087 55.7352 18.2964 55.6439L18.2128 54.6474L18.1292 53.6509C17.2298 53.7264 16.3302 53.6755 15.4277 53.497L15.2337 54.478ZM18.2128 54.6474L18.2964 55.6439C19.2999 55.5597 20.3041 55.4604 21.3089 55.3458L21.1956 54.3523L21.0824 53.3587C20.0972 53.471 19.1129 53.5684 18.1292 53.6509L18.2128 54.6474ZM21.1956 54.3523L21.3089 55.3458C22.2249 55.2414 23.1388 55.2466 24.0522 55.3612L24.1767 54.369L24.3012 53.3768C23.2298 53.2423 22.1563 53.2363 21.0824 53.3587L21.1956 54.3523ZM24.1767 54.369L24.0522 55.3612C25.0564 55.4872 26.0609 55.595 27.0655 55.6847L27.1544 54.6886L27.2433 53.6926C26.2625 53.6051 25.2818 53.4998 24.3012 53.3768L24.1767 54.369ZM27.1544 54.6886L27.0655 55.6847C28.1044 55.7774 29.1442 55.7976 30.1846 55.7453L30.1344 54.7466L30.0842 53.7478C29.1366 53.7954 28.1898 53.7771 27.2433 53.6926L27.1544 54.6886ZM30.1344 54.7466L30.1846 55.7453C31.1407 55.6972 32.0962 55.7036 33.0513 55.7645L33.1149 54.7665L33.1785 53.7685C32.1476 53.7028 31.1161 53.6959 30.0842 53.7478L30.1344 54.7466ZM33.1149 54.7665L33.0513 55.7645C34.1159 55.8323 35.181 55.7861 36.2454 55.6265L36.097 54.6376L35.9487 53.6486C35.023 53.7875 34.0999 53.8273 33.1785 53.7685L33.1149 54.7665ZM36.097 54.6376L36.2454 55.6265C37.1475 55.4912 38.0462 55.4843 38.9442 55.6053L39.0778 54.6143L39.2113 53.6232C38.1252 53.4768 37.0367 53.4855 35.9487 53.6486L36.097 54.6376ZM39.0778 54.6143L38.9442 55.6053C40.0383 55.7528 41.1348 55.7312 42.2299 55.5415L42.0593 54.5562L41.8886 53.5708C40.9926 53.726 40.1013 53.7432 39.2113 53.6232L39.0778 54.6143ZM42.0593 54.5562L42.2299 55.5415C43.1717 55.3784 44.111 55.2948 45.0483 55.2901L45.0433 54.2901L45.0383 53.2901C43.9881 53.2954 42.938 53.3891 41.8886 53.5708L42.0593 54.5562ZM45.0433 54.2901L45.0483 55.2901C45.9762 55.2855 46.904 55.3717 47.8323 55.5493L48.0203 54.5672L48.2082 53.585C47.1547 53.3834 46.0977 53.2848 45.0383 53.2901L45.0433 54.2901ZM48.0203 54.5672L47.8323 55.5493C48.9265 55.7587 50.0253 55.7932 51.1247 55.6517L50.9971 54.6599L50.8695 53.6681C49.9817 53.7823 49.0959 53.7549 48.2082 53.585L48.0203 54.5672ZM50.9971 54.6599L51.1247 55.6517C52.0595 55.5315 52.9928 55.4954 53.9252 55.5433L53.9764 54.5446L54.0277 53.5459C52.9749 53.4919 51.922 53.5327 50.8695 53.6681L50.9971 54.6599ZM53.9764 54.5446L53.9252 55.5433C54.9623 55.5965 55.9115 55.5727 56.7672 55.465L56.6423 54.4729L56.5175 53.4807C55.8038 53.5705 54.9757 53.5946 54.0277 53.5459L53.9764 54.5446ZM56.6423 54.4729L56.7672 55.465C57.1499 55.4169 57.3875 55.4011 57.5112 55.4028C57.5856 55.4038 57.549 55.4109 57.4643 55.3861C57.4242 55.3743 57.2915 55.3327 57.1523 55.214C56.9849 55.0713 56.8194 54.8208 56.8194 54.4892H57.8194H58.8194C58.8194 54.1303 58.6417 53.8556 58.4498 53.692C58.286 53.5524 58.1166 53.4932 58.0274 53.467C57.8447 53.4134 57.6609 53.4047 57.5391 53.403C57.2704 53.3993 56.9195 53.4301 56.5175 53.4807L56.6423 54.4729ZM57.8194 54.4892L56.9645 53.9705L56.8645 54.1354L57.7194 54.6541L58.5744 55.1728L58.6744 55.008L57.8194 54.4892ZM57.7194 54.6541L57.7225 55.6541L57.8225 55.6538L57.8194 54.6538L57.8164 53.6538L57.7164 53.6541L57.7194 54.6541Z" fill="currentColor"/>
<path d="M8.86517 13.7011C8.90913 13.1505 8.49847 12.6686 7.94793 12.6246C7.3974 12.5807 6.91547 12.9913 6.87151 13.5419L7.86834 13.6215L8.86517 13.7011ZM7.86038 13.7211L8.83774 13.9327L8.85189 13.8674L8.85721 13.8007L7.86038 13.7211ZM6.91352 26.9937L5.91963 27.1041L6.91352 26.9937ZM6.47256 32.9415L5.49065 32.7521L6.47256 32.9415ZM6.14636 44.8616L5.15225 44.7532L6.14636 44.8616ZM5.70303 54.3685L4.91518 54.9844L5.1722 55.3132L5.58669 55.3617L5.70303 54.3685ZM5.61657 54.2579L6.40443 53.6421L4.7582 51.5361L4.61795 54.2055L5.61657 54.2579ZM4.61271 54.3053C4.58373 54.8568 5.00734 55.3274 5.55886 55.3564C6.11039 55.3854 6.58097 54.9618 6.60995 54.4103L5.61133 54.3578L4.61271 54.3053ZM7.86834 13.6215L6.87151 13.5419L6.86356 13.6416L7.86038 13.7211L8.85721 13.8007L8.86517 13.7011L7.86834 13.6215ZM7.86038 13.7211L6.88302 13.5096C6.469 15.4221 6.26088 16.9676 6.30368 18.0967L7.30296 18.0588L8.30225 18.021C8.26923 17.15 8.43272 15.8037 8.83774 13.9327L7.86038 13.7211ZM7.30296 18.0588L6.30368 18.0967C6.33953 19.0425 6.29841 19.9813 6.18045 20.9138L7.17254 21.0393L8.16464 21.1648C8.29639 20.1233 8.34221 19.0752 8.30225 18.021L7.30296 18.0588ZM7.17254 21.0393L6.18045 20.9138C6.05368 21.9159 5.94994 22.92 5.86922 23.9261L6.86602 24.006L7.86281 24.086C7.94109 23.1104 8.04169 22.1366 8.16464 21.1648L7.17254 21.0393ZM6.86602 24.006L5.86922 23.9261C5.78457 24.9812 5.80154 26.0408 5.91963 27.1041L6.91352 26.9937L7.90741 26.8833C7.80317 25.9448 7.78847 25.0126 7.86281 24.086L6.86602 24.006ZM6.91352 26.9937L5.91963 27.1041C6.02284 28.0333 6.02438 28.9551 5.92486 29.871L6.919 29.979L7.91315 30.087C8.02865 29.0243 8.02654 27.9559 7.90741 26.8833L6.91352 26.9937ZM6.919 29.979L5.92486 29.871C5.82034 30.8328 5.67562 31.7931 5.49065 32.7521L6.47256 32.9415L7.45446 33.1309C7.64973 32.1185 7.80265 31.1038 7.91315 30.087L6.919 29.979ZM6.47256 32.9415L5.49065 32.7521C5.28928 33.7962 5.18278 34.846 5.17154 35.9008L6.17149 35.9114L7.17143 35.9221C7.18138 34.9884 7.27559 34.0583 7.45446 33.1309L6.47256 32.9415ZM6.17149 35.9114L5.17154 35.9008C5.16087 36.9028 5.16192 37.9052 5.17469 38.9079L6.17461 38.8951L7.17453 38.8824C7.16196 37.8953 7.16092 36.9085 7.17143 35.9221L6.17149 35.9114ZM6.17461 38.8951L5.17469 38.9079C5.18748 39.9113 5.21315 40.9154 5.2517 41.9202L6.25096 41.8818L7.25022 41.8435C7.21233 40.8558 7.1871 39.8687 7.17453 38.8824L6.17461 38.8951ZM6.25096 41.8818L5.2517 41.9202C5.28804 42.8675 5.25489 43.8117 5.15225 44.7532L6.14636 44.8616L7.14047 44.97C7.25374 43.9309 7.29032 42.8887 7.25022 41.8435L6.25096 41.8818ZM6.14636 44.8616L5.15225 44.7532C5.038 45.8012 5.01511 46.8529 5.08348 47.9077L6.08139 47.843L7.0793 47.7783C7.01838 46.8385 7.03879 45.9026 7.14047 44.97L6.14636 44.8616ZM6.08139 47.843L5.08348 47.9077C5.14483 48.8541 5.13356 49.7965 5.04979 50.7354L6.04584 50.8242L7.04188 50.9131C7.13481 49.8716 7.14724 48.8265 7.0793 47.7783L6.08139 47.843ZM6.04584 50.8242L5.04979 50.7354C4.96087 51.732 4.89599 52.5832 4.85566 53.2872L5.85403 53.3444L6.85239 53.4016C6.89111 52.7257 6.9541 51.8969 7.04188 50.9131L6.04584 50.8242ZM5.85403 53.3444L4.85566 53.2872C4.83627 53.6256 4.81574 53.8471 4.79733 53.972C4.78682 54.0433 4.78352 54.0363 4.79823 53.9922C4.8027 53.9788 4.83457 53.8791 4.91803 53.7649C4.98623 53.6716 5.28603 53.3128 5.81938 53.3753L5.70303 54.3685L5.58669 55.3617C6.13533 55.426 6.45007 55.0582 6.53288 54.9449C6.63095 54.8106 6.67709 54.6801 6.69549 54.6249C6.73807 54.4973 6.76128 54.3631 6.77594 54.2637C6.80786 54.0472 6.83225 53.7531 6.85239 53.4016L5.85403 53.3444ZM5.70303 54.3685L6.49089 53.7527L6.40443 53.6421L5.61657 54.2579L4.82872 54.8738L4.91518 54.9844L5.70303 54.3685ZM5.61657 54.2579L4.61795 54.2055L4.61271 54.3053L5.61133 54.3578L6.60995 54.4103L6.6152 54.3104L5.61657 54.2579Z" fill="currentColor"/>
<path d="M7.83499 13.4664C7.28286 13.4799 6.8462 13.9384 6.85967 14.4905C6.87314 15.0426 7.33164 15.4793 7.88376 15.4658L7.85938 14.4661L7.83499 13.4664ZM7.95935 14.4637L7.9748 13.4638L7.95488 13.4635L7.93496 13.464L7.95935 14.4637ZM15.3013 14.2492L15.1842 15.2423L15.3013 14.2492ZM18.2856 14.3125L18.21 13.3154L18.2856 14.3125ZM39.1402 13.6594L39.0103 14.6509L39.1402 13.6594ZM59.505 13.1246L59.6293 14.1169L59.6381 14.1157L59.505 13.1246ZM60.4001 13.0044L60.3562 12.0053L60.3114 12.0073L60.267 12.0133L60.4001 13.0044ZM60.5439 13.999C61.0956 13.9748 61.5233 13.5079 61.499 12.9561C61.4748 12.4044 61.0079 11.9767 60.4561 12.001L60.5 13L60.5439 13.999ZM7.85938 14.4661L7.88376 15.4658L7.98374 15.4634L7.95935 14.4637L7.93496 13.464L7.83499 13.4664L7.85938 14.4661ZM7.95935 14.4637L7.94389 15.4635C9.87687 15.4934 11.3956 15.437 12.4667 15.28L12.3217 14.2905L12.1767 13.3011C11.2684 13.4343 9.87897 13.4932 7.9748 13.4638L7.95935 14.4637ZM12.3217 14.2905L12.4667 15.28C13.3693 15.1477 14.2743 15.135 15.1842 15.2423L15.3013 14.2492L15.4184 13.2561C14.3348 13.1283 13.2535 13.1433 12.1767 13.3011L12.3217 14.2905ZM15.3013 14.2492L15.1842 15.2423C16.2445 15.3674 17.3038 15.3899 18.3613 15.3097L18.2856 14.3125L18.21 13.3154C17.282 13.3858 16.3518 13.3662 15.4184 13.2561L15.3013 14.2492ZM18.2856 14.3125L18.3613 15.3097C19.3174 15.2371 20.2744 15.2173 21.2324 15.2504L21.2668 14.2509L21.3013 13.2515C20.2698 13.216 19.2393 13.2373 18.21 13.3154L18.2856 14.3125ZM21.2668 14.2509L21.2324 15.2504C22.2794 15.2864 23.3243 15.2404 24.3666 15.1123L24.2446 14.1198L24.1227 13.1273C23.1839 13.2426 22.2436 13.284 21.3013 13.2515L21.2668 14.2509ZM24.2446 14.1198L24.3666 15.1123C25.3289 14.9941 26.2921 14.9173 27.2562 14.8818L27.2195 13.8825L27.1828 12.8832C26.1614 12.9207 25.1414 13.0021 24.1227 13.1273L24.2446 14.1198ZM27.2195 13.8825L27.2562 14.8818C28.2481 14.8454 29.2404 14.8101 30.2329 14.7758L30.1984 13.7764L30.1639 12.777C29.1699 12.8113 28.1762 12.8467 27.1828 12.8832L27.2195 13.8825ZM30.1984 13.7764L30.2329 14.7758C31.181 14.743 32.1309 14.7743 33.0829 14.8698L33.1827 13.8747L33.2824 12.8797C32.2419 12.7754 31.2023 12.7411 30.1639 12.777L30.1984 13.7764ZM33.1827 13.8747L33.0829 14.8698C34.175 14.9792 35.2638 14.9313 36.3465 14.7266L36.1607 13.744L35.9748 12.7614C35.0794 12.9308 34.1829 12.97 33.2824 12.8797L33.1827 13.8747ZM36.1607 13.744L36.3465 14.7266C37.2316 14.5592 38.1182 14.534 39.0103 14.6509L39.1402 13.6594L39.27 12.6678C38.1677 12.5234 37.0679 12.5547 35.9748 12.7614L36.1607 13.744ZM39.1402 13.6594L39.0103 14.6509C40.0686 14.7895 41.126 14.8292 42.1817 14.7695L42.1252 13.7711L42.0688 12.7727C41.1389 12.8253 40.2063 12.7905 39.27 12.6678L39.1402 13.6594ZM42.1252 13.7711L42.1817 14.7695C43.1482 14.7149 44.1157 14.6984 45.084 14.7199L45.1063 13.7202L45.1285 12.7204C44.1077 12.6977 43.0878 12.7151 42.0688 12.7727L42.1252 13.7711ZM45.1063 13.7202L45.084 14.7199C46.1488 14.7436 47.2099 14.6558 48.2662 14.4571L48.0813 13.4744L47.8965 12.4916C46.9751 12.6649 46.0529 12.741 45.1285 12.7204L45.1063 13.7202ZM48.0813 13.4744L48.2662 14.4571C49.2142 14.2788 50.1626 14.1614 51.1116 14.1045L51.0518 13.1063L50.9921 12.1081C49.958 12.17 48.9261 12.2979 47.8965 12.4916L48.0813 13.4744ZM51.0518 13.1063L51.1116 14.1045C52.0716 14.0471 53.033 14.035 53.9958 14.0683L54.0304 13.0689L54.065 12.0695C53.0394 12.034 52.015 12.0469 50.9921 12.1081L51.0518 13.1063ZM54.0304 13.0689L53.9958 14.0683C54.9873 14.1027 55.9796 14.1412 56.973 14.1839L57.0159 13.1848L57.0589 12.1858C56.06 12.1428 55.0621 12.104 54.065 12.0695L54.0304 13.0689ZM57.0159 13.1848L56.973 14.1839C58.0006 14.2281 58.8907 14.2093 59.6293 14.1168L59.505 13.1246L59.3808 12.1323C58.7928 12.2059 58.0235 12.2273 57.0589 12.1858L57.0159 13.1848ZM59.505 13.1246L59.6381 14.1157L60.5332 13.9955L60.4001 13.0044L60.267 12.0133L59.372 12.1335L59.505 13.1246ZM60.4001 13.0044L60.444 14.0034L60.5439 13.999L60.5 13L60.4561 12.001L60.3562 12.0053L60.4001 13.0044Z" fill="currentColor"/>
<path d="M61.6168 13.0212C61.6286 12.4691 61.1905 12.012 60.6383 12.0002C60.0861 11.9885 59.629 12.4266 59.6173 12.9788L60.6171 13L61.6168 13.0212ZM60.6149 13.1L61.6056 13.236L61.6135 13.1789L61.6147 13.1212L60.6149 13.1ZM60.2845 20.4422L59.2894 20.3432L60.2845 20.4422ZM59.3659 50.2152L60.3442 50.4224L59.3659 50.2152ZM58.9229 53.8553L58.8974 54.855L59.2209 54.8632L59.488 54.6804L58.9229 53.8553ZM59.0634 53.7591L60.0589 53.8536L60.2608 51.727L58.4984 52.934L59.0634 53.7591ZM58.0584 53.7641C58.0062 54.3139 58.4096 54.802 58.9594 54.8542C59.5092 54.9064 59.9973 54.503 60.0495 53.9532L59.054 53.8586L58.0584 53.7641ZM60.6171 13L59.6173 12.9788L59.6152 13.0787L60.6149 13.1L61.6147 13.1212L61.6168 13.0212L60.6171 13ZM60.6149 13.1L59.6242 12.9639C59.3589 14.8961 59.2508 16.4337 59.329 17.5339L60.3265 17.4631L61.324 17.3922C61.2609 16.5047 61.3451 15.1335 61.6056 13.236L60.6149 13.1ZM60.3265 17.4631L59.329 17.5339C59.3956 18.4712 59.3824 19.4074 59.2894 20.3432L60.2845 20.4422L61.2796 20.5411C61.3838 19.4925 61.3986 18.4427 61.324 17.3922L60.3265 17.4631ZM60.2845 20.4422L59.2894 20.3432C59.1885 21.358 59.1224 22.3736 59.0911 23.39L60.0906 23.4207L61.0901 23.4515C61.12 22.4808 61.1832 21.5107 61.2796 20.5411L60.2845 20.4422ZM60.0906 23.4207L59.0911 23.39C59.0581 24.4631 59.1521 25.5361 59.3717 26.6076L60.3514 26.4067L61.331 26.2059C61.1418 25.2831 61.062 24.3655 61.0901 23.4515L60.0906 23.4207ZM60.3514 26.4067L59.3717 26.6076C59.5611 27.5314 59.6425 28.45 59.6172 29.3648L60.6168 29.3924L61.6164 29.42C61.646 28.3482 61.5504 27.2763 61.331 26.2059L60.3514 26.4067ZM60.6168 29.3924L59.6172 29.3648C59.5905 30.3309 59.5244 31.2964 59.4189 32.2612L60.413 32.3699L61.4071 32.4786C61.5185 31.4601 61.5882 30.4405 61.6164 29.42L60.6168 29.3924ZM60.413 32.3699L59.4189 32.2612C59.3116 33.2427 59.189 34.2236 59.051 35.2042L60.0413 35.3435L61.0315 35.4829C61.1723 34.482 61.2975 33.4806 61.4071 32.4786L60.413 32.3699ZM60.0413 35.3435L59.051 35.2042C58.9015 36.2662 58.8677 37.3318 58.9497 38.3996L59.9467 38.3231L60.9438 38.2466C60.8729 37.323 60.9021 36.4022 61.0315 35.4829L60.0413 35.3435ZM59.9467 38.3231L58.9497 38.3996C59.0247 39.3772 59.0729 40.3544 59.0943 41.3313L60.0941 41.3094L61.0938 41.2875C61.0716 40.274 61.0216 39.2604 60.9438 38.2466L59.9467 38.3231ZM60.0941 41.3094L59.0943 41.3313C59.1159 42.3183 59.1255 43.3056 59.1231 44.2929L60.1231 44.2954L61.1231 44.2978C61.1256 43.2942 61.1158 42.2908 61.0938 41.2875L60.0941 41.3094ZM60.1231 44.2954L59.1231 44.2929C59.1208 45.2395 59.0494 46.1824 58.9086 47.1222L59.8976 47.2703L60.8866 47.4184C61.0417 46.3825 61.1206 45.3422 61.1231 44.2978L60.1231 44.2954ZM59.8976 47.2703L58.9086 47.1222C58.7637 48.0902 58.59 49.0522 58.3876 50.0081L59.3659 50.2152L60.3442 50.4224C60.5549 49.4273 60.7357 48.4259 60.8866 47.4184L59.8976 47.2703ZM59.3659 50.2152L58.3876 50.0081C58.177 51.0026 58.0238 51.8827 57.9313 52.6446L58.924 52.7652L59.9167 52.8858C60.0002 52.1987 60.1416 51.3788 60.3442 50.4224L59.3659 50.2152ZM58.924 52.7652L57.9313 52.6446C57.8862 53.0154 57.8579 53.3361 57.8577 53.5802C57.8576 53.691 57.8622 53.8544 57.901 54.0174C57.9191 54.0935 57.9631 54.2527 58.0778 54.4149C58.209 54.6004 58.4808 54.8443 58.8974 54.855L58.9229 53.8553L58.9484 52.8556C59.3432 52.8657 59.596 53.0978 59.7107 53.2601C59.8091 53.3993 59.8395 53.524 59.8467 53.5544C59.8637 53.626 59.8576 53.6529 59.8577 53.582C59.8578 53.4627 59.8737 53.2395 59.9167 52.8858L58.924 52.7652ZM58.9229 53.8553L59.488 54.6804L59.6284 54.5841L59.0634 53.7591L58.4984 52.934L58.3579 53.0302L58.9229 53.8553ZM59.0634 53.7591L58.0679 53.6646L58.0584 53.7641L59.054 53.8586L60.0495 53.9532L60.0589 53.8536L59.0634 53.7591Z" fill="currentColor"/>
<path d="M22.4504 41.6969C22.0508 42.0781 22.0359 42.7111 22.4172 43.1107C22.7984 43.5103 23.4314 43.5252 23.831 43.1439L23.1407 42.4204L22.4504 41.6969ZM23.213 42.3514L23.9033 43.0749L23.9381 43.0418L23.9694 43.0055L23.213 42.3514ZM30.594 35.12L30.0047 34.3121L30.594 35.12ZM32.7949 33.1079L32.043 32.4486L32.7949 33.1079ZM37.429 29.3453L36.6978 28.6632L37.429 29.3453ZM41.5914 25.0703L42.2426 25.8292L41.5914 25.0703ZM43.66 22.9381L42.8817 22.3101L43.66 22.9381ZM53.3932 29.6356L54.0832 28.9118L53.3932 29.6356ZM62.348 37.5008L63.0683 36.8071L62.348 37.5008ZM64.4367 39.6305L63.7292 40.3372L64.4367 39.6305ZM65.5294 40.5877L66.452 40.9734L66.5718 40.6869L66.5082 40.3829L65.5294 40.5877ZM65.4953 40.4245L66.1624 39.6795L63.8925 37.6465L64.5165 40.6292L65.4953 40.4245ZM64.9026 41.2361C65.314 41.6045 65.9462 41.5697 66.3147 41.1583C66.6831 40.7469 66.6483 40.1147 66.2369 39.7463L65.5698 40.4912L64.9026 41.2361ZM23.1407 42.4204L23.831 43.1439L23.9033 43.0749L23.213 42.3514L22.5227 41.6278L22.4504 41.6969L23.1407 42.4204ZM23.213 42.3514L23.9694 43.0055C25.2234 41.5553 26.1908 40.5347 26.8828 39.9171L26.2169 39.171L25.5511 38.425C24.7602 39.1309 23.725 40.2305 22.4566 41.6973L23.213 42.3514ZM26.2169 39.171L26.8828 39.9171C27.6456 39.2363 28.3789 38.5231 29.0829 37.7776L28.3558 37.0911L27.6287 36.4045C26.9637 37.1088 26.2712 37.7823 25.5511 38.425L26.2169 39.171ZM28.3558 37.0911L29.0829 37.7776C29.7251 37.0974 30.425 36.481 31.1833 35.9279L30.594 35.12L30.0047 34.3121C29.1476 34.9373 28.3554 35.6349 27.6287 36.4045L28.3558 37.0911ZM30.594 35.12L31.1833 35.9279C32.0505 35.2954 32.8387 34.5748 33.5468 33.7671L32.7949 33.1079L32.043 32.4486C31.4319 33.1456 30.7528 33.7664 30.0047 34.3121L30.594 35.12ZM32.7949 33.1079L33.5468 33.7671C34.1349 33.0964 34.8189 32.5317 35.6028 32.0716L35.0966 31.2091L34.5904 30.3467C33.6246 30.9136 32.7741 31.6147 32.043 32.4486L32.7949 33.1079ZM35.0966 31.2091L35.6028 32.0716C36.5595 31.51 37.4131 30.8284 38.1603 30.0274L37.429 29.3453L36.6978 28.6632C36.0848 29.3204 35.3834 29.8813 34.5904 30.3467L35.0966 31.2091ZM37.429 29.3453L38.1603 30.0274C38.8432 29.2952 39.5212 28.5592 40.1943 27.8193L39.4545 27.1464L38.7148 26.4735C38.0474 27.2072 37.375 27.9371 36.6978 28.6632L37.429 29.3453ZM39.4545 27.1464L40.1943 27.8193C40.8368 27.1129 41.5196 26.4496 42.2426 25.8292L41.5914 25.0703L40.9402 24.3114C40.1545 24.9855 39.4127 25.7063 38.7148 26.4735L39.4545 27.1464ZM41.5914 25.0703L42.2426 25.8292C43.0432 25.1422 43.7752 24.3877 44.4382 23.5661L43.66 22.9381L42.8817 22.3101C42.2952 23.0369 41.6482 23.7038 40.9402 24.3114L41.5914 25.0703ZM43.66 22.9381L44.4382 23.5661C44.942 22.9417 45.4104 22.7132 45.8402 22.6777L45.758 21.6811L45.6759 20.6845C44.5577 20.7767 43.6273 21.3862 42.8817 22.3101L43.66 22.9381ZM45.758 21.6811L45.8402 22.6777C46.1504 22.6522 46.489 22.7553 46.8818 23.3564L47.7189 22.8094L48.556 22.2623C47.8823 21.2314 46.9137 20.5824 45.6759 20.6845L45.758 21.6811ZM47.7189 22.8094L46.8818 23.3564C47.4098 24.1645 47.9336 24.991 48.4531 25.8361L49.305 25.3125L50.1569 24.7888C49.6281 23.9284 49.0944 23.0862 48.556 22.2623L47.7189 22.8094ZM49.305 25.3125L48.4531 25.8361C49.0267 26.7693 49.7199 27.6047 50.5309 28.34L51.2026 27.5992L51.8743 26.8583C51.2035 26.2501 50.6316 25.561 50.1569 24.7888L49.305 25.3125ZM51.2026 27.5992L50.5309 28.34C51.2657 29.0062 51.9898 29.6793 52.7032 30.3594L53.3932 29.6356L54.0832 28.9118C53.3577 28.2201 52.6214 27.5356 51.8743 26.8583L51.2026 27.5992ZM53.3932 29.6356L52.7032 30.3594C53.4347 31.0567 54.1829 31.7352 54.9476 32.3948L55.6008 31.6376L56.2539 30.8803C55.5143 30.2424 54.7907 29.5862 54.0832 28.9118L53.3932 29.6356ZM55.6008 31.6376L54.9476 32.3948C55.6977 33.0417 56.4451 33.6919 57.1898 34.3452L57.8492 33.5934L58.5087 32.8417C57.7598 32.1847 57.0082 31.5309 56.2539 30.8803L55.6008 31.6376ZM57.8492 33.5934L57.1898 34.3452C57.9496 35.0118 58.7267 35.6585 59.521 36.2854L60.1405 35.5005L60.76 34.7155C59.9929 34.11 59.2425 33.4854 58.5087 32.8417L57.8492 33.5934ZM60.1405 35.5005L59.521 36.2854C60.266 36.8735 60.9682 37.5098 61.6277 38.1945L62.348 37.5008L63.0683 36.8071C62.3459 36.0571 61.5764 35.3598 60.76 34.7155L60.1405 35.5005ZM62.348 37.5008L61.6277 38.1945C62.3228 38.9163 63.0233 39.6305 63.7292 40.3372L64.4367 39.6305L65.1443 38.9239C64.447 38.2258 63.755 37.5202 63.0683 36.8071L62.348 37.5008ZM64.4367 39.6305L63.7292 40.3372C64.083 40.6915 64.3688 40.9664 64.5772 41.1489C64.6745 41.2341 64.7887 41.3293 64.9003 41.402C64.9415 41.4288 65.0651 41.509 65.2309 41.5559C65.3099 41.5783 65.5078 41.6261 65.7516 41.5682C66.0603 41.4948 66.3244 41.2787 66.452 40.9734L65.5294 40.5877L64.6068 40.2019C64.6604 40.0737 64.7487 39.9396 64.8821 39.8274C65.015 39.7156 65.1598 39.6531 65.2893 39.6223C65.5244 39.5665 65.711 39.6132 65.7761 39.6317C65.8572 39.6547 65.9146 39.683 65.9385 39.6954C65.9665 39.7099 65.9851 39.7217 65.9917 39.726C66.0055 39.735 65.9798 39.7187 65.895 39.6444C65.7391 39.5079 65.492 39.272 65.1443 38.9239L64.4367 39.6305ZM65.5294 40.5877L66.5082 40.3829L66.4741 40.2197L65.4953 40.4245L64.5165 40.6292L64.5506 40.7924L65.5294 40.5877ZM65.4953 40.4245L64.8281 41.1694L64.9026 41.2361L65.5698 40.4912L66.2369 39.7463L66.1624 39.6795L65.4953 40.4245Z" fill="currentColor"/>
</svg>
