<svg  viewBox="0 0 68 68" fill="none" xmlns="http://www.w3.org/2000/svg">
<rect width="68" height="68" fill="white"/>
                                        <path d="M35.3396 57.4796C35.6606 57.9291 36.2851 58.0332 36.7346 57.7122C37.184 57.3912 37.2881 56.7667 36.9672 56.3173L36.1534 56.8984L35.3396 57.4796ZM36.0953 56.8171L36.9091 56.2359L36.8791 56.1939L36.8449 56.1552L36.0953 56.8171ZM31.8641 50.8202L32.6286 50.1757L31.8641 50.8202ZM30.0462 48.4426L30.8688 47.874L30.0462 48.4426ZM28.5677 45.8516L27.6598 46.2708L28.5677 45.8516ZM20.3959 29.9407L19.4289 30.1955L20.3959 29.9407ZM19.7869 26.9792L18.7979 27.1269L19.7869 26.9792ZM20.7073 21.1396L19.7607 20.8173L20.7073 21.1396ZM21.9818 18.4838L21.1371 17.9487L21.9818 18.4838ZM31.9856 12.923L32.0338 11.9241L31.9856 12.923ZM34.9908 12.9059L34.9307 11.9077L34.9908 12.9059ZM45.1869 17.2822L44.2732 17.6886L45.1869 17.2822ZM45.8316 23.0886L46.7966 23.3506L45.8316 23.0886ZM45.3005 26.0289L44.3047 25.9373L45.3005 26.0289ZM44.8069 28.9652L43.836 28.726L44.8069 28.9652ZM43.858 31.7993L44.7776 32.1922L43.858 31.7993ZM42.4911 37.6035L41.5595 37.2402L42.4911 37.6035ZM41.3597 40.3682L40.4406 39.9741L41.3597 40.3682ZM40.4236 43.1968L41.3963 43.429L40.4236 43.1968ZM36.0638 54.0099L35.3374 53.3226L36.0638 54.0099ZM35.3126 55.0334L34.8077 55.8966L35.0651 56.0471L35.3629 56.0321L35.3126 55.0334ZM35.4941 55.0243L36.4026 55.442L37.0921 53.9425L35.4438 54.0255L35.4941 55.0243ZM34.5437 54.6973C34.313 55.1991 34.5327 55.7929 35.0345 56.0237C35.5363 56.2544 36.1301 56.0347 36.3608 55.5329L35.4523 55.1151L34.5437 54.6973ZM36.1534 56.8984L36.9672 56.3173L36.9091 56.2359L36.0953 56.8171L35.2815 57.3982L35.3396 57.4796L36.1534 56.8984ZM36.0953 56.8171L36.8449 56.1552C35.5861 54.7295 34.7931 53.6382 34.4014 52.8608L33.5084 53.3108L32.6153 53.7608C33.1255 54.7733 34.0571 56.0195 35.3456 57.4789L36.0953 56.8171ZM33.5084 53.3108L34.4014 52.8608C33.9154 51.8963 33.3242 51.0008 32.6286 50.1757L31.8641 50.8202L31.0995 51.4648C31.6944 52.1705 32.1994 52.9354 32.6153 53.7608L33.5084 53.3108ZM31.8641 50.8202L32.6286 50.1757C32.0038 49.4345 31.4172 48.6673 30.8688 47.874L30.0462 48.4426L29.2237 49.0113C29.8085 49.8572 30.4338 50.6751 31.0995 51.4648L31.8641 50.8202ZM30.0462 48.4426L30.8688 47.874C30.335 47.1018 29.8707 46.2882 29.4756 45.4325L28.5677 45.8516L27.6598 46.2708C28.1029 47.2305 28.6243 48.1442 29.2237 49.0113L30.0462 48.4426ZM28.5677 45.8516L29.4756 45.4325C29.0454 44.5006 28.58 43.5901 28.0794 42.7011L27.208 43.1917L26.3366 43.6823C26.8108 44.5244 27.2518 45.3873 27.6598 46.2708L28.5677 45.8516ZM27.208 43.1917L28.0794 42.7011C27.5787 41.8117 27.0412 40.942 26.467 40.0921L25.6384 40.6519L24.8098 41.2117C25.3537 42.0169 25.8626 42.8404 26.3366 43.6823L27.208 43.1917ZM25.6384 40.6519L26.467 40.0921C25.9358 39.3057 25.467 38.486 25.0604 37.6325L24.1576 38.0626L23.2548 38.4927C23.7045 39.4365 24.2229 40.3429 24.8098 41.2117L25.6384 40.6519ZM24.1576 38.0626L25.0604 37.6325C24.6524 36.7761 24.3044 35.8913 24.0165 34.9777L23.0627 35.2782L22.109 35.5787C22.4245 36.5803 22.8065 37.5517 23.2548 38.4927L24.1576 38.0626ZM23.0627 35.2782L24.0165 34.9777C23.6804 33.9109 23.1723 32.9245 22.4956 32.0221L21.6955 32.622L20.8955 33.2219C21.4383 33.9458 21.8416 34.7302 22.109 35.5787L23.0627 35.2782ZM21.6955 32.622L22.4956 32.0221C21.9625 31.3111 21.5864 30.5344 21.3629 29.686L20.3959 29.9407L19.4289 30.1955C19.7187 31.2957 20.209 32.3064 20.8955 33.2219L21.6955 32.622ZM20.3959 29.9407L21.3629 29.686C21.1155 28.7471 20.9199 27.7957 20.776 26.8316L19.7869 26.9792L18.7979 27.1269C18.9525 28.1628 19.1628 29.1858 19.4289 30.1955L20.3959 29.9407ZM19.7869 26.9792L20.776 26.8316C20.645 25.954 20.6774 25.0881 20.8731 24.2275L19.898 24.0057L18.9229 23.784C18.6719 24.888 18.6303 26.0044 18.7979 27.1269L19.7869 26.9792ZM19.898 24.0057L20.8731 24.2275C21.089 23.2783 21.3493 22.3565 21.6539 21.462L20.7073 21.1396L19.7607 20.8173C19.433 21.7796 19.1538 22.7686 18.9229 23.784L19.898 24.0057ZM20.7073 21.1396L21.6539 21.462C21.9442 20.6095 22.3346 19.7955 22.8265 19.019L21.9818 18.4838L21.1371 17.9487C20.562 18.8563 20.1027 19.8129 19.7607 20.8173L20.7073 21.1396ZM21.9818 18.4838L22.8265 19.019C23.3377 18.2123 23.9041 17.4297 24.5264 16.6714L23.7533 16.037L22.9803 15.4027C22.3075 16.2226 21.6929 17.0713 21.1371 17.9487L21.9818 18.4838ZM23.7533 16.037L24.5264 16.6714C25.0344 16.0523 25.6644 15.6597 26.4464 15.476L26.2177 14.5025L25.9889 13.529C24.7802 13.813 23.7673 14.4435 22.9803 15.4027L23.7533 16.037ZM26.2177 14.5025L26.4464 15.476C27.5095 15.2262 28.534 14.8693 29.5189 14.4056L29.0929 13.5009L28.667 12.5962C27.8089 13.0001 26.9166 13.311 25.9889 13.529L26.2177 14.5025ZM29.0929 13.5009L29.5189 14.4056C30.294 14.0407 31.0956 13.8812 31.9375 13.9218L31.9856 12.923L32.0338 11.9241C30.8617 11.8676 29.7348 12.0934 28.667 12.5962L29.0929 13.5009ZM31.9856 12.923L31.9375 13.9218C32.9802 13.9721 34.018 13.9662 35.0509 13.9041L34.9908 12.9059L34.9307 11.9077C33.9707 11.9654 33.0051 11.971 32.0338 11.9241L31.9856 12.923ZM34.9908 12.9059L35.0509 13.9041C35.9442 13.8503 36.8305 13.9332 37.713 14.1541L37.9559 13.1841L38.1988 12.214C37.1208 11.9441 36.0303 11.8415 34.9307 11.9077L34.9908 12.9059ZM37.9559 13.1841L37.713 14.1541C38.7686 14.4184 39.848 14.5593 40.9497 14.5773L40.9661 13.5774L40.9824 12.5776C40.0311 12.562 39.1038 12.4406 38.1988 12.214L37.9559 13.1841ZM40.9661 13.5774L40.9497 14.5773C41.6966 14.5895 42.2915 14.8604 42.7962 15.4223L43.5401 14.754L44.284 14.0857C43.4097 13.1124 42.2886 12.599 40.9824 12.5776L40.9661 13.5774ZM43.5401 14.754L42.7962 15.4223C43.4177 16.1141 43.9085 16.8689 44.2732 17.6886L45.1869 17.2822L46.1005 16.8757C45.6485 15.8596 45.0416 14.929 44.284 14.0857L43.5401 14.754ZM45.1869 17.2822L44.2732 17.6886C44.6441 18.5224 44.8936 19.3886 45.0227 20.2896L46.0126 20.1478L47.0025 20.006C46.8472 18.922 46.5463 17.8777 46.1005 16.8757L45.1869 17.2822ZM46.0126 20.1478L45.0227 20.2896C45.1455 21.1472 45.0937 21.99 44.8665 22.8265L45.8316 23.0886L46.7966 23.3506C47.0952 22.2512 47.164 21.1335 47.0025 20.006L46.0126 20.1478ZM45.8316 23.0886L44.8665 22.8265C44.5886 23.8499 44.4012 24.887 44.3047 25.9373L45.3005 26.0289L46.2963 26.1204C46.3822 25.1862 46.5488 24.2631 46.7966 23.3506L45.8316 23.0886ZM45.3005 26.0289L44.3047 25.9373C44.218 26.8799 44.0618 27.8093 43.836 28.726L44.8069 28.9652L45.7779 29.2043C46.0277 28.1904 46.2005 27.1623 46.2963 26.1204L45.3005 26.0289ZM44.8069 28.9652L43.836 28.726C43.6113 29.6382 43.3122 30.5315 42.9384 31.4064L43.858 31.7993L44.7776 32.1922C45.1935 31.2188 45.527 30.2227 45.7779 29.2043L44.8069 28.9652ZM43.858 31.7993L42.9384 31.4064C42.5004 32.4318 42.2384 33.5051 42.153 34.6219L43.1501 34.6982L44.1472 34.7745C44.216 33.8744 44.426 33.0151 44.7776 32.1922L43.858 31.7993ZM43.1501 34.6982L42.153 34.6219C42.0833 35.5334 41.8852 36.405 41.5595 37.2402L42.4911 37.6035L43.4228 37.9669C43.8213 36.9451 44.0626 35.8798 44.1472 34.7745L43.1501 34.6982ZM42.4911 37.6035L41.5595 37.2402C41.2014 38.1584 40.8284 39.0697 40.4406 39.9741L41.3597 40.3682L42.2787 40.7623C42.6753 39.8375 43.0566 38.9057 43.4228 37.9669L42.4911 37.6035ZM41.3597 40.3682L40.4406 39.9741C40.0259 40.9412 39.696 41.9383 39.451 42.9646L40.4236 43.1968L41.3963 43.429C41.615 42.5131 41.9091 41.6244 42.2787 40.7623L41.3597 40.3682ZM40.4236 43.1968L39.451 42.9646C39.2271 43.9025 38.9561 44.8248 38.6382 45.7316L39.5819 46.0625L40.5256 46.3934C40.8663 45.4216 41.1565 44.4335 41.3963 43.429L40.4236 43.1968ZM39.5819 46.0625L38.6382 45.7316C38.3322 46.6044 37.936 47.4416 37.4485 48.244L38.3031 48.7632L39.1578 49.2824C39.7167 48.3625 40.1729 47.3992 40.5256 46.3934L39.5819 46.0625ZM38.3031 48.7632L37.4485 48.244C36.8617 49.2098 36.4633 50.2564 36.2536 51.3777L37.2366 51.5616L38.2195 51.7454C38.3855 50.858 38.6981 50.039 39.1578 49.2824L38.3031 48.7632ZM37.2366 51.5616L36.2536 51.3777C36.0946 52.2281 35.7768 52.8582 35.3374 53.3226L36.0638 54.0099L36.7903 54.6971C37.5389 53.9058 38.0029 52.9037 38.2195 51.7454L37.2366 51.5616ZM36.0638 54.0099L35.3374 53.3226C35.0348 53.6425 34.7881 53.9218 34.6244 54.1449C34.5507 54.2454 34.4465 54.3968 34.3779 54.5694C34.3462 54.649 34.2823 54.8285 34.2954 55.0569C34.3117 55.3407 34.4541 55.6898 34.8077 55.8966L35.3126 55.0334L35.8175 54.1702C35.9591 54.2531 36.0854 54.376 36.1732 54.534C36.2577 54.686 36.2858 54.8326 36.2921 54.9421C36.3034 55.139 36.2484 55.278 36.2364 55.3082C36.2071 55.3819 36.1852 55.3985 36.2367 55.3284C36.3233 55.2103 36.4989 55.0052 36.7903 54.6971L36.0638 54.0099ZM35.3126 55.0334L35.3629 56.0321L35.5444 56.023L35.4941 55.0243L35.4438 54.0255L35.2623 54.0347L35.3126 55.0334ZM35.4941 55.0243L34.5855 54.6065L34.5437 54.6973L35.4523 55.1151L36.3608 55.5329L36.4026 55.442L35.4941 55.0243Z" fill="currentColor"/>
<path d="M35.9747 32.7059C36.5205 32.7903 37.0314 32.4163 37.1158 31.8705C37.2003 31.3247 36.8263 30.8138 36.2805 30.7294L36.1276 31.7177L35.9747 32.7059ZM36.0288 31.7024L36.1816 30.7141L36.0122 30.6879L35.8437 30.7197L36.0288 31.7024ZM29.1623 30.7648L28.5672 31.5685L29.1623 30.7648ZM28.2897 25.6855L27.4582 25.13L28.2897 25.6855ZM38.2819 26.5986L37.3073 26.8223L38.2819 26.5986ZM37.6411 29.1564L38.3824 29.8275L37.6411 29.1564ZM36.4604 30.4664L37.0631 31.2644L37.1435 31.2036L37.2102 31.1281L36.4604 30.4664ZM36.2862 30.5979L35.6836 29.8L35.414 30.0035L35.3231 30.3288L36.2862 30.5979ZM35.2962 30.4251C35.1476 30.957 35.4583 31.5087 35.9902 31.6574C36.5221 31.806 37.0738 31.4953 37.2224 30.9634L36.2593 30.6942L35.2962 30.4251ZM36.1276 31.7177L36.2805 30.7294L36.1816 30.7141L36.0288 31.7024L35.8759 32.6906L35.9747 32.7059L36.1276 31.7177ZM36.0288 31.7024L35.8437 30.7197C33.9721 31.0721 32.7118 31.1164 31.966 30.9577L31.7579 31.9358L31.5498 32.9139C32.7017 33.159 34.2887 33.0477 36.2138 32.6851L36.0288 31.7024ZM31.7579 31.9358L31.966 30.9577C31.1575 30.7857 30.4242 30.455 29.7575 29.9612L29.1623 30.7648L28.5672 31.5685C29.4634 32.2322 30.4605 32.6822 31.5498 32.9139L31.7579 31.9358ZM29.1623 30.7648L29.7575 29.9612C29.1865 29.5383 28.8395 28.9829 28.7036 28.2397L27.7199 28.4197L26.7362 28.5996C26.9605 29.8258 27.5752 30.8338 28.5672 31.5685L29.1623 30.7648ZM27.7199 28.4197L28.7036 28.2397C28.5706 27.5126 28.7045 26.8647 29.1212 26.2411L28.2897 25.6855L27.4582 25.13C26.755 26.1824 26.509 27.3573 26.7362 28.5996L27.7199 28.4197ZM28.2897 25.6855L29.1212 26.2411C29.6329 25.4752 30.2251 24.8018 30.898 24.2179L30.2426 23.4626L29.5872 22.7073C28.7762 23.4111 28.0664 24.2197 27.4582 25.13L28.2897 25.6855ZM30.2426 23.4626L30.898 24.2179C31.5628 23.6411 32.3098 23.1684 33.1431 22.8L32.7388 21.8854L32.3345 20.9707C31.3236 21.4176 30.4065 21.9964 29.5872 22.7073L30.2426 23.4626ZM32.7388 21.8854L33.1431 22.8C33.8192 22.5011 34.4808 22.4851 35.1888 22.7592L35.5497 21.8266L35.9107 20.894C34.7149 20.4312 33.5026 20.4544 32.3345 20.9707L32.7388 21.8854ZM35.5497 21.8266L35.1888 22.7592C35.8845 23.0285 36.2979 23.4604 36.5171 24.0831L37.4604 23.7511L38.4037 23.4191C37.9791 22.2127 37.1187 21.3616 35.9107 20.894L35.5497 21.8266ZM37.4604 23.7511L36.5171 24.0831C36.826 24.9607 37.0895 25.8737 37.3073 26.8223L38.2819 26.5986L39.2566 26.3748C39.0227 25.3559 38.7385 24.3705 38.4037 23.4191L37.4604 23.7511ZM38.2819 26.5986L37.3073 26.8223C37.4633 27.5017 37.324 28.0167 36.8997 28.4853L37.6411 29.1564L38.3824 29.8275C39.2644 28.8533 39.5523 27.663 39.2566 26.3748L38.2819 26.5986ZM37.6411 29.1564L36.8997 28.4853C36.2488 29.2044 35.8499 29.6469 35.7106 29.8047L36.4604 30.4664L37.2102 31.1281C37.339 30.9821 37.7273 30.5513 38.3824 29.8275L37.6411 29.1564ZM36.4604 30.4664L35.8577 29.6684L35.6836 29.8L36.2862 30.5979L36.8889 31.3959L37.0631 31.2644L36.4604 30.4664ZM36.2862 30.5979L35.3231 30.3288L35.2962 30.4251L36.2593 30.6942L37.2224 30.9634L37.2494 30.8671L36.2862 30.5979Z" fill="currentColor"/>
<path d="M42.8192 56.5165C42.276 56.6163 41.9166 57.1376 42.0165 57.6808C42.1163 58.224 42.6376 58.5834 43.1808 58.4835L43 57.5L42.8192 56.5165ZM43.0984 57.4819L43.2791 58.4654L43.3795 58.447L43.474 58.4087L43.0984 57.4819ZM46.4085 56.8077L47.072 57.5559L47.4424 57.2274L47.4058 56.7337L46.4085 56.8077ZM46.315 56.8906L45.6515 56.1424L42.967 58.5228L46.4958 57.8742L46.315 56.8906ZM46.5941 57.8561C47.1373 57.7562 47.4967 57.235 47.3969 56.6918C47.297 56.1486 46.7757 55.7892 46.2326 55.889L46.4133 56.8726L46.5941 57.8561ZM43 57.5L43.1808 58.4835L43.2791 58.4654L43.0984 57.4819L42.9176 56.4984L42.8192 56.5165L43 57.5ZM43.0984 57.4819L43.474 58.4087C44.2286 58.1028 44.6746 58.0498 44.894 58.0789L45.0256 57.0876L45.1573 56.0963C44.4179 55.9982 43.5791 56.208 42.7227 56.5552L43.0984 57.4819ZM45.0256 57.0876L44.894 58.0789C45.4362 58.1509 46.0968 58.1505 46.6297 57.7945L46.0742 56.963L45.5187 56.1314C45.576 56.0931 45.5973 56.1031 45.5292 56.1112C45.4618 56.1192 45.3426 56.1209 45.1573 56.0963L45.0256 57.0876ZM46.0742 56.963L46.6297 57.7945C46.7338 57.7249 46.7626 57.7123 46.7437 57.721C46.7351 57.7251 46.7106 57.7362 46.6743 57.7482C46.6443 57.7582 46.5665 57.7824 46.4599 57.7903C46.3703 57.797 46.1201 57.8036 45.8609 57.6367C45.5457 57.4337 45.4288 57.1175 45.4113 56.8817L46.4085 56.8077L47.4058 56.7337C47.3875 56.4871 47.2664 56.163 46.9437 55.9552C46.6769 55.7834 46.4157 55.7881 46.3117 55.7958C46.1042 55.8112 45.9428 55.8879 45.9013 55.9071C45.771 55.9676 45.6342 56.0543 45.5187 56.1314L46.0742 56.963ZM46.4085 56.8077L45.7451 56.0595L45.6515 56.1424L46.315 56.8906L46.9784 57.6389L47.072 57.5559L46.4085 56.8077ZM46.315 56.8906L46.4958 57.8742L46.5941 57.8561L46.4133 56.8726L46.2326 55.889L46.1342 55.9071L46.315 56.8906Z" fill="currentColor"/>
<path d="M52.1961 55.0194C51.6546 54.9111 51.1277 55.2623 51.0194 55.8039C50.9111 56.3454 51.2623 56.8723 51.8039 56.9806L52 56L52.1961 55.0194ZM52.0981 56.0196L52.296 55.0394L52.2942 55.039L52.0981 56.0196ZM57.0082 56.9355L57.3974 57.8567L57.9273 57.6328L58.0002 57.0622L57.0082 56.9355ZM56.9019 56.9804L56.5128 56.0592L53.5195 57.3237L56.7058 57.961L56.9019 56.9804ZM56.8039 57.9806C57.3454 58.0889 57.8723 57.7377 57.9806 57.1961C58.0889 56.6546 57.7377 56.1277 57.1961 56.0194L57 57L56.8039 57.9806ZM52 56L51.8039 56.9806L51.9019 57.0002L52.0981 56.0196L52.2942 55.039L52.1961 55.0194L52 56ZM52.0981 56.0196L51.9001 56.9998C53.1612 57.2545 54.0633 57.4902 54.6384 57.701L54.9826 56.7621L55.3268 55.8232C54.6067 55.5592 53.5858 55.2999 52.296 55.0394L52.0981 56.0196ZM54.9826 56.7621L54.6384 57.701C55.33 57.9545 56.0626 58.1196 56.7118 57.9686L56.4852 56.9946L56.2586 56.0206C56.1994 56.0343 55.9302 56.0444 55.3268 55.8232L54.9826 56.7621ZM56.4852 56.9946L56.7118 57.9686C56.8821 57.9289 56.9673 57.9147 56.9938 57.9117C57.0226 57.9084 56.9511 57.9207 56.8418 57.9056C56.7999 57.8998 56.621 57.875 56.4325 57.7444C56.3253 57.6701 56.1961 57.5482 56.1067 57.363C56.0144 57.172 55.9949 56.9763 56.0163 56.8088L57.0082 56.9355L58.0002 57.0622C58.0223 56.8893 58.002 56.6887 57.9076 56.4933C57.8161 56.3037 57.6834 56.1779 57.5713 56.1002C57.3728 55.9628 57.1785 55.9331 57.1154 55.9244C56.964 55.9035 56.8278 55.9177 56.7694 55.9243C56.6215 55.941 56.4424 55.9778 56.2586 56.0206L56.4852 56.9946ZM57.0082 56.9355L56.6191 56.0143L56.5128 56.0592L56.9019 56.9804L57.2911 57.9016L57.3974 57.8567L57.0082 56.9355ZM56.9019 56.9804L56.7058 57.961L56.8039 57.9806L57 57L57.1961 56.0194L57.0981 55.9998L56.9019 56.9804Z" fill="currentColor"/>
<path d="M62.7531 55.2016C62.2045 55.2651 61.8113 55.7614 61.8748 56.31C61.9383 56.8586 62.4346 57.2518 62.9832 57.1883L62.8682 56.1949L62.7531 55.2016ZM62.9675 56.1834L63.0826 57.1768L63.143 57.1698L63.2021 57.1555L62.9675 56.1834ZM66.4201 55.836L65.9038 54.9796L66.4201 55.836ZM66.8028 55.6738L67.436 56.4477L67.8485 56.1102L67.7983 55.5795L66.8028 55.6738ZM66.7096 55.75L66.0763 54.9761L63.4365 57.1358L66.8246 56.7434L66.7096 55.75ZM66.9239 56.7319C67.4726 56.6683 67.8658 56.1721 67.8023 55.6235C67.7387 55.0749 67.2425 54.6816 66.6938 54.7452L66.8089 55.7385L66.9239 56.7319ZM62.8682 56.1949L62.9832 57.1883L63.0826 57.1768L62.9675 56.1834L62.8524 55.1901L62.7531 55.2016L62.8682 56.1949ZM62.9675 56.1834L63.2021 57.1555C64.1327 56.931 64.74 56.8879 65.0918 56.9379L65.2323 55.9478L65.3729 54.9577C64.643 54.8541 63.7405 54.9682 62.7329 55.2113L62.9675 56.1834ZM65.2323 55.9478L65.0918 56.9379C65.6885 57.0226 66.3785 57.0287 66.9364 56.6924L66.4201 55.836L65.9038 54.9796C65.9443 54.9552 65.9402 54.9725 65.8412 54.9818C65.7441 54.991 65.5923 54.9889 65.3729 54.9577L65.2323 55.9478ZM66.4201 55.836L66.9364 56.6924C67.0557 56.6205 67.0997 56.6004 67.0944 56.6026C67.0895 56.6047 67.0702 56.6128 67.0403 56.622C67.0158 56.6295 66.9499 56.6487 66.8591 56.6562C66.7891 56.662 66.5659 56.6745 66.3206 56.5422C66.1842 56.4686 66.0524 56.3555 65.9542 56.1995C65.8581 56.0468 65.819 55.8927 65.8072 55.768L66.8028 55.6738L67.7983 55.5795C67.7698 55.2778 67.5991 54.9595 67.2703 54.7821C67.0163 54.645 66.7805 54.6559 66.694 54.663C66.5087 54.6784 66.3604 54.7415 66.3137 54.7613C66.1809 54.8176 66.0355 54.9002 65.9038 54.9796L66.4201 55.836ZM66.8028 55.6738L66.1695 54.8998L66.0763 54.9761L66.7096 55.75L67.3428 56.524L67.436 56.4477L66.8028 55.6738ZM66.7096 55.75L66.8246 56.7434L66.9239 56.7319L66.8089 55.7385L66.6938 54.7452L66.5945 54.7567L66.7096 55.75Z" fill="currentColor"/>
</svg>
