<svg width="68" height="68" viewBox="0 0 68 68" fill="none" xmlns="http://www.w3.org/2000/svg">
<rect width="68" height="68" fill="white"/>
<path d="M45.5823 19.5552C46.1265 19.4607 46.4909 18.9429 46.3964 18.3988C46.3018 17.8547 45.7841 17.4902 45.24 17.5848L45.4111 18.57L45.5823 19.5552ZM45.3126 18.5871L45.2413 19.5846L45.3633 19.5933L45.4838 19.5724L45.3126 18.5871ZM41.0441 18.622L40.8884 17.6341L41.0441 18.622ZM33.034 22.4912L32.6447 21.5701L33.034 22.4912ZM20.2386 30.0997L20.956 30.7963L20.2386 30.0997ZM17.8984 31.9614L18.4134 32.8185L17.8984 31.9614ZM15.5097 33.7236L14.8427 32.9786L15.5097 33.7236ZM8.28488 42.555L7.29217 42.4345L8.28488 42.555ZM8.38637 48.2701L7.54632 48.8126L8.38637 48.2701ZM13.5396 55.4939L12.7659 56.1274L13.5396 55.4939ZM15.961 57.1257L15.6624 58.08L15.961 57.1257ZM18.7414 58.232L19.1827 57.3347L18.7414 58.232ZM24.3603 60.0051L24.194 60.9912L24.3603 60.0051ZM27.272 60.6875L26.9838 61.6451L27.272 60.6875ZM33.2111 61.1165L33.2629 60.1179L33.2111 61.1165ZM36.1816 61.4684L36.3638 60.4851L36.1816 61.4684ZM50.6235 59.1573L50.0865 58.3137L50.6235 59.1573ZM53.1334 57.5505L53.6746 58.3914L53.1334 57.5505ZM57.1656 53.1441L56.5591 52.3491L57.1656 53.1441ZM59.643 47.8871L60.6422 47.9281L59.643 47.8871ZM60.6618 39.0385L61.6515 38.8953L60.6618 39.0385ZM60.1395 36.1001L61.1179 35.8933L60.1395 36.1001ZM59.3595 33.2313L58.411 33.5482L59.3595 33.2313ZM58.2787 30.4523L59.1921 30.0452L58.2787 30.4523ZM56.993 27.7493L56.1008 28.2011L56.993 27.7493ZM55.2707 25.3169L54.5474 26.0074L55.2707 25.3169ZM48.8838 19.2762L49.4183 18.4311L48.8838 19.2762ZM41.2649 17.9217L41.3082 16.9227L41.2962 16.9222L41.2842 16.9219L41.2649 17.9217ZM40.9131 17.9149L40.7858 18.9068L40.8396 18.9137L40.8938 18.9148L40.9131 17.9149ZM40.9412 16.9104C40.3934 16.8401 39.8923 17.2272 39.822 17.775C39.7518 18.3228 40.1389 18.8238 40.6867 18.8941L40.8139 17.9022L40.9412 16.9104ZM45.4111 18.57L45.24 17.5848L45.1414 17.6019L45.3126 18.5871L45.4838 19.5724L45.5823 19.5552L45.4111 18.57ZM45.3126 18.5871L45.3839 17.5897C43.5046 17.4553 41.9914 17.4603 40.8884 17.6341L41.0441 18.622L41.1998 19.6098C42.0754 19.4718 43.4079 19.4535 45.2413 19.5846L45.3126 18.5871ZM41.0441 18.622L40.8884 17.6341C39.7707 17.8103 38.7244 18.1932 37.7563 18.7801L38.2748 19.6352L38.7933 20.4903C39.5392 20.0381 40.3391 19.7454 41.1998 19.6098L41.0441 18.622ZM38.2748 19.6352L37.7563 18.7801C36.905 19.2963 36.0525 19.8018 35.1991 20.2966L35.7007 21.1617L36.2022 22.0268C37.0671 21.5255 37.9308 21.0133 38.7933 20.4903L38.2748 19.6352ZM35.7007 21.1617L35.1991 20.2966C34.3763 20.7735 33.5249 21.198 32.6447 21.5701L33.034 22.4912L33.4234 23.4123C34.3803 23.0078 35.3067 22.546 36.2022 22.0268L35.7007 21.1617ZM33.034 22.4912L32.6447 21.5701C31.6902 21.9736 30.764 22.4306 29.8665 22.9413L30.361 23.8104L30.8555 24.6796C31.6847 24.2078 32.5406 23.7854 33.4234 23.4123L33.034 22.4912ZM30.361 23.8104L29.8665 22.9413C28.9696 23.4515 28.1034 24.0127 27.2679 24.6248L27.8589 25.4315L28.4499 26.2381C29.2237 25.6712 30.0255 25.1518 30.8555 24.6796L30.361 23.8104ZM27.8589 25.4315L27.2679 24.6248C26.4943 25.1916 25.6926 25.7107 24.8627 26.1822L25.3567 27.0516L25.8507 27.9211C26.7479 27.4113 27.6143 26.8503 28.4499 26.2381L27.8589 25.4315ZM25.3567 27.0516L24.8627 26.1822C24.0288 26.656 23.167 27.0893 22.277 27.4821L22.6808 28.397L23.0846 29.3118C24.0355 28.8921 24.9575 28.4286 25.8507 27.9211L25.3567 27.0516ZM22.6808 28.397L22.277 27.4821C21.2379 27.9408 20.3176 28.5829 19.5212 29.4031L20.2386 30.0997L20.956 30.7963C21.5751 30.1587 22.283 29.6657 23.0846 29.3118L22.6808 28.397ZM20.2386 30.0997L19.5212 29.4031C18.8723 30.0713 18.16 30.6375 17.3833 31.1043L17.8984 31.9614L18.4134 32.8185C19.3415 32.2608 20.1893 31.5859 20.956 30.7963L20.2386 30.0997ZM17.8984 31.9614L17.3833 31.1043C16.4769 31.649 15.6298 32.2739 14.8427 32.9786L15.5097 33.7236L16.1767 34.4686C16.8697 33.8482 17.615 33.2983 18.4134 32.8185L17.8984 31.9614ZM15.5097 33.7236L14.8427 32.9786C14.1494 33.5993 13.4005 34.1529 12.5952 34.6398L13.1126 35.4955L13.63 36.3513C14.5407 35.8007 15.3899 35.1731 16.1767 34.4686L15.5097 33.7236ZM13.1126 35.4955L12.5952 34.6398C11.6495 35.2115 10.8135 35.9124 10.0904 36.7406L10.8438 37.3982L11.5971 38.0559C12.1832 37.3845 12.8597 36.8169 13.63 36.3513L13.1126 35.4955ZM10.8438 37.3982L10.0904 36.7406C9.38809 37.545 8.7848 38.4116 8.28195 39.3394L9.16114 39.8159L10.0403 40.2924C10.4718 39.4962 10.9903 38.7509 11.5971 38.0559L10.8438 37.3982ZM9.16114 39.8159L8.28195 39.3394C7.75549 40.3108 7.42445 41.3445 7.29217 42.4345L8.28488 42.555L9.2776 42.6755C9.37931 41.8374 9.63244 41.045 10.0403 40.2924L9.16114 39.8159ZM8.28488 42.555L7.29217 42.4345C7.17771 43.3777 7.03085 44.3381 6.85142 45.3158L7.835 45.4963L8.81857 45.6768C9.00499 44.661 9.15806 43.6605 9.2776 42.6755L8.28488 42.555ZM7.835 45.4963L6.85142 45.3158C6.62246 46.5634 6.85785 47.7466 7.54632 48.8126L8.38637 48.2701L9.22642 47.7276C8.81387 47.0888 8.68168 46.4227 8.81857 45.6768L7.835 45.4963ZM8.38637 48.2701L7.54632 48.8126C8.0729 49.628 8.53524 50.462 8.93396 51.3145L9.8398 50.8909L10.7456 50.4673C10.3075 49.5304 9.80086 48.6171 9.22642 47.7276L8.38637 48.2701ZM9.8398 50.8909L8.93396 51.3145C9.40255 52.3165 10.0322 53.2088 10.8195 53.9871L11.5225 53.2759L12.2255 52.5647C11.6061 51.9524 11.1139 51.2548 10.7456 50.4673L9.8398 50.8909ZM11.5225 53.2759L10.8195 53.9871C11.4973 54.6571 12.1461 55.3704 12.7659 56.1274L13.5396 55.4939L14.3134 54.8605C13.6503 54.0505 12.9544 53.2852 12.2255 52.5647L11.5225 53.2759ZM13.5396 55.4939L12.7659 56.1274C13.5318 57.063 14.5046 57.7178 15.6624 58.08L15.961 57.1257L16.2596 56.1713C15.4717 55.9248 14.8302 55.4918 14.3134 54.8605L13.5396 55.4939ZM15.961 57.1257L15.6624 58.08C16.5882 58.3697 17.4671 58.7197 18.3 59.1293L18.7414 58.232L19.1827 57.3347C18.2542 56.878 17.2796 56.4904 16.2596 56.1713L15.961 57.1257ZM18.7414 58.232L18.3 59.1293C19.2281 59.5858 20.1894 59.9678 21.1835 60.2753L21.479 59.32L21.7745 58.3646C20.8798 58.0879 20.0161 57.7446 19.1827 57.3347L18.7414 58.232ZM21.479 59.32L21.1835 60.2753C22.1703 60.5806 23.1739 60.8192 24.194 60.9912L24.3603 60.0051L24.5266 59.0191C23.5937 58.8618 22.6764 58.6436 21.7745 58.3646L21.479 59.32ZM24.3603 60.0051L24.194 60.9912C25.1287 61.1488 26.0585 61.3667 26.9838 61.6451L27.272 60.6875L27.5601 59.7299C26.5562 59.4278 25.545 59.1908 24.5266 59.0191L24.3603 60.0051ZM27.272 60.6875L26.9838 61.6451C28.0502 61.966 29.14 62.1116 30.2491 62.0808L30.2213 61.0812L30.1936 60.0815C29.2993 60.1064 28.4229 59.9895 27.5601 59.7299L27.272 60.6875ZM30.2213 61.0812L30.2491 62.0808C31.2245 62.0537 32.1945 62.0652 33.1593 62.1152L33.2111 61.1165L33.2629 60.1179C32.2446 60.0651 31.2215 60.053 30.1936 60.0815L30.2213 61.0812ZM33.2111 61.1165L33.1593 62.1152C34.1066 62.1643 35.0531 62.2764 35.9994 62.4517L36.1816 61.4684L36.3638 60.4851C35.3324 60.2941 34.2987 60.1716 33.2629 60.1179L33.2111 61.1165ZM36.1816 61.4684L35.9994 62.4517C37.1094 62.6573 38.2253 62.6565 39.341 62.4502L39.1591 61.4669L38.9773 60.4836C38.1004 60.6457 37.2313 60.6459 36.3638 60.4851L36.1816 61.4684ZM39.1591 61.4669L39.341 62.4502C40.266 62.2792 41.1862 62.2119 42.1028 62.2474L42.1416 61.2482L42.1803 60.2489C41.1128 60.2076 40.0447 60.2862 38.9773 60.4836L39.1591 61.4669ZM42.1416 61.2482L42.1028 62.2474C43.1311 62.2873 44.1618 62.2713 45.1948 62.1996L45.1256 61.202L45.0564 60.2044C44.0947 60.2712 43.1361 60.286 42.1803 60.2489L42.1416 61.2482ZM45.1256 61.202L45.1948 62.1996C46.3008 62.1229 47.3674 61.8705 48.3906 61.4435L48.0054 60.5206L47.6202 59.5978C46.7981 59.9409 45.9449 60.1428 45.0564 60.2044L45.1256 61.202ZM48.0054 60.5206L48.3906 61.4435C49.3646 61.0369 50.2882 60.5561 51.1605 60.0009L50.6235 59.1573L50.0865 58.3137C49.3131 58.806 48.4913 59.2342 47.6202 59.5978L48.0054 60.5206ZM50.6235 59.1573L51.1605 60.0009C51.9848 59.4761 52.8228 58.9397 53.6746 58.3914L53.1334 57.5505L52.5922 56.7097C51.7431 57.2561 50.9079 57.7908 50.0865 58.3137L50.6235 59.1573ZM53.1334 57.5505L53.6746 58.3914C54.6602 57.7572 55.452 56.924 56.0426 55.9033L55.177 55.4025L54.3115 54.9016C53.8783 55.6503 53.3077 56.2492 52.5922 56.7097L53.1334 57.5505ZM55.177 55.4025L56.0426 55.9033C56.4883 55.133 57.0631 54.4801 57.7722 53.9391L57.1656 53.1441L56.5591 52.3491C55.6405 53.0499 54.8896 53.9026 54.3115 54.9016L55.177 55.4025ZM57.1656 53.1441L57.7722 53.9391C58.7229 53.2138 59.4374 52.2966 59.9038 51.2002L58.9836 50.8087L58.0634 50.4173C57.7335 51.1928 57.2361 51.8325 56.5591 52.3491L57.1656 53.1441ZM58.9836 50.8087L59.9038 51.2002C60.349 50.1536 60.5957 49.061 60.6422 47.9281L59.643 47.8871L58.6438 47.8462C58.6073 48.7367 58.4145 49.5919 58.0634 50.4173L58.9836 50.8087ZM59.643 47.8871L60.6422 47.9281C60.6821 46.9544 60.7766 46.0033 60.9254 45.0745L59.938 44.9163L58.9506 44.7581C58.789 45.7669 58.6869 46.7964 58.6438 47.8462L59.643 47.8871ZM59.938 44.9163L60.9254 45.0745C61.0765 44.1316 61.2666 43.1821 61.496 42.226L60.5236 41.9927L59.5512 41.7594C59.3102 42.7638 59.11 43.7634 58.9506 44.7581L59.938 44.9163ZM60.5236 41.9927L61.496 42.226C61.7606 41.1236 61.8129 40.0111 61.6515 38.8953L60.6618 39.0385L59.6721 39.1817C59.7969 40.0444 59.7571 40.9013 59.5512 41.7594L60.5236 41.9927ZM60.6618 39.0385L61.6515 38.8953C61.5053 37.8849 61.3274 36.8842 61.1179 35.8933L60.1395 36.1001L59.1612 36.307C59.3617 37.2554 59.532 38.2136 59.6721 39.1817L60.6618 39.0385ZM60.1395 36.1001L61.1179 35.8933C60.905 34.8862 60.635 33.8932 60.308 32.9144L59.3595 33.2313L58.411 33.5482C58.714 34.4551 58.9641 35.3746 59.1612 36.307L60.1395 36.1001ZM59.3595 33.2313L60.308 32.9144C59.9827 31.941 59.6107 30.9845 59.1921 30.0452L58.2787 30.4523L57.3653 30.8593C57.7577 31.7398 58.1063 32.6361 58.411 33.5482L59.3595 33.2313ZM58.2787 30.4523L59.1921 30.0452C58.7799 29.1202 58.3442 28.2043 57.8851 27.2976L56.993 27.7493L56.1008 28.2011C56.545 29.0784 56.9665 29.9645 57.3653 30.8593L58.2787 30.4523ZM56.993 27.7493L57.8851 27.2976C57.3888 26.3174 56.7576 25.4262 55.994 24.6264L55.2707 25.3169L54.5474 26.0074C55.1768 26.6668 55.6938 27.3973 56.1008 28.2011L56.993 27.7493ZM55.2707 25.3169L55.994 24.6264C55.3292 23.9301 54.7229 23.199 54.1746 22.4332L53.3615 23.0153L52.5484 23.5975C53.1525 24.4412 53.819 25.2445 54.5474 26.0074L55.2707 25.3169ZM53.3615 23.0153L54.1746 22.4332C53.5375 21.5434 52.779 20.7739 51.9014 20.1278L51.3085 20.9331L50.7156 21.7384C51.4229 22.2591 52.0331 22.8777 52.5484 23.5975L53.3615 23.0153ZM51.3085 20.9331L51.9014 20.1278C51.0901 19.5305 50.2624 18.9649 49.4183 18.4311L48.8838 19.2762L48.3492 20.1214C49.1532 20.6298 49.942 21.1688 50.7156 21.7384L51.3085 20.9331ZM48.8838 19.2762L49.4183 18.4311C48.4707 17.8318 47.4293 17.4552 46.3046 17.3009L46.1687 18.2916L46.0328 19.2823C46.88 19.3985 47.6487 19.6783 48.3492 20.1214L48.8838 19.2762ZM46.1687 18.2916L46.3046 17.3009C45.2901 17.1617 44.2726 17.0668 43.2523 17.0162L43.2028 18.015L43.1533 19.0137C44.1156 19.0614 45.0754 19.151 46.0328 19.2823L46.1687 18.2916ZM43.2028 18.015L43.2523 17.0162C42.2618 16.9671 41.6125 16.9359 41.3082 16.9227L41.2649 17.9217L41.2217 18.9208C41.5186 18.9337 42.1613 18.9646 43.1533 19.0137L43.2028 18.015ZM41.2649 17.9217L41.2842 16.9219L40.9324 16.9151L40.9131 17.9149L40.8938 18.9148L41.2456 18.9216L41.2649 17.9217ZM40.9131 17.9149L41.0404 16.9231L40.9412 16.9104L40.8139 17.9022L40.6867 18.8941L40.7858 18.9068L40.9131 17.9149Z" fill="#FF5454"/>
<path d="M22.0381 30.0701C22.5008 30.3718 23.1203 30.2413 23.422 29.7787C23.7236 29.3161 23.5932 28.6965 23.1305 28.3948L22.5843 29.2325L22.0381 30.0701ZM22.5006 29.1779L23.0468 28.3402L23.0244 28.3256L23.0012 28.3122L22.5006 29.1779ZM18.8661 26.7468L19.5215 25.9916L18.8661 26.7468ZM11.2449 22.0734L10.6307 22.8626L11.2449 22.0734ZM8.79025 20.378L8.26976 21.2318L8.79025 20.378ZM7.31874 30.6225L6.39214 30.9985L7.31874 30.6225ZM8.11448 33.4977L7.12653 33.6524L8.11448 33.4977ZM8.89524 36.3736L9.82538 36.0064L8.89524 36.3736ZM9.8325 38.4774L8.95394 38.955L9.8325 38.4774ZM10.1567 39.2268L9.62764 40.0753L10.1002 40.37L10.5995 40.1234L10.1567 39.2268ZM10.0576 39.1649L10.5867 38.3164L8.15225 36.7985L9.11566 39.5008L10.0576 39.1649ZM9.14924 39.595C9.33471 40.1152 9.90677 40.3865 10.427 40.2011C10.9472 40.0156 11.2186 39.4435 11.0331 38.9233L10.0912 39.2591L9.14924 39.595ZM22.5843 29.2325L23.1305 28.3948L23.0468 28.3402L22.5006 29.1779L21.9544 30.0155L22.0381 30.0701L22.5843 29.2325ZM22.5006 29.1779L23.0012 28.3122C21.3503 27.3574 20.2054 26.5851 19.5215 25.9916L18.8661 26.7468L18.2106 27.502C19.0416 28.2233 20.3196 29.0717 21.9999 30.0435L22.5006 29.1779ZM18.8661 26.7468L19.5215 25.9916C18.6967 25.2757 17.7913 24.6812 16.8074 24.2096L16.3751 25.1113L15.9429 26.0131C16.7654 26.4073 17.5206 26.9032 18.2106 27.502L18.8661 26.7468ZM16.3751 25.1113L16.8074 24.2096C15.9245 23.7864 15.0608 23.3356 14.216 22.8572L13.7232 23.7273L13.2304 24.5974C14.1151 25.0985 15.0193 25.5704 15.9429 26.0131L16.3751 25.1113ZM13.7232 23.7273L14.216 22.8572C13.3938 22.3915 12.6083 21.8673 11.859 21.2842L11.2449 22.0734L10.6307 22.8626C11.4565 23.5052 12.3231 24.0836 13.2304 24.5974L13.7232 23.7273ZM11.2449 22.0734L11.859 21.2842C11.0416 20.6481 10.1922 20.0614 9.31075 19.5241L8.79025 20.378L8.26976 21.2318C9.08611 21.7294 9.87305 22.273 10.6307 22.8626L11.2449 22.0734ZM8.79025 20.378L9.31075 19.5241C8.41276 18.9767 7.48243 18.5153 6.52009 18.1408L6.15741 19.0727L5.79474 20.0046C6.64507 20.3355 7.46997 20.7443 8.26976 21.2318L8.79025 20.378ZM6.15741 19.0727L6.52009 18.1408C5.99335 17.9358 5.36316 17.7932 4.76443 17.9899C4.06964 18.2183 3.71388 18.7923 3.57913 19.3743L4.55336 19.5998L5.52759 19.8254C5.54418 19.7538 5.55627 19.7576 5.52887 19.7921C5.4942 19.8359 5.4406 19.8729 5.38886 19.8899C5.34834 19.9033 5.35061 19.8906 5.42543 19.8998C5.50063 19.909 5.62118 19.9371 5.79474 20.0046L6.15741 19.0727ZM4.55336 19.5998L3.57913 19.3743C3.38469 20.2142 3.35282 21.1808 3.4511 22.2505L4.44691 22.159L5.44271 22.0675C5.35689 21.1334 5.39599 20.3939 5.52759 19.8254L4.55336 19.5998ZM4.44691 22.159L3.4511 22.2505C3.55589 23.391 3.88852 24.4702 4.44468 25.4802L5.32065 24.9978L6.19662 24.5154C5.7719 23.7441 5.52203 22.9308 5.44271 22.0675L4.44691 22.159ZM5.32065 24.9978L4.44468 25.4802C4.8931 26.2945 5.22215 27.1404 5.43416 28.0196L6.4063 27.7852L7.37843 27.5507C7.12379 26.4947 6.72908 25.4824 6.19662 24.5154L5.32065 24.9978ZM6.4063 27.7852L5.43416 28.0196C5.67915 29.0355 5.99853 30.0287 6.39214 30.9985L7.31874 30.6225L8.24534 30.2465C7.88901 29.3684 7.6001 28.47 7.37843 27.5507L6.4063 27.7852ZM7.31874 30.6225L6.39214 30.9985C6.738 31.8508 6.9828 32.7349 7.12653 33.6524L8.11448 33.4977L9.10243 33.3429C8.93512 32.2748 8.64942 31.2421 8.24534 30.2465L7.31874 30.6225ZM8.11448 33.4977L7.12653 33.6524C7.29332 34.7172 7.57279 35.7471 7.9651 36.7408L8.89524 36.3736L9.82538 36.0064C9.48773 35.1512 9.24669 34.2638 9.10243 33.3429L8.11448 33.4977ZM8.89524 36.3736L7.9651 36.7408C8.33498 37.6777 8.66493 38.4234 8.95394 38.955L9.8325 38.4774L10.7111 37.9998C10.4804 37.5754 10.1855 36.9185 9.82538 36.0064L8.89524 36.3736ZM9.8325 38.4774L8.95394 38.955C9.0807 39.1882 9.15509 39.3381 9.19067 39.4203C9.21195 39.4695 9.20085 39.4526 9.18805 39.3986C9.18365 39.38 9.1583 39.2766 9.16868 39.1349C9.17708 39.0202 9.2392 38.5646 9.71394 38.3301L10.1567 39.2268L10.5995 40.1234C11.0852 39.8835 11.1535 39.4154 11.1633 39.281C11.1752 39.1197 11.1465 38.9895 11.1341 38.937C11.1052 38.8152 11.059 38.7019 11.0262 38.6261C10.9537 38.4586 10.8442 38.2446 10.7111 37.9998L9.8325 38.4774ZM10.1567 39.2268L10.6858 38.3782L10.5867 38.3164L10.0576 39.1649L9.5285 40.0135L9.62764 40.0753L10.1567 39.2268ZM10.0576 39.1649L9.11566 39.5008L9.14924 39.595L10.0912 39.2591L11.0331 38.9233L10.9995 38.8291L10.0576 39.1649Z" fill="#FF5454"/>
<path d="M45.0238 21.3967C44.6177 21.7711 44.5921 22.4037 44.9665 22.8098C45.3409 23.2158 45.9736 23.2414 46.3796 22.867L45.7017 22.1319L45.0238 21.3967ZM45.7752 22.0641L46.4531 22.7992L46.4736 22.7802L46.4931 22.7602L45.7752 22.0641ZM51.2215 17.1234L51.9868 17.767L51.2215 17.1234ZM53.2322 14.906L53.9473 15.6051L53.2322 14.906ZM55.4768 12.9451L56.0738 13.7474L55.4768 12.9451ZM57.7872 11.0553L58.4553 11.7994L57.7872 11.0553ZM63.4594 7.26447L64.4551 7.17176L63.4594 7.26447ZM63.4337 12.9406L62.4615 12.7064L63.4337 12.9406ZM61.7674 21.7304L62.7637 21.8169L61.7674 21.7304ZM61.5064 24.7036L62.5025 24.792L61.5064 24.7036ZM60.6772 30.6019L59.7428 30.2457L60.6772 30.6019ZM60.2365 33.5361L59.2389 33.6051L60.2365 33.5361ZM60.1527 35.0017L59.5301 35.7842L59.716 35.9322L59.9487 35.9807L60.1527 35.0017ZM59.9791 34.8636L60.6018 34.0811L59.2395 32.9971L58.9895 34.7199L59.9791 34.8636ZM58.9751 34.8189C58.8958 35.3655 59.2746 35.8728 59.8211 35.9522C60.3677 36.0315 60.8751 35.6527 60.9544 35.1062L59.9648 34.9625L58.9751 34.8189ZM45.7017 22.1319L46.3796 22.867L46.4531 22.7992L45.7752 22.0641L45.0973 21.3289L45.0238 21.3967L45.7017 22.1319ZM45.7752 22.0641L46.4931 22.7602C47.8215 21.3901 48.8492 20.4689 49.5908 19.9531L49.0198 19.1321L48.4489 18.3112C47.5449 18.9399 46.4094 19.9733 45.0572 21.368L45.7752 22.0641ZM49.0198 19.1321L49.5908 19.9531C50.4859 19.3305 51.2852 18.6013 51.9868 17.767L51.2215 17.1234L50.4562 16.4797C49.8679 17.1792 49.1994 17.7892 48.4489 18.3112L49.0198 19.1321ZM51.2215 17.1234L51.9868 17.767C52.6159 17.0191 53.2693 16.2985 53.9473 15.6051L53.2322 14.906L52.5172 14.2069C51.8041 14.9362 51.1171 15.6939 50.4562 16.4797L51.2215 17.1234ZM53.2322 14.906L53.9473 15.6051C54.606 14.9313 55.3147 14.3121 56.0738 13.7474L55.4768 12.9451L54.8799 12.1428C54.0371 12.7698 53.2494 13.458 52.5172 14.2069L53.2322 14.906ZM55.4768 12.9451L56.0738 13.7474C56.8992 13.1332 57.693 12.4839 58.4553 11.7994L57.7872 11.0553L57.1191 10.3113C56.4026 10.9546 55.6563 11.5651 54.8799 12.1428L55.4768 12.9451ZM57.7872 11.0553L58.4553 11.7994C59.2162 11.1161 59.9478 10.3996 60.6501 9.64986L59.9202 8.96625L59.1904 8.28263C58.5273 8.99053 57.8369 9.66672 57.1191 10.3113L57.7872 11.0553ZM59.9202 8.96625L60.6501 9.64986C61.2923 8.96418 61.9903 8.34 62.7447 7.77691L62.1466 6.97554L61.5484 6.17417C60.6996 6.80772 59.9134 7.51069 59.1904 8.28263L59.9202 8.96625ZM62.1466 6.97554L62.7447 7.77691C62.9069 7.65586 63.0081 7.60286 63.055 7.58387C63.1095 7.56179 63.024 7.61153 62.861 7.57566C62.7732 7.55633 62.6851 7.5163 62.6085 7.45664C62.5346 7.39902 62.4915 7.33899 62.4695 7.30077C62.4329 7.23732 62.452 7.23171 62.4637 7.35718L63.4594 7.26447L64.4551 7.17176C64.4127 6.7162 64.2117 5.82504 63.2909 5.6224C62.9091 5.53837 62.5593 5.62679 62.304 5.73021C62.0411 5.83672 61.787 5.99605 61.5484 6.17417L62.1466 6.97554ZM63.4594 7.26447L62.4637 7.35718C62.5365 8.13895 62.6084 9.03283 62.6793 10.0395L63.6768 9.96922L64.6744 9.89894C64.6027 8.88117 64.5296 7.97189 64.4551 7.17176L63.4594 7.26447ZM63.6768 9.96922L62.6793 10.0395C62.7436 10.9514 62.6705 11.8391 62.4615 12.7064L63.4337 12.9406L64.4059 13.1749C64.6637 12.1047 64.7528 11.0115 64.6744 9.89894L63.6768 9.96922ZM63.4337 12.9406L62.4615 12.7064C62.2161 13.7252 62.0503 14.757 61.9642 15.8014L62.9609 15.8835L63.9575 15.9656C64.0351 15.0237 64.1845 14.0936 64.4059 13.1749L63.4337 12.9406ZM62.9609 15.8835L61.9642 15.8014C61.8889 16.7157 61.7069 17.6134 61.4172 18.4961L62.3674 18.8079L63.3176 19.1196C63.6556 18.0895 63.8692 17.0377 63.9575 15.9656L62.9609 15.8835ZM62.3674 18.8079L61.4172 18.4961C61.0797 19.5248 60.8641 20.5745 60.7712 21.6438L61.7674 21.7304L62.7637 21.8169C62.8431 20.9024 63.0275 20.0038 63.3176 19.1196L62.3674 18.8079ZM61.7674 21.7304L60.7712 21.6438C60.6851 22.6352 60.5981 23.6257 60.5103 24.6153L61.5064 24.7036L62.5025 24.792C62.5904 23.8011 62.6774 22.8095 62.7637 21.8169L61.7674 21.7304ZM61.5064 24.7036L60.5103 24.6153C60.4214 25.6179 60.3512 26.6227 60.2997 27.6297L61.2984 27.6808L62.2971 27.7319C62.3473 26.7497 62.4158 25.7698 62.5025 24.792L61.5064 24.7036ZM61.2984 27.6808L60.2997 27.6297C60.2543 28.5172 60.0697 29.3881 59.7428 30.2457L60.6772 30.6019L61.6116 30.9581C62.0112 29.9099 62.2407 28.8333 62.2971 27.7319L61.2984 27.6808ZM60.6772 30.6019L59.7428 30.2457C59.3286 31.3321 59.1592 32.4552 59.2389 33.6051L60.2365 33.5361L61.2341 33.467C61.1748 32.6105 61.2992 31.7775 61.6116 30.9581L60.6772 30.6019ZM60.2365 33.5361L59.2389 33.6051C59.2731 34.0989 59.2795 34.4197 59.2693 34.5978C59.2633 34.7018 59.2552 34.6828 59.2792 34.6103C59.2888 34.5814 59.3376 34.433 59.4825 34.2858C59.5638 34.2033 59.6864 34.1101 59.8551 34.0532C60.0289 33.9944 60.2032 33.9907 60.3568 34.0227L60.1527 35.0017L59.9487 35.9807C60.3432 36.0629 60.6916 35.9085 60.9077 35.6889C61.0779 35.5161 61.149 35.326 61.1777 35.2393C61.24 35.0512 61.258 34.8523 61.266 34.7119C61.2837 34.4016 61.2694 33.9765 61.2341 33.467L60.2365 33.5361ZM60.1527 35.0017L60.7754 34.2192L60.6018 34.0811L59.9791 34.8636L59.3565 35.6461L59.5301 35.7842L60.1527 35.0017ZM59.9791 34.8636L58.9895 34.7199L58.9751 34.8189L59.9648 34.9625L60.9544 35.1062L60.9687 35.0072L59.9791 34.8636Z" fill="#FF5454"/>
<path d="M26.8113 33.7251C27.2118 34.1054 27.8447 34.0891 28.2251 33.6887C28.6054 33.2882 28.5891 32.6553 28.1887 32.2749L27.5 33L26.8113 33.7251ZM27.2392 32.3804L26.2783 32.1036L27.2392 32.3804ZM27.4472 32.8944C27.9412 32.6474 28.1414 32.0468 27.8944 31.5528C27.6474 31.0588 27.0468 30.8586 26.5528 31.1056L27 32L27.4472 32.8944ZM27.5 33L28.1887 32.2749C28.1353 32.2242 28.1566 32.2281 28.1841 32.2934C28.1993 32.3297 28.2158 32.3836 28.2211 32.452C28.2264 32.5217 28.219 32.5919 28.2002 32.6572L27.2392 32.3804L26.2783 32.1036C26.068 32.8339 26.4772 33.4078 26.8113 33.7251L27.5 33ZM27.2392 32.3804L28.2002 32.6572C28.2464 32.4967 28.3306 32.1347 28.162 31.7533C27.9416 31.2545 27.4807 31.0968 27.1719 31.0756L27.1035 32.0732L27.0351 33.0709C26.9651 33.0661 26.834 33.0459 26.6888 32.9608C26.5304 32.868 26.4056 32.7268 26.3327 32.5618C26.2661 32.4111 26.2605 32.282 26.263 32.2152C26.2654 32.1476 26.2773 32.107 26.2783 32.1036L27.2392 32.3804ZM27.1035 32.0732L27.1719 31.0756C27.0916 31.0701 27.1351 31.0677 27.2166 31.09C27.2417 31.0969 27.3119 31.1169 27.3966 31.1607C27.4439 31.1851 27.7021 31.3165 27.8444 31.6377C27.9284 31.8273 27.954 32.0461 27.9047 32.2622C27.859 32.4621 27.7624 32.6034 27.691 32.6868C27.5623 32.8371 27.4228 32.9066 27.389 32.9235L26.9418 32.0291L26.4946 31.1347C26.4512 31.1564 26.3049 31.2307 26.1722 31.3855C26.0054 31.5802 25.8116 31.9869 26.0158 32.4478C26.16 32.7732 26.423 32.9088 26.478 32.9372C26.5704 32.985 26.6511 33.0088 26.6897 33.0193C26.8251 33.0563 26.9689 33.0664 27.0351 33.0709L27.1035 32.0732ZM26.9418 32.0291L27.389 32.9235L27.4472 32.8944L27 32L26.5528 31.1056L26.4946 31.1347L26.9418 32.0291Z" fill="#FF5454"/>
<path d="M40.5016 29.0559C40.5325 29.6074 41.0045 30.0293 41.5559 29.9984C42.1074 29.9675 42.5293 29.4955 42.4984 28.9441L41.5 29L40.5016 29.0559ZM41.4629 29.0961C41.9782 29.2948 42.5571 29.0382 42.7558 28.5229C42.9545 28.0076 42.6979 27.4288 42.1826 27.2301L41.8228 28.1631L41.4629 29.0961ZM41.5 29L42.4984 28.9441C42.4965 28.9099 42.5089 28.9908 42.4483 29.1163C42.4156 29.1842 42.365 29.2572 42.2926 29.3224C42.2205 29.3873 42.1438 29.4289 42.0763 29.4534L41.7346 28.5136L41.3929 27.5738C41.0653 27.6929 40.8008 27.9285 40.6469 28.2474C40.5082 28.5351 40.4888 28.8281 40.5016 29.0559L41.5 29ZM41.7346 28.5136L42.0763 29.4534C42.1904 29.4119 42.6009 29.2594 42.8009 28.82C43.0755 28.217 42.7206 27.7362 42.5701 27.5783L41.8463 28.2683L41.1225 28.9583C41.0866 28.9207 40.9974 28.8186 40.9424 28.6491C40.8788 28.4528 40.8787 28.2153 40.9807 27.9913C41.0708 27.7933 41.2044 27.6855 41.2692 27.6407C41.3367 27.594 41.3871 27.5759 41.3929 27.5738L41.7346 28.5136ZM41.8463 28.2683L42.5701 27.5783C42.5156 27.5211 42.5464 27.5467 42.5894 27.6123C42.6018 27.6313 42.6426 27.6942 42.678 27.7856C42.696 27.8321 42.7251 27.9175 42.7378 28.0295C42.7502 28.1381 42.7539 28.3347 42.6551 28.5523C42.4011 29.112 41.8527 29.1418 41.708 29.1357C41.5456 29.1288 41.4273 29.0824 41.4023 29.0727L41.7621 28.1397L42.1219 27.2067C42.0867 27.1931 41.9605 27.1446 41.7922 27.1375C41.6417 27.1311 41.0896 27.1625 40.834 27.7256C40.6521 28.1262 40.8005 28.4757 40.813 28.508C40.8511 28.6064 40.8967 28.6782 40.9162 28.708C40.9872 28.8164 41.0804 28.9142 41.1225 28.9583L41.8463 28.2683ZM41.7621 28.1397L41.4023 29.0727L41.4629 29.0961L41.8228 28.1631L42.1826 27.2301L42.1219 27.2067L41.7621 28.1397Z" fill="#FF5454"/>
<path d="M37.0415 37.3829C36.8866 37.913 37.1908 38.4683 37.7209 38.6232C38.251 38.7781 38.8064 38.4739 38.9613 37.9438L38.0014 37.6633L37.0415 37.3829ZM38.0294 37.5674L38.9893 37.8478L39.3012 36.7804L38.2067 36.5832L38.0294 37.5674ZM36.5324 36.7027L36.3393 35.7215L36.5324 36.7027ZM35.6201 36.6818L36.5913 36.4433L36.5059 36.0956L36.2192 35.881L35.6201 36.6818ZM35.4941 36.5875L35.2186 35.6262L33.2817 36.1812L34.895 37.3882L35.4941 36.5875ZM35.8657 37.5212C36.3966 37.3691 36.7037 36.8153 36.5515 36.2844C36.3994 35.7535 35.8456 35.4465 35.3147 35.5986L35.5902 36.5599L35.8657 37.5212ZM38.0014 37.6633L38.9613 37.9438L38.9893 37.8478L38.0294 37.5674L37.0696 37.2869L37.0415 37.3829L38.0014 37.6633ZM38.0294 37.5674L38.2067 36.5832C37.6721 36.4869 37.1211 36.4254 36.6844 36.5172C36.4678 36.5627 36.0724 36.6883 35.8199 37.0805C35.5408 37.5142 35.6275 37.9619 35.726 38.2164L36.6586 37.8554L37.5912 37.4945C37.6154 37.5572 37.7036 37.8492 37.5017 38.163C37.4129 38.3009 37.3039 38.3804 37.2285 38.4218C37.1566 38.4613 37.1045 38.4726 37.0956 38.4745C37.0841 38.4769 37.1347 38.4664 37.2836 38.4758C37.4229 38.4845 37.6102 38.5079 37.8521 38.5515L38.0294 37.5674ZM36.6586 37.8554L35.726 38.2164C35.7815 38.3598 35.9134 38.6625 36.2164 38.8704C36.3929 38.9914 36.6212 39.0748 36.8808 39.0676C37.1291 39.0607 37.328 38.9732 37.4648 38.8866C37.7114 38.7306 37.8657 38.5088 37.9508 38.3724C38.0499 38.2135 38.1385 38.0311 38.219 37.8422L37.2991 37.45L36.3792 37.0579C36.3204 37.1958 36.2778 37.2754 36.2539 37.3137C36.216 37.3745 36.2554 37.2851 36.3952 37.1966C36.4786 37.1439 36.6261 37.0739 36.8251 37.0684C37.0354 37.0625 37.2165 37.1311 37.3478 37.2212C37.5602 37.3669 37.6098 37.5427 37.5912 37.4945L36.6586 37.8554ZM37.2991 37.45L38.219 37.8422C38.313 37.6217 38.4002 37.3515 38.4076 37.0612C38.4156 36.7485 38.3279 36.3624 38.0144 36.0568C37.7239 35.7737 37.3693 35.6889 37.1138 35.666C36.8527 35.6426 36.5857 35.673 36.3393 35.7215L36.5324 36.7027L36.7255 37.6839C36.7954 37.6701 36.8482 37.6631 36.886 37.66C36.9246 37.6568 36.9394 37.6583 36.9353 37.658C36.9321 37.6577 36.8958 37.6544 36.8401 37.6332C36.7819 37.6111 36.6995 37.568 36.6184 37.4891C36.4328 37.3081 36.406 37.097 36.4083 37.0101C36.4099 36.9455 36.4246 36.9515 36.3792 37.0579L37.2991 37.45ZM36.5324 36.7027L36.3393 35.7215C36.1 35.7686 35.8528 35.836 35.6311 35.9416C35.4255 36.0396 35.116 36.2299 34.9366 36.5922C34.7278 37.0137 34.8043 37.4333 34.9541 37.7294C35.0871 37.9923 35.2888 38.1924 35.4595 38.3358L36.1027 37.5701L36.7459 36.8044C36.665 36.7364 36.6959 36.7418 36.7388 36.8267C36.7642 36.8769 36.8005 36.9686 36.8076 37.0938C36.8152 37.2263 36.7878 37.3607 36.7287 37.48C36.6208 37.6978 36.4639 37.7603 36.4914 37.7471C36.503 37.7416 36.57 37.7145 36.7255 37.6839L36.5324 36.7027ZM36.1027 37.5701L35.4595 38.3358C35.7735 38.5995 36.3432 38.9674 37.025 38.7709C37.7013 38.5759 37.992 37.967 38.122 37.5791L37.1738 37.2613L36.2257 36.9435C36.1946 37.0361 36.1776 37.0479 36.1983 37.0211C36.2248 36.987 36.3113 36.8952 36.471 36.8491C36.6317 36.8028 36.7562 36.8345 36.8013 36.8513C36.8366 36.8644 36.8187 36.8656 36.7459 36.8044L36.1027 37.5701ZM37.1738 37.2613L38.122 37.5791C38.192 37.3702 38.2518 37.1273 38.2545 36.8749C38.2573 36.6203 38.201 36.2665 37.9382 35.9617C37.6682 35.6485 37.3143 35.5417 37.0403 35.5176C36.7781 35.4945 36.5253 35.5386 36.3149 35.594L36.57 36.561L36.825 37.5279C36.9213 37.5025 36.9236 37.5151 36.865 37.5099C36.7947 37.5037 36.593 37.4642 36.4235 37.2677C36.2614 37.0797 36.2542 36.892 36.2547 36.853C36.2551 36.8161 36.261 36.838 36.2257 36.9435L37.1738 37.2613ZM36.57 36.561L36.3149 35.594C36.0179 35.6724 35.8372 35.7089 35.7464 35.7205C35.6907 35.7276 35.7286 35.7171 35.8115 35.7272C35.8506 35.732 35.9733 35.7491 36.1169 35.8268C36.2797 35.9148 36.5088 36.1073 36.5913 36.4433L35.6201 36.6818L34.649 36.9202C34.7365 37.2766 34.9797 37.4856 35.1661 37.5863C35.3333 37.6766 35.4888 37.7027 35.5699 37.7126C35.737 37.7329 35.8961 37.7176 35.9987 37.7045C36.2245 37.6758 36.5087 37.6113 36.825 37.5279L36.57 36.561ZM35.6201 36.6818L36.2192 35.881L36.0931 35.7867L35.4941 36.5875L34.895 37.3882L35.0211 37.4825L35.6201 36.6818ZM35.4941 36.5875L35.7696 37.5488L35.8657 37.5212L35.5902 36.5599L35.3147 35.5986L35.2186 35.6262L35.4941 36.5875Z" fill="#FF5454"/>
<path d="M28.6534 39.679C29.1891 39.5447 29.5146 39.0016 29.3803 38.4659C29.2461 37.9302 28.7029 37.6047 28.1672 37.739L28.4103 38.709L28.6534 39.679ZM28.3133 38.7333L28.0702 37.7633L28.0473 37.769L28.0247 37.7758L28.3133 38.7333ZM19.1832 41.0978L19.3034 42.0906L19.3143 42.0893L19.325 42.0877L19.1832 41.0978ZM18.6896 41.1576L18.5694 40.1649L18.5047 40.1727L18.4416 40.1889L18.6896 41.1576ZM18.3447 40.2137C17.8097 40.3507 17.487 40.8955 17.624 41.4305C17.7611 41.9655 18.3058 42.2882 18.8409 42.1512L18.5928 41.1824L18.3447 40.2137ZM28.4103 38.709L28.1672 37.739L28.0702 37.7633L28.3133 38.7333L28.5564 39.7033L28.6534 39.679L28.4103 38.709ZM28.3133 38.7333L28.0247 37.7758C26.2016 38.3254 24.8531 38.6379 23.9478 38.7408L24.0607 39.7344L24.1736 40.728C25.2613 40.6044 26.7479 40.2496 28.6019 39.6907L28.3133 38.7333ZM24.0607 39.7344L23.9478 38.7408C22.8636 38.8639 21.8137 39.1269 20.8007 39.5293L21.1698 40.4587L21.539 41.3881C22.3874 41.0511 23.2648 40.8312 24.1736 40.728L24.0607 39.7344ZM21.1698 40.4587L20.8007 39.5293C19.8656 39.9007 19.3039 40.0703 19.0414 40.1079L19.1832 41.0978L19.325 42.0877C19.8498 42.0126 20.6125 41.7561 21.539 41.3881L21.1698 40.4587ZM19.1832 41.0978L19.063 40.1051L18.5694 40.1649L18.6896 41.1576L18.8099 42.1504L19.3034 42.0906L19.1832 41.0978ZM18.6896 41.1576L18.4416 40.1889L18.3447 40.2137L18.5928 41.1824L18.8409 42.1512L18.9377 42.1263L18.6896 41.1576Z" fill="#FF5454"/>
<path d="M28.7647 42.4619C29.2499 42.1981 29.4295 41.591 29.1657 41.1057C28.902 40.6205 28.2948 40.4409 27.8096 40.7046L28.2871 41.5833L28.7647 42.4619ZM28.1993 41.631L27.7217 40.7524L27.6901 40.7696L27.6598 40.789L28.1993 41.631ZM21.5783 45.3037L20.7005 44.8246L20.443 45.2963L20.6944 45.7713L21.5783 45.3037ZM21.6357 45.1984L22.5135 45.6775L24.1387 42.6998L21.1582 44.3198L21.6357 45.1984ZM21.0703 44.3676C20.5851 44.6313 20.4055 45.2385 20.6692 45.7237C20.933 46.209 21.5402 46.3885 22.0254 46.1248L21.5479 45.2462L21.0703 44.3676ZM28.2871 41.5833L27.8096 40.7046L27.7217 40.7524L28.1993 41.631L28.6768 42.5096L28.7647 42.4619L28.2871 41.5833ZM28.1993 41.631L27.6598 40.789C26.0553 41.8169 24.8481 42.4609 24.0116 42.7678L24.356 43.7066L24.7005 44.6454C25.7468 44.2615 27.1018 43.5217 28.7387 42.473L28.1993 41.631ZM24.356 43.7066L24.0116 42.7678C23.0269 43.1291 22.2053 43.5402 21.6281 44.0314L22.2763 44.7929L22.9244 45.5545C23.2374 45.2881 23.8023 44.975 24.7005 44.6454L24.356 43.7066ZM22.2763 44.7929L21.6281 44.0314C21.4094 44.2176 21.2629 44.3352 21.1775 44.3977C21.1277 44.4341 21.1327 44.4266 21.1709 44.4066C21.1782 44.4028 21.2715 44.3518 21.4108 44.3255C21.4804 44.3124 21.641 44.2895 21.8378 44.341C22.0708 44.402 22.3165 44.5606 22.4622 44.836L21.5783 45.3037L20.6944 45.7713C21.0309 46.4075 21.6943 46.3073 21.7809 46.291C21.9385 46.2613 22.0567 46.2003 22.0957 46.18C22.1971 46.1271 22.2919 46.0605 22.3585 46.0118C22.5057 45.904 22.6981 45.7471 22.9244 45.5545L22.2763 44.7929ZM21.5783 45.3037L22.456 45.7828L22.5135 45.6775L21.6357 45.1984L20.7579 44.7193L20.7005 44.8246L21.5783 45.3037ZM21.6357 45.1984L21.1582 44.3198L21.0703 44.3676L21.5479 45.2462L22.0254 46.1248L22.1133 46.077L21.6357 45.1984Z" fill="#FF5454"/>
<path d="M32.2486 44.6158C32.6435 44.2297 32.6508 43.5966 32.2647 43.2017C31.8787 42.8067 31.2456 42.7995 30.8506 43.1855L31.5496 43.9006L32.2486 44.6158ZM31.4781 43.9705L30.7791 43.2554L30.759 43.275L30.74 43.2958L31.4781 43.9705ZM25.1924 50.2051L24.2044 50.0508L24.107 50.6744L24.628 51.0306L25.1924 50.2051ZM25.2092 50.0978L26.1972 50.2521L26.6615 47.28L24.5102 49.3827L25.2092 50.0978ZM24.4387 49.4526C24.0438 49.8386 24.0365 50.4717 24.4226 50.8667C24.8086 51.2616 25.4417 51.2689 25.8367 50.8828L25.1377 50.1677L24.4387 49.4526ZM31.5496 43.9006L30.8506 43.1855L30.7791 43.2554L31.4781 43.9705L32.1771 44.6857L32.2486 44.6158L31.5496 43.9006ZM31.4781 43.9705L30.74 43.2958C29.4541 44.7023 28.4544 45.6523 27.7277 46.1896L28.3223 46.9937L28.9168 47.7978C29.8027 47.1428 30.9069 46.0773 32.2161 44.6453L31.4781 43.9705ZM28.3223 46.9937L27.7277 46.1896C26.8507 46.8382 26.0729 47.5902 25.3962 48.4443L26.18 49.0653L26.9638 49.6863C27.5308 48.9706 28.1813 48.3416 28.9168 47.7978L28.3223 46.9937ZM26.18 49.0653L25.3962 48.4443C25.0873 48.8341 24.8606 49.1113 24.7109 49.2841C24.6331 49.3739 24.5919 49.4171 24.5782 49.4304C24.566 49.4422 24.5944 49.4124 24.6489 49.3745C24.6709 49.3593 24.7512 49.3037 24.8715 49.2615C24.934 49.2396 25.046 49.2072 25.1904 49.2063C25.3431 49.2053 25.5535 49.2406 25.7569 49.3797L25.1924 50.2051L24.628 51.0306C25.0391 51.3117 25.4485 51.1786 25.5339 51.1486C25.6633 51.1032 25.7551 51.0413 25.7908 51.0165C25.8727 50.9595 25.9377 50.898 25.9712 50.8655C26.0489 50.7901 26.1357 50.6939 26.2225 50.5937C26.402 50.3866 26.6508 50.0813 26.9638 49.6863L26.18 49.0653ZM25.1924 50.2051L26.1805 50.3595L26.1972 50.2521L25.2092 50.0978L24.2212 49.9435L24.2044 50.0508L25.1924 50.2051ZM25.2092 50.0978L24.5102 49.3827L24.4387 49.4526L25.1377 50.1677L25.8367 50.8828L25.9082 50.8129L25.2092 50.0978Z" fill="#FF5454"/>
<path d="M44.9736 33.8245C44.4264 33.8986 44.0428 34.4024 44.117 34.9497C44.1911 35.497 44.6949 35.8805 45.2422 35.8064L45.1079 34.8154L44.9736 33.8245ZM45.207 34.802L45.3413 35.7929L45.3693 35.7891L45.3971 35.7838L45.207 34.802ZM60.3448 32.8623L60.3554 31.8624L60.3421 31.8623L60.3288 31.8625L60.3448 32.8623ZM60.7088 32.8662L60.6982 33.8661L60.76 33.8668L60.8214 33.8598L60.7088 32.8662ZM60.9208 33.8485C61.4696 33.7863 61.864 33.291 61.8017 32.7422C61.7395 32.1934 61.2442 31.799 60.6954 31.8613L60.8081 32.8549L60.9208 33.8485ZM45.1079 34.8154L45.2422 35.8064L45.3413 35.7929L45.207 34.802L45.0727 33.8111L44.9736 33.8245L45.1079 34.8154ZM45.207 34.802L45.3971 35.7838C47.2683 35.4214 48.6372 35.2551 49.5409 35.2574L49.5435 34.2574L49.546 33.2574C48.444 33.2546 46.922 33.4513 45.0169 33.8202L45.207 34.802ZM49.5435 34.2574L49.5409 35.2574C50.6315 35.2602 51.7042 35.1211 52.7569 34.8404L52.4993 33.8742L52.2416 32.908C51.3589 33.1433 50.4611 33.2597 49.546 33.2574L49.5435 34.2574ZM52.4993 33.8742L52.7569 34.8404C53.7003 34.5889 54.6484 34.3741 55.6012 34.1961L55.4176 33.2131L55.2339 32.2301C54.2311 32.4175 53.2336 32.6434 52.2416 32.908L52.4993 33.8742ZM55.4176 33.2131L55.6012 34.1961C56.5258 34.0234 57.4606 33.9261 58.406 33.9042L58.3829 32.9044L58.3598 31.9047C57.3071 31.9291 56.265 32.0375 55.2339 32.2301L55.4176 33.2131ZM58.3829 32.9044L58.406 33.9042C59.4059 33.881 60.0562 33.8671 60.3608 33.8622L60.3448 32.8623L60.3288 31.8625C60.0157 31.8675 59.358 31.8816 58.3598 31.9047L58.3829 32.9044ZM60.3448 32.8623L60.3343 33.8623L60.6982 33.8661L60.7088 32.8662L60.7193 31.8662L60.3554 31.8624L60.3448 32.8623ZM60.7088 32.8662L60.8214 33.8598L60.9208 33.8485L60.8081 32.8549L60.6954 31.8613L60.5961 31.8725L60.7088 32.8662Z" fill="#FF5454"/>
<path d="M49.2601 35.9691C48.7193 35.857 48.1901 36.2045 48.0779 36.7453C47.9658 37.286 48.3134 37.8153 48.8541 37.9274L49.0571 36.9482L49.2601 35.9691ZM49.155 36.9685L48.9521 37.9477L48.9796 37.9534L49.0074 37.9576L49.155 36.9685ZM56.3399 38.5191L56.2623 39.5161L56.3399 38.5191ZM62.0652 39.5063L61.7529 40.4563L62.0652 39.5063ZM63.3447 39.9185L64.3239 40.1214L64.511 39.2192L63.627 38.9591L63.3447 39.9185ZM63.2485 39.8901L63.4515 38.911L62.9662 40.8495L63.2485 39.8901ZM63.1434 40.8896C63.6842 41.0017 64.2135 40.6542 64.3256 40.1134C64.4377 39.5726 64.0902 39.0434 63.5494 38.9313L63.3464 39.9104L63.1434 40.8896ZM49.0571 36.9482L48.8541 37.9274L48.9521 37.9477L49.155 36.9685L49.358 35.9894L49.2601 35.9691L49.0571 36.9482ZM49.155 36.9685L49.0074 37.9576C50.8923 38.239 52.2385 38.5379 53.0901 38.8407L53.4252 37.8986L53.7602 36.9564C52.7222 36.5872 51.2217 36.2661 49.3027 35.9795L49.155 36.9685ZM53.4252 37.8986L53.0901 38.8407C54.1178 39.2063 55.176 39.4315 56.2623 39.5161L56.3399 38.5191L56.4174 37.5221C55.5071 37.4513 54.6221 37.2629 53.7602 36.9564L53.4252 37.8986ZM56.3399 38.5191L56.2623 39.5161C57.2363 39.5918 58.2026 39.7029 59.1614 39.8494L59.3124 38.8608L59.4634 37.8723C58.4555 37.7184 57.4402 37.6016 56.4174 37.5221L56.3399 38.5191ZM59.3124 38.8608L59.1614 39.8494C60.0958 39.9921 60.9589 40.1952 61.7529 40.4563L62.0652 39.5063L62.3776 38.5563C61.4677 38.2571 60.4956 38.03 59.4634 37.8723L59.3124 38.8608ZM62.0652 39.5063L61.7529 40.4563C62.1792 40.5965 62.5012 40.7016 62.7174 40.7713C62.8249 40.8059 62.9096 40.8328 62.9691 40.8512C62.9975 40.86 63.0271 40.8689 63.0527 40.8762C63.0629 40.879 63.0871 40.8858 63.1152 40.8923C63.1241 40.8943 63.1642 40.9037 63.2154 40.9103C63.232 40.9125 63.3083 40.9227 63.4058 40.9167C63.4471 40.9142 63.5713 40.9052 63.7175 40.8464C63.8551 40.7911 64.2252 40.5976 64.3239 40.1214L63.3447 39.9185L62.3656 39.7155C62.4643 39.2394 62.8343 39.0459 62.9717 38.9907C63.1178 38.932 63.2419 38.923 63.2829 38.9205C63.38 38.9145 63.4557 38.9247 63.4714 38.9268C63.5209 38.9331 63.5584 38.942 63.5639 38.9433C63.5766 38.9462 63.5859 38.9486 63.5892 38.9495C63.5933 38.9506 63.5958 38.9513 63.5961 38.9514C63.5965 38.9515 63.5937 38.9507 63.5865 38.9486C63.5798 38.9465 63.5708 38.9438 63.5592 38.9402C63.5118 38.9256 63.4364 38.9017 63.3306 38.8676C63.1204 38.7999 62.8031 38.6963 62.3776 38.5563L62.0652 39.5063ZM63.3447 39.9185L63.627 38.9591L63.5307 38.9308L63.2485 39.8901L62.9662 40.8495L63.0625 40.8778L63.3447 39.9185ZM63.2485 39.8901L63.0455 40.8693L63.1434 40.8896L63.3464 39.9104L63.5494 38.9313L63.4515 38.911L63.2485 39.8901Z" fill="#FF5454"/>
</svg>
