<svg width="68" height="68" viewBox="0 0 68 68" fill="none" xmlns="http://www.w3.org/2000/svg">
<g clip-path="url(#clip0_302_269)">
<rect width="68" height="68" fill="white"/>
<path d="M35.6011 7.82559C36.1233 7.64581 36.4008 7.07673 36.2211 6.55453C36.0413 6.03233 35.4722 5.75474 34.95 5.93453L35.2755 6.88006L35.6011 7.82559ZM35.181 6.91261L35.4911 7.8633L35.4988 7.86078L35.5065 7.85815L35.181 6.91261ZM22.8219 11.7056L22.5116 10.7549L22.8219 11.7056ZM16.7468 26.6143L15.7481 26.5616L16.7468 26.6143ZM16.9058 29.5688L15.9186 29.7281L16.9058 29.5688ZM18.9167 44.3123L17.9167 44.3106L18.9167 44.3123ZM19.6873 47.157L20.5494 46.6502L19.6873 47.157ZM24.6279 57.9718L23.9066 58.6644L24.6279 57.9718ZM28.8395 61.7091L28.493 62.6471L28.8395 61.7091ZM31.6008 61.9024L31.7953 62.8833L31.6008 61.9024ZM37.4888 60.9593L37.1558 60.0164L37.4888 60.9593ZM40.3342 60.058L40.0639 59.0952L40.3342 60.058ZM44.9307 56.774L45.8827 57.0801L44.9307 56.774ZM47.4053 48.1948L46.4063 48.1489L47.4053 48.1948ZM47.5159 45.2156L46.5163 45.1874L47.5159 45.2156ZM47.7964 42.2354L48.7839 42.3929L47.7964 42.2354ZM47.3765 36.2877L48.3675 36.421L47.3765 36.2877ZM47.3745 33.2969L46.384 33.4341L47.3745 33.2969ZM45.9912 27.4658L45.0012 27.6072L45.9912 27.4658ZM41.7103 10.2037L40.8504 10.7142L41.7103 10.2037ZM39.6136 8.2439L39.1704 9.14032L39.6136 8.2439ZM37.8721 7.40799L38.2707 6.49089L38.2241 6.47062L38.1757 6.45519L37.8721 7.40799ZM37.5215 7.29628L36.8094 7.9984L36.9827 8.17415L37.2179 8.24908L37.5215 7.29628ZM38.1633 6.52296C37.7756 6.1297 37.1424 6.12525 36.7492 6.51302C36.3559 6.90079 36.3515 7.53393 36.7392 7.92719L37.4513 7.22507L38.1633 6.52296ZM35.2755 6.88006L34.95 5.93453L34.8554 5.96708L35.181 6.91261L35.5065 7.85815L35.6011 7.82559L35.2755 6.88006ZM35.181 6.91261L34.8708 5.96193C33.0803 6.54608 31.7248 6.94337 30.7901 7.16244L31.0183 8.13605L31.2465 9.10967C32.2653 8.87091 33.6849 8.45257 35.4911 7.8633L35.181 6.91261ZM31.0183 8.13605L30.7901 7.16244C29.7227 7.41262 28.7096 7.80542 27.7536 8.33994L28.2416 9.21278L28.7296 10.0856C29.5224 9.64233 30.3606 9.31731 31.2465 9.10967L31.0183 8.13605ZM28.2416 9.21278L27.7536 8.33994C26.8965 8.81909 26.0296 9.27011 25.1526 9.69303L25.587 10.5938L26.0214 11.4945C26.9349 11.0539 27.8377 10.5843 28.7296 10.0856L28.2416 9.21278ZM25.587 10.5938L25.1526 9.69303C24.2977 10.1053 23.4175 10.4593 22.5116 10.7549L22.8219 11.7056L23.1322 12.6562C24.1226 12.333 25.0858 11.9457 26.0214 11.4945L25.587 10.5938ZM22.8219 11.7056L22.5116 10.7549C21.5054 11.0834 20.5388 11.5003 19.6127 12.0054L20.0915 12.8833L20.5704 13.7612C21.3884 13.315 22.2421 12.9467 23.1322 12.6562L22.8219 11.7056ZM20.0915 12.8833L19.6127 12.0054C18.5282 12.5969 17.7664 13.4842 17.3783 14.6411L18.3263 14.9592L19.2744 15.2773C19.4957 14.6177 19.9107 14.1211 20.5704 13.7612L20.0915 12.8833ZM18.3263 14.9592L17.3783 14.6411C17.0625 15.5824 16.7918 16.5522 16.5659 17.5502L17.5412 17.771L18.5165 17.9917C18.728 17.0573 18.9808 16.1525 19.2744 15.2773L18.3263 14.9592ZM17.5412 17.771L16.5659 17.5502C16.3519 18.4954 16.1057 19.4411 15.8273 20.3874L16.7866 20.6697L17.7459 20.952C18.0361 19.9657 18.293 18.979 18.5165 17.9917L17.5412 17.771ZM16.7866 20.6697L15.8273 20.3874C15.501 21.4959 15.427 22.6295 15.6043 23.7774L16.5926 23.6249L17.5808 23.4723C17.4481 22.6124 17.5034 21.7759 17.7459 20.952L16.7866 20.6697ZM16.5926 23.6249L15.6043 23.7774C15.7491 24.7152 15.7966 25.6429 15.7481 26.5616L16.7468 26.6143L17.7454 26.667C17.8013 25.6076 17.7461 24.5423 17.5808 23.4723L16.5926 23.6249ZM16.7468 26.6143L15.7481 26.5616C15.6922 27.6217 15.7491 28.6777 15.9186 29.7281L16.9058 29.5688L17.893 29.4095C17.7461 28.4988 17.6969 27.585 17.7454 26.667L16.7468 26.6143ZM16.9058 29.5688L15.9186 29.7281C16.0657 30.6397 16.1173 31.5626 16.0731 32.4979L17.072 32.5451L18.0709 32.5924C18.1215 31.5205 18.0624 30.4592 17.893 29.4095L16.9058 29.5688ZM17.072 32.5451L16.0731 32.4979C16.0221 33.5766 16.0925 34.6437 16.2848 35.6978L17.2685 35.5183L18.2523 35.3389C18.0876 34.4358 18.0269 33.5208 18.0709 32.5924L17.072 32.5451ZM17.2685 35.5183L16.2848 35.6978C16.4646 36.6834 16.6549 37.6665 16.8557 38.6471L17.8354 38.4465L18.815 38.2458C18.6171 37.2794 18.4295 36.3104 18.2523 35.3389L17.2685 35.5183ZM17.8354 38.4465L16.8557 38.6471C17.0594 39.6416 17.2949 40.6286 17.5622 41.608L18.5269 41.3447L19.4916 41.0815C19.2356 40.1435 19.0101 39.1983 18.815 38.2458L17.8354 38.4465ZM18.5269 41.3447L17.5622 41.608C17.7996 42.4781 17.9183 43.3781 17.9167 44.3106L18.9167 44.3123L19.9167 44.314C19.9186 43.2072 19.7774 42.1287 19.4916 41.0815L18.5269 41.3447ZM18.9167 44.3123L17.9167 44.3106C17.9147 45.5086 18.2189 46.6325 18.8252 47.6638L19.6873 47.157L20.5494 46.6502C20.1248 45.928 19.9153 45.1555 19.9167 44.314L18.9167 44.3123ZM19.6873 47.157L18.8252 47.6638C19.2976 48.4673 19.6543 49.3053 19.8975 50.1794L20.8609 49.9113L21.8243 49.6432C21.5336 48.5983 21.1079 47.6002 20.5494 46.6502L19.6873 47.157ZM20.8609 49.9113L19.8975 50.1794C20.1856 51.2148 20.5911 52.2023 21.1134 53.1403L21.9871 52.6538L22.8608 52.1674C22.4155 51.3676 22.0702 50.5267 21.8243 49.6432L20.8609 49.9113ZM21.9871 52.6538L21.1134 53.1403C21.5605 53.9433 21.9165 54.7942 22.181 55.6946L23.1405 55.4126L24.0999 55.1307C23.7942 54.0905 23.3813 53.1022 22.8608 52.1674L21.9871 52.6538ZM23.1405 55.4126L22.181 55.6946C22.5118 56.8203 23.0899 57.8138 23.9066 58.6644L24.6279 57.9718L25.3492 57.2792C24.7529 56.6581 24.3393 55.9456 24.0999 55.1307L23.1405 55.4126ZM24.6279 57.9718L23.9066 58.6644C24.6012 59.3879 25.2497 60.1007 25.8523 60.8026L26.6111 60.1513L27.3699 59.4999C26.7413 58.7677 26.0676 58.0274 25.3492 57.2792L24.6279 57.9718ZM26.6111 60.1513L25.8523 60.8026C26.5765 61.6462 27.4603 62.2655 28.493 62.6471L28.8395 61.7091L29.1861 60.771C28.4787 60.5097 27.8769 60.0905 27.3699 59.4999L26.6111 60.1513ZM28.8395 61.7091L28.493 62.6471C29.5476 63.0368 30.6563 63.1092 31.7953 62.8833L31.6008 61.9024L31.4063 60.9215C30.6037 61.0807 29.8715 61.0243 29.1861 60.771L28.8395 61.7091ZM31.6008 61.9024L31.7953 62.8833C32.718 62.7004 33.6582 62.5842 34.6162 62.5352L34.5651 61.5365L34.514 60.5378C33.4613 60.5917 32.4252 60.7195 31.4063 60.9215L31.6008 61.9024ZM34.5651 61.5365L34.6162 62.5352C35.7171 62.4788 36.7867 62.2678 37.8218 61.9022L37.4888 60.9593L37.1558 60.0164C36.3033 60.3175 35.4237 60.4912 34.514 60.5378L34.5651 61.5365ZM37.4888 60.9593L37.8218 61.9022C38.7451 61.5761 39.6727 61.2823 40.6044 61.0208L40.3342 60.058L40.0639 59.0952C39.0894 59.3688 38.12 59.6758 37.1558 60.0164L37.4888 60.9593ZM40.3342 60.058L40.6044 61.0208C41.6278 60.7336 42.6202 60.335 43.581 59.8268L43.1134 58.9429L42.6458 58.0589C41.8071 58.5025 40.9467 58.8474 40.0639 59.0952L40.3342 60.058ZM43.1134 58.9429L43.581 59.8268C44.7116 59.2287 45.4911 58.2982 45.8827 57.0801L44.9307 56.774L43.9787 56.4679C43.7466 57.1897 43.3145 57.7052 42.6458 58.0589L43.1134 58.9429ZM44.9307 56.774L45.8827 57.0801C46.1882 56.13 46.5183 55.2055 46.8731 54.3064L45.9429 53.9393L45.0127 53.5723C44.6416 54.5128 44.297 55.478 43.9787 56.4679L44.9307 56.774ZM45.9429 53.9393L46.8731 54.3064C47.2469 53.359 47.5794 52.3931 47.8708 51.4088L46.9119 51.125L45.953 50.8412C45.6782 51.7697 45.3647 52.68 45.0127 53.5723L45.9429 53.9393ZM46.9119 51.125L47.8708 51.4088C48.1767 50.375 48.3546 49.3184 48.4042 48.2408L47.4053 48.1948L46.4063 48.1489C46.3642 49.0654 46.2131 49.9622 45.953 50.8412L46.9119 51.125ZM47.4053 48.1948L48.4042 48.2408C48.4504 47.2379 48.4875 46.2389 48.5155 45.2437L47.5159 45.2156L46.5163 45.1874C46.4886 46.1706 46.4519 47.1577 46.4063 48.1489L47.4053 48.1948ZM47.5159 45.2156L48.5155 45.2437C48.5421 44.2988 48.6315 43.3487 48.7839 42.3929L47.7964 42.2354L46.8089 42.0779C46.6431 43.1174 46.5454 44.1541 46.5163 45.1874L47.5159 45.2156ZM47.7964 42.2354L48.7839 42.3929C48.9667 41.2471 48.8924 40.1083 48.5639 38.9874L47.6042 39.2687L46.6446 39.5499C46.8906 40.3893 46.9444 41.2284 46.8089 42.0779L47.7964 42.2354ZM47.6042 39.2687L48.5639 38.9874C48.3158 38.141 48.2509 37.2886 48.3675 36.421L47.3765 36.2877L46.3854 36.1545C46.2312 37.3012 46.3182 38.4361 46.6446 39.5499L47.6042 39.2687ZM47.3765 36.2877L48.3675 36.421C48.5148 35.3259 48.5144 34.2379 48.3651 33.1597L47.3745 33.2969L46.384 33.4341C46.508 34.3293 46.5089 35.2352 46.3854 36.1545L47.3765 36.2877ZM47.3745 33.2969L48.3651 33.1597C48.2197 32.1103 47.9756 31.0763 47.6333 30.0584L46.6855 30.3771L45.7376 30.6958C46.0408 31.5976 46.256 32.5101 46.384 33.4341L47.3745 33.2969ZM46.6855 30.3771L47.6333 30.0584C47.3296 29.155 47.1125 28.2439 46.9811 27.3244L45.9912 27.4658L45.0012 27.6072C45.1502 28.6498 45.3959 29.6796 45.7376 30.6958L46.6855 30.3771ZM45.9912 27.4658L46.9811 27.3244C46.8489 26.3987 46.7934 25.4577 46.815 24.5006L45.8153 24.478L44.8156 24.4554C44.7915 25.5199 44.8532 26.5707 45.0012 27.6072L45.9912 27.4658ZM45.8153 24.478L46.815 24.5006C46.8401 23.393 46.706 22.3091 46.4118 21.2524L45.4485 21.5205L44.4851 21.7886C44.7258 22.6536 44.8362 23.5414 44.8156 24.4554L45.8153 24.478ZM45.4485 21.5205L46.4118 21.2524C46.1458 20.2964 45.8876 19.3406 45.6373 18.3851L44.6699 18.6385L43.7025 18.8919C43.9554 19.8573 44.2163 20.8229 44.4851 21.7886L45.4485 21.5205ZM44.6699 18.6385L45.6373 18.3851C45.3844 17.4197 45.1239 16.4556 44.8559 15.4928L43.8926 15.7609L42.9292 16.0291C43.1945 16.9821 43.4523 17.9363 43.7025 18.8919L44.6699 18.6385ZM43.8926 15.7609L44.8559 15.4928C44.5828 14.5117 44.2745 13.5409 43.9309 12.5805L42.9894 12.9173L42.0478 13.2541C42.3752 14.1694 42.669 15.0944 42.9292 16.0291L43.8926 15.7609ZM42.9894 12.9173L43.9309 12.5805C43.5735 11.5812 43.1196 10.6185 42.5701 9.69313L41.7103 10.2037L40.8504 10.7142C41.3355 11.5312 41.7343 12.3776 42.0478 13.2541L42.9894 12.9173ZM41.7103 10.2037L42.5701 9.69313C41.9575 8.66128 41.1163 7.87127 40.0568 7.34747L39.6136 8.2439L39.1704 9.14032C39.872 9.48717 40.4285 10.0037 40.8504 10.7142L41.7103 10.2037ZM39.6136 8.2439L40.0568 7.34747C39.1811 6.91452 38.5779 6.62442 38.2707 6.49089L37.8721 7.40799L37.4734 8.3251C37.7273 8.43545 38.2852 8.70263 39.1704 9.14032L39.6136 8.2439ZM37.8721 7.40799L38.1757 6.45519L37.8251 6.34348L37.5215 7.29628L37.2179 8.24908L37.5685 8.36079L37.8721 7.40799ZM37.5215 7.29628L38.2336 6.59416L38.1633 6.52296L37.4513 7.22507L36.7392 7.92719L36.8094 7.9984L37.5215 7.29628Z" fill="#FF5454"/>
<path d="M17.7633 19.2179C18.215 18.9001 18.3235 18.2763 18.0057 17.8247C17.6879 17.373 17.0641 17.2644 16.6124 17.5823L17.1879 18.4001L17.7633 19.2179ZM17.1061 18.4576L17.5769 19.3399L17.6312 19.3109L17.6816 19.2755L17.1061 18.4576ZM13.2627 20.5378L12.7769 19.6637L13.2627 20.5378ZM9.6324 25.0929L8.73236 24.6571L9.6324 25.0929ZM8.39655 27.7723L9.31223 28.1742L8.39655 27.7723ZM7.27156 33.5661L8.27114 33.595L7.27156 33.5661ZM7.00916 36.5357L7.99829 36.6827L7.00916 36.5357ZM6.41046 39.4698L5.44263 39.2182L6.41046 39.4698ZM5.91708 51.3753L4.92795 51.2283L5.91708 51.3753ZM9.38099 57.9355L9.33865 56.9364L9.38099 57.9355ZM14.6517 56.7619L13.8375 56.1813L14.6517 56.7619ZM17.1134 51.5392L18.1 51.7024L17.1134 51.5392ZM17.5739 46.3305L16.734 46.8734L17.5739 46.3305ZM17.2676 45.53L17.6369 44.6007L17.3946 44.5044L17.1362 44.5386L17.2676 45.53ZM17.4534 45.6038L17.0841 46.5331L18.3318 47.0289L18.4496 45.6915L17.4534 45.6038ZM18.4583 45.5919C18.5068 45.0417 18.1 44.5565 17.5499 44.508C16.9997 44.4596 16.5145 44.8663 16.466 45.4165L17.4622 45.5042L18.4583 45.5919ZM17.1879 18.4001L16.6124 17.5823L16.5307 17.6398L17.1061 18.4576L17.6816 19.2755L17.7633 19.2179L17.1879 18.4001ZM17.1061 18.4576L16.6353 17.5754C14.9491 18.4752 13.662 19.1718 12.7769 19.6637L13.2627 20.5378L13.7485 21.4119C14.6184 20.9283 15.8936 20.2382 17.5769 19.3399L17.1061 18.4576ZM13.2627 20.5378L12.7769 19.6637C11.7607 20.2285 10.9245 20.9984 10.2781 21.9645L11.1092 22.5206L11.9403 23.0767C12.4102 22.3745 13.0096 21.8225 13.7485 21.4119L13.2627 20.5378ZM11.1092 22.5206L10.2781 21.9645C9.69492 22.8361 9.17948 23.7337 8.73236 24.6571L9.6324 25.0929L10.5324 25.5287C10.9382 24.6907 11.4073 23.8734 11.9403 23.0767L11.1092 22.5206ZM9.6324 25.0929L8.73236 24.6571C8.30043 25.5491 7.88327 26.4536 7.48087 27.3704L8.39655 27.7723L9.31223 28.1742C9.70473 27.2799 10.1115 26.3981 10.5324 25.5287L9.6324 25.0929ZM8.39655 27.7723L7.48087 27.3704C7.04975 28.3526 6.74635 29.3757 6.57097 30.4376L7.5576 30.6006L8.54423 30.7635C8.69256 29.8655 8.94846 29.003 9.31223 28.1742L8.39655 27.7723ZM7.5576 30.6006L6.57097 30.4376C6.40176 31.4622 6.30211 32.4955 6.27198 33.5372L7.27156 33.5661L8.27114 33.595C8.29869 32.6428 8.38973 31.699 8.54423 30.7635L7.5576 30.6006ZM7.27156 33.5661L6.27198 33.5372C6.24428 34.4948 6.16028 35.4452 6.02003 36.3886L7.00916 36.5357L7.99829 36.6827C8.15023 35.6607 8.24116 34.6314 8.27114 33.595L7.27156 33.5661ZM7.00916 36.5357L6.02003 36.3886C5.87924 37.3357 5.68683 38.2788 5.44263 39.2182L6.41046 39.4698L7.3783 39.7214C7.64018 38.714 7.8469 37.701 7.99829 36.6827L7.00916 36.5357ZM6.41046 39.4698L5.44263 39.2182C5.15742 40.3154 5.08598 41.4337 5.22724 42.5663L6.21955 42.4425L7.21186 42.3187C7.10159 41.4345 7.15742 40.5711 7.3783 39.7214L6.41046 39.4698ZM6.21955 42.4425L5.22724 42.5663C5.34236 43.4893 5.33639 44.3978 5.2108 45.2939L6.20112 45.4327L7.19145 45.5715C7.34196 44.4975 7.34827 43.4125 7.21186 42.3187L6.21955 42.4425ZM6.20112 45.4327L5.2108 45.2939C5.06408 46.3409 5.01623 47.3923 5.06735 48.4471L6.06618 48.3987L7.06501 48.3503C7.01996 47.4207 7.06208 46.4947 7.19145 45.5715L6.20112 45.4327ZM6.06618 48.3987L5.06735 48.4471C5.11224 49.3734 5.06592 50.3001 4.92795 51.2283L5.91708 51.3753L6.90621 51.5223C7.06322 50.4661 7.11629 49.4085 7.06501 48.3503L6.06618 48.3987ZM5.91708 51.3753L4.92795 51.2283C4.76569 52.3199 4.76939 53.4092 4.93983 54.4928L5.92769 54.3374L6.91554 54.1821C6.77688 53.3005 6.77351 52.4151 6.90621 51.5223L5.91708 51.3753ZM5.92769 54.3374L4.93983 54.4928C5.12075 55.643 5.56975 56.6672 6.29273 57.5409L7.06316 56.9033L7.8336 56.2658C7.35171 55.6835 7.04373 54.997 6.91554 54.1821L5.92769 54.3374ZM7.06316 56.9033L6.29273 57.5409C7.09427 58.5095 8.16745 58.9878 9.42333 58.9346L9.38099 57.9355L9.33865 56.9364C8.70894 56.963 8.23691 56.7532 7.8336 56.2658L7.06316 56.9033ZM9.38099 57.9355L9.42333 58.9346C10.3483 58.8954 11.3107 58.8795 12.3106 58.887L12.3182 57.887L12.3257 56.8871C11.295 56.8793 10.2993 56.8956 9.33865 56.9364L9.38099 57.9355ZM12.3182 57.887L12.3106 58.887C13.6171 58.8969 14.717 58.3927 15.4659 57.3425L14.6517 56.7619L13.8375 56.1813C13.5057 56.6467 13.0499 56.8925 12.3257 56.8871L12.3182 57.887ZM14.6517 56.7619L15.4659 57.3425C16.0323 56.5482 16.5594 55.6961 17.0477 54.7872L16.1668 54.3139L15.2859 53.8406C14.8348 54.6801 14.3519 55.46 13.8375 56.1813L14.6517 56.7619ZM16.1668 54.3139L17.0477 54.7872C17.5692 53.8165 17.9206 52.7869 18.1 51.7024L17.1134 51.5392L16.1268 51.376C15.9834 52.2427 15.7037 53.0629 15.2859 53.8406L16.1668 54.3139ZM17.1134 51.5392L18.1 51.7024C18.2573 50.7518 18.4529 49.7929 18.687 48.8259L17.7151 48.5906L16.7432 48.3553C16.4978 49.3686 16.2923 50.3755 16.1268 51.376L17.1134 51.5392ZM17.7151 48.5906L18.687 48.8259C18.9508 47.7364 18.9693 46.6473 18.4137 45.7877L17.5739 46.3305L16.734 46.8734C16.8461 47.0468 16.9588 47.4644 16.7432 48.3553L17.7151 48.5906ZM17.5739 46.3305L18.4137 45.7877C18.3381 45.6708 18.2814 45.5768 18.2407 45.5037C18.2206 45.4674 18.2058 45.439 18.1954 45.4177C18.1848 45.3958 18.1809 45.3857 18.1809 45.3857C18.181 45.3861 18.1829 45.3909 18.1856 45.3996C18.1882 45.4081 18.1925 45.4231 18.197 45.4436C18.2041 45.4766 18.2209 45.5655 18.2091 45.6865C18.1969 45.8117 18.1478 46.0233 17.9726 46.2177C17.7894 46.4209 17.5643 46.4994 17.399 46.5213L17.2676 45.53L17.1362 44.5386C16.9385 44.5648 16.6882 44.6555 16.4871 44.8786C16.2939 45.0928 16.2341 45.3321 16.2185 45.4929C16.1914 45.7715 16.2768 46.0059 16.3129 46.1003C16.4038 46.3378 16.5622 46.6076 16.734 46.8734L17.5739 46.3305ZM17.2676 45.53L16.8983 46.4593L17.0841 46.5331L17.4534 45.6038L17.8227 44.6745L17.6369 44.6007L17.2676 45.53ZM17.4534 45.6038L18.4496 45.6915L18.4583 45.5919L17.4622 45.5042L16.466 45.4165L16.4573 45.5161L17.4534 45.6038Z" fill="#FF5454"/>
<path d="M41.6812 14.6262C41.4729 14.1128 40.9045 13.8954 40.4116 14.1407C39.9187 14.3859 39.688 15.0009 39.8963 15.5143L40.7887 15.0703L41.6812 14.6262ZM40.8264 15.1632L39.934 15.6073L39.9444 15.633L39.9562 15.658L40.8264 15.1632ZM48.3205 32.9568L47.4836 33.516L48.3205 32.9568ZM55.2146 41.82L55.641 40.8752L55.2146 41.82ZM57.7183 41.701L58.1182 42.6189L57.7183 41.701ZM60.413 40.5049L60.6886 41.4781L60.413 40.5049ZM63.4298 28.446L62.6667 29.1174L63.4298 28.446ZM58.6908 21.0217L57.909 21.6677L58.6908 21.0217ZM54.0282 17.6715L54.6538 16.8552L54.0282 17.6715ZM49.2678 14.4865L49.7245 13.5567L49.2678 14.4865ZM42.8272 10.1336L42.1956 10.9447L42.2025 10.9507L42.2096 10.9566L42.8272 10.1336ZM42.4595 9.81565L43.0912 9.00457L43.0492 8.96828L43.0034 8.93751L42.4595 9.81565ZM42.9232 8.88364C42.4804 8.58614 41.8779 8.73813 41.5776 9.22311C41.2772 9.70809 41.3926 10.3424 41.8354 10.6399L42.3793 9.76178L42.9232 8.88364ZM40.7887 15.0703L39.8963 15.5143L39.934 15.6073L40.8264 15.1632L41.7189 14.7192L41.6812 14.6262L40.7887 15.0703ZM40.8264 15.1632L39.9562 15.658C40.7679 17.3802 41.2702 18.6714 41.4976 19.5592L42.4333 19.2466L43.3689 18.9339C43.092 17.8527 42.523 16.4217 41.6967 14.6685L40.8264 15.1632ZM42.4333 19.2466L41.4976 19.5592C41.772 20.6306 42.1758 21.639 42.7083 22.5822L43.545 22.0227L44.3818 21.4633C43.9362 20.6738 43.5988 19.8315 43.3689 18.9339L42.4333 19.2466ZM43.545 22.0227L42.7083 22.5822C43.1858 23.4281 43.6322 24.2892 44.0474 25.1653L44.9167 24.6687L45.7861 24.172C45.3504 23.2528 44.8824 22.3499 44.3818 21.4633L43.545 22.0227ZM44.9167 24.6687L44.0474 25.1653C44.4514 26.0178 44.7924 26.9021 45.0704 27.8189L45.9939 27.4625L46.9173 27.1062C46.6101 26.0931 46.2329 25.1149 45.7861 24.172L44.9167 24.6687ZM45.9939 27.4625L45.0704 27.8189C45.3733 28.8176 45.7246 29.7922 46.1243 30.7427L47.0119 30.2868L47.8995 29.8309C47.5271 28.9455 47.1997 28.0373 46.9173 27.1062L45.9939 27.4625ZM47.0119 30.2868L46.1243 30.7427C46.5254 31.6962 46.9785 32.6207 47.4836 33.516L48.3205 32.9568L49.1574 32.3976C48.6898 31.5687 48.2705 30.7131 47.8995 29.8309L47.0119 30.2868ZM48.3205 32.9568L47.4836 33.516C47.9569 34.3551 48.3953 35.2111 48.7986 36.0842L49.6721 35.5963L50.5456 35.1085C50.1195 34.1864 49.6568 33.2828 49.1574 32.3976L48.3205 32.9568ZM49.6721 35.5963L48.7986 36.0842C49.2112 36.9771 49.6215 37.8832 50.0296 38.8023L50.9093 38.3281L51.7889 37.854C51.3769 36.9259 50.9624 36.0107 50.5456 35.1085L49.6721 35.5963ZM50.9093 38.3281L50.0296 38.8023C50.5184 39.9031 51.2639 40.7679 52.251 41.3788L52.7666 40.4824L53.2822 39.5859C52.613 39.1718 52.1204 38.6005 51.7889 37.854L50.9093 38.3281ZM52.7666 40.4824L52.251 41.3788C53.1054 41.9075 53.9511 42.37 54.7883 42.7649L55.2146 41.82L55.641 40.8752C54.8703 40.5116 54.084 40.0822 53.2822 39.5859L52.7666 40.4824ZM55.2146 41.82L54.7883 42.7649C55.8696 43.2751 57.008 43.2074 58.1182 42.6189L57.7183 41.701L57.3184 40.7832C56.6982 41.1119 56.1675 41.1236 55.641 40.8752L55.2146 41.82ZM57.7183 41.701L58.1182 42.6189C58.9422 42.1822 59.7988 41.8018 60.6886 41.4781L60.413 40.5049L60.1375 39.5317C59.1647 39.8856 58.2248 40.3027 57.3184 40.7832L57.7183 41.701ZM60.413 40.5049L60.6886 41.4781C61.7174 41.1039 62.6727 40.5722 63.5504 39.8844L62.9992 39.0649L62.4479 38.2455C61.7401 38.8001 60.9713 39.2284 60.1375 39.5317L60.413 40.5049ZM62.9992 39.0649L63.5504 39.8844C64.4558 39.1749 65.1785 38.3155 65.7015 37.3075L64.8582 36.8421L64.0148 36.3766C63.6447 37.09 63.1281 37.7125 62.4479 38.2455L62.9992 39.0649ZM64.8582 36.8421L65.7015 37.3075C66.2823 36.1883 66.3951 34.9974 66.0537 33.8038L65.1256 34.1445L64.1975 34.4851C64.3926 35.1671 64.3272 35.7746 64.0148 36.3766L64.8582 36.8421ZM65.1256 34.1445L66.0537 33.8038C65.8012 32.9213 65.614 31.9901 65.4931 31.009L64.5323 31.1885L63.5716 31.368C63.7052 32.4526 63.9134 33.492 64.1975 34.4851L65.1256 34.1445ZM64.5323 31.1885L65.4931 31.009C65.3435 29.7943 64.9077 28.7102 64.1928 27.7746L63.4298 28.446L62.6667 29.1174C63.1675 29.7727 63.4667 30.517 63.5716 31.368L64.5323 31.1885ZM63.4298 28.446L64.1928 27.7746C63.6377 27.0482 63.194 26.2647 62.8589 25.4226L61.9639 25.8603L61.069 26.2981C61.4727 27.3127 62.0062 28.2528 62.6667 29.1174L63.4298 28.446ZM61.9639 25.8603L62.8589 25.4226C62.4515 24.3987 61.9058 23.4737 61.2229 22.6513L60.4839 23.3528L59.7448 24.0542C60.2966 24.7187 60.7376 25.4653 61.069 26.2981L61.9639 25.8603ZM60.4839 23.3528L61.2229 22.6513C60.6209 21.9263 60.0374 21.1678 59.4726 20.3758L58.6908 21.0217L57.909 21.6677C58.5004 22.4969 59.1123 23.2925 59.7448 24.0542L60.4839 23.3528ZM58.6908 21.0217L59.4726 20.3758C58.7967 19.4279 57.9292 18.7178 56.8843 18.2527L56.4758 19.2058L56.0674 20.1589C56.8196 20.4937 57.4288 20.9942 57.909 21.6677L58.6908 21.0217ZM56.4758 19.2058L56.8843 18.2527C56.0614 17.8864 55.319 17.4204 54.6538 16.8552L54.0282 17.6715L53.4026 18.4878C54.2037 19.1684 55.0931 19.7252 56.0674 20.1589L56.4758 19.2058ZM54.0282 17.6715L54.6538 16.8552C53.8936 16.2094 53.1009 15.6117 52.276 15.0623L51.7351 15.9424L51.1942 16.8226C51.9603 17.3328 52.6964 17.8879 53.4026 18.4878L54.0282 17.6715ZM51.7351 15.9424L52.276 15.0623C51.4531 14.5143 50.6026 14.0124 49.7245 13.5567L49.2678 14.4865L48.8111 15.4164C49.6316 15.8422 50.426 16.311 51.1942 16.8226L51.7351 15.9424ZM49.2678 14.4865L49.7245 13.5567C48.94 13.1495 48.2084 12.6492 47.5289 12.0544L46.893 12.8618L46.2571 13.6693C47.0454 14.3592 47.897 14.942 48.8111 15.4164L49.2678 14.4865ZM46.893 12.8618L47.5289 12.0544C46.7466 11.3697 45.9072 10.779 45.0114 10.2833L44.5336 11.2018L44.0559 12.1204C44.8381 12.5533 45.5717 13.0693 46.2571 13.6693L46.893 12.8618ZM44.5336 11.2018L45.0114 10.2833C44.1704 9.81785 43.6702 9.49767 43.4448 9.31057L42.8272 10.1336L42.2096 10.9566C42.5814 11.2652 43.2188 11.6572 44.0559 12.1204L44.5336 11.2018ZM42.8272 10.1336L43.4589 9.32248L43.0912 9.00457L42.4595 9.81565L41.8279 10.6267L42.1956 10.9447L42.8272 10.1336ZM42.4595 9.81565L43.0034 8.93751L42.9232 8.88364L42.3793 9.76178L41.8354 10.6399L41.9156 10.6938L42.4595 9.81565Z" fill="#FF5454"/>
<path d="M32.9259 18.8484C32.3769 18.7874 31.8825 19.1829 31.8216 19.7318C31.7606 20.2807 32.1561 20.7752 32.705 20.8361L32.8154 19.8422L32.9259 18.8484ZM32.9148 19.8533L32.8044 20.8472L32.9584 20.8643L33.1104 20.834L32.9148 19.8533ZM32.9055 19.5787L32.5027 20.494L32.9055 19.5787ZM32.7113 19.6228L33.5609 19.0954L33.4979 18.994L33.4129 18.9102L32.7113 19.6228ZM32.8499 19.8461L32.0003 20.3735L32.2565 20.7863L32.7395 20.84L32.8499 19.8461ZM32.8389 20.851C33.3878 20.912 33.8822 20.5164 33.9432 19.9675C34.0041 19.4186 33.6086 18.9242 33.0597 18.8632L32.9493 19.8571L32.8389 20.851ZM32.8154 19.8422L32.705 20.8361L32.8044 20.8472L32.9148 19.8533L33.0252 18.8594L32.9259 18.8484L32.8154 19.8422ZM32.9148 19.8533L33.1104 20.834C33.2115 20.8138 33.3772 20.7749 33.541 20.6881C33.6563 20.627 34.1447 20.3371 34.1234 19.7086C34.1058 19.1898 33.7314 18.9146 33.668 18.8671C33.542 18.7726 33.4075 18.7071 33.3084 18.6634L32.9055 19.5787L32.5027 20.494C32.5476 20.5137 32.5215 20.5072 32.4684 20.4673C32.4411 20.4469 32.3741 20.3937 32.306 20.3019C32.2374 20.2093 32.1331 20.0293 32.1245 19.7764C32.1048 19.1936 32.5591 18.945 32.6047 18.9209C32.6988 18.871 32.7591 18.8646 32.7193 18.8726L32.9148 19.8533ZM32.9055 19.5787L33.3084 18.6634C33.2229 18.6258 33.1276 18.5868 33.0341 18.5571C32.9881 18.5424 32.9217 18.5233 32.8447 18.5101C32.7907 18.5009 32.6224 18.4734 32.4196 18.5194C32.3079 18.5447 32.1351 18.6037 31.9709 18.7481C31.7917 18.9057 31.6811 19.1145 31.6425 19.3318C31.5784 19.6923 31.7288 19.961 31.7578 20.0137C31.8461 20.1745 31.9664 20.2928 32.0097 20.3354L32.7113 19.6228L33.4129 18.9102C33.3768 18.8747 33.4457 18.9326 33.5106 19.0506C33.5278 19.0819 33.6734 19.3337 33.6116 19.6816C33.5741 19.8927 33.4664 20.0963 33.2917 20.2499C33.1322 20.3903 32.9658 20.4463 32.8621 20.4698C32.6755 20.5122 32.5303 20.4854 32.5065 20.4813C32.4597 20.4733 32.4304 20.4638 32.4285 20.4632C32.4232 20.4615 32.4441 20.4682 32.5027 20.494L32.9055 19.5787ZM32.7113 19.6228L31.8617 20.1502L32.0003 20.3735L32.8499 19.8461L33.6995 19.3187L33.5609 19.0954L32.7113 19.6228ZM32.8499 19.8461L32.7395 20.84L32.8389 20.851L32.9493 19.8571L33.0597 18.8632L32.9603 18.8522L32.8499 19.8461Z" fill="#FF5454"/>
<path d="M33.4142 42.1948C33.777 41.7783 33.7335 41.1466 33.317 40.7839C32.9006 40.4211 32.2689 40.4647 31.9061 40.8811L32.6602 41.5379L33.4142 42.1948ZM32.5945 41.6133L33.1108 42.4698L33.2453 42.3887L33.3486 42.2702L32.5945 41.6133ZM29.457 48.6017L30.064 47.807L29.457 48.6017ZM35.6142 46.818L35.472 45.8281L35.6142 46.818ZM36.9073 45.1799L37.8956 45.0277L36.9073 45.1799ZM33.89 47.3765L34.0419 48.3649L33.89 47.3765ZM33.5057 48.27L33.2661 47.2991L33.5057 48.27ZM35.8845 46.9201L35.1528 46.2384L35.8845 46.9201ZM35.9965 44.7582L35.1743 45.3273L35.9965 44.7582ZM33.7106 43.4766L33.6361 44.4739L33.7106 43.4766ZM33.6902 47.0667L33.1879 47.9313L33.6902 47.0667ZM35.8904 46.6238L35.1762 45.9239L35.8904 46.6238ZM29.3341 45.986L28.3341 45.9916L29.3341 45.986ZM35.5848 46.1883L34.6801 45.7624L35.5848 46.1883ZM34.7348 44.4146L35.1256 43.4941L34.7348 44.4146ZM35.3249 44.2197L35.4497 43.2275L35.3249 44.2197ZM32.9932 44.9662L32.3315 44.2165L32.9932 44.9662ZM32.757 46.9625L31.9499 47.553L32.757 46.9625ZM34.7417 45.4666L33.9924 46.1288L34.7417 45.4666ZM35.7271 42.9364L34.7766 42.6255L35.7271 42.9364ZM33.2737 45.3841L34.2735 45.3651L33.2737 45.3841ZM35.8657 45.9775L34.8657 45.9764L35.8657 45.9775ZM31.0287 44.0159L30.0708 43.7287L31.0287 44.0159ZM32.6815 44.5165L31.8423 45.0604L32.6815 44.5165ZM34.1411 47.1418L33.7847 48.0761L34.1411 47.1418ZM36.3849 47.1526L35.391 47.0428L36.3849 47.1526ZM35.5803 47.1743L36.3141 47.8537L35.5803 47.1743ZM35.66 48.2007L35.617 49.1998L35.66 48.2007ZM33.803 45.826L33.814 46.8259L33.803 45.826ZM35.307 46.5253L34.7047 45.727L35.307 46.5253ZM35.1994 45.17L35.0798 46.1628L35.1994 45.17ZM37.5272 41.6892L37.0056 40.836L36.9578 40.8652L36.9135 40.8997L37.5272 41.6892ZM37.3293 41.843L36.5895 41.1702L37.9429 42.6326L37.3293 41.843ZM38.1363 42.442C38.5079 42.0334 38.478 41.4009 38.0695 41.0293C37.6609 40.6577 37.0284 40.6876 36.6568 41.0962L37.3966 41.7691L38.1363 42.442ZM32.6602 41.5379L31.9061 40.8811L31.8405 40.9565L32.5945 41.6133L33.3486 42.2702L33.4142 42.1948L32.6602 41.5379ZM32.5945 41.6133L32.0783 40.7569C30.4281 41.7516 29.1697 42.5522 28.3167 43.1537L28.8929 43.971L29.4692 44.7882C30.2626 44.2288 31.472 43.4576 33.1108 42.4698L32.5945 41.6133ZM28.8929 43.971L28.3167 43.1537C27.7768 43.5344 27.3511 44.0236 27.1196 44.6357C26.8879 45.2482 26.8837 45.8963 27.0383 46.5381L28.0105 46.3038L28.9827 46.0695C28.9024 45.7366 28.9278 45.5084 28.9902 45.3433C29.0528 45.1778 29.1859 44.988 29.4692 44.7882L28.8929 43.971ZM28.0105 46.3038L27.0383 46.5381C27.3217 47.7141 27.9209 48.6868 28.85 49.3964L29.457 48.6017L30.064 47.807C29.5343 47.4024 29.1691 46.8432 28.9827 46.0695L28.0105 46.3038ZM29.457 48.6017L28.85 49.3964C29.6787 50.0294 30.6178 50.5052 31.658 50.8284L31.9547 49.8735L32.2515 48.9185C31.4201 48.6602 30.694 48.2882 30.064 47.807L29.457 48.6017ZM31.9547 49.8735L31.658 50.8284C32.7388 51.1643 33.847 51.2475 34.9712 51.0788L34.8228 50.0899L34.6744 49.1009C33.846 49.2252 33.0422 49.1642 32.2515 48.9185L31.9547 49.8735ZM34.8228 50.0899L34.9712 51.0788C36.177 50.8979 37.1926 50.3465 37.9637 49.4263L37.1972 48.784L36.4308 48.1418C35.9884 48.6697 35.4211 48.9889 34.6744 49.1009L34.8228 50.0899ZM37.1972 48.784L37.9637 49.4263C38.671 48.5823 39.1572 47.6133 39.4205 46.532L38.4489 46.2954L37.4773 46.0587C37.2852 46.8475 36.937 47.5376 36.4308 48.1418L37.1972 48.784ZM38.4489 46.2954L39.4205 46.532C39.6831 45.4539 39.7065 44.353 39.4969 43.2391L38.5142 43.424L37.5314 43.6089C37.6903 44.4535 37.6702 45.2667 37.4773 46.0587L38.4489 46.2954ZM38.5142 43.424L39.4969 43.2391C39.3769 42.601 39.1179 42.0186 38.6745 41.5552C38.2294 41.0901 37.6597 40.8091 37.0272 40.674L36.8182 41.6519L36.6092 42.6298C36.9232 42.6969 37.1094 42.8124 37.2296 42.938C37.3515 43.0654 37.4673 43.2679 37.5314 43.6089L38.5142 43.424ZM36.8182 41.6519L37.0272 40.674C35.9681 40.4476 34.8969 40.4063 33.8188 40.5496L33.9505 41.5409L34.0821 42.5322C34.9348 42.4189 35.7755 42.4516 36.6092 42.6298L36.8182 41.6519ZM33.9505 41.5409L33.8188 40.5496C32.7668 40.6893 31.7407 40.9642 30.7422 41.3722L31.1204 42.2979L31.4986 43.2236C32.3426 42.8788 33.2032 42.6489 34.0821 42.5322L33.9505 41.5409ZM31.1204 42.2979L30.7422 41.3722C29.7327 41.7847 28.8409 42.3166 28.079 42.9751L28.733 43.7317L29.3869 44.4882C29.9657 43.9879 30.6656 43.564 31.4986 43.2236L31.1204 42.2979ZM28.733 43.7317L28.079 42.9751C27.6103 43.3802 27.2703 43.8846 27.1114 44.4847C26.9546 45.0771 26.993 45.6917 27.1614 46.297L28.1248 46.029L29.0882 45.7609C28.9917 45.4141 28.999 45.1698 29.0448 44.9965C29.0887 44.8308 29.1852 44.6626 29.3869 44.4882L28.733 43.7317ZM28.1248 46.029L27.1614 46.297C27.3326 46.9123 27.6296 47.4634 28.0898 47.8898C28.5529 48.319 29.123 48.5676 29.7486 48.6691L29.9087 47.682L30.0687 46.6949C29.77 46.6464 29.5806 46.5446 29.4491 46.4228C29.3147 46.2982 29.1819 46.0977 29.0882 45.7609L28.1248 46.029ZM29.9087 47.682L29.7486 48.6691C30.8327 48.8449 31.9189 48.7602 32.9952 48.426L32.6986 47.471L32.4021 46.516C31.6071 46.7629 30.8333 46.8189 30.0687 46.6949L29.9087 47.682ZM32.6986 47.471L32.9952 48.426C33.8785 48.1517 34.7986 47.9454 35.7564 47.8078L35.6142 46.818L35.472 45.8281C34.4137 45.9801 33.3902 46.2092 32.4021 46.516L32.6986 47.471ZM35.6142 46.818L35.7564 47.8078C36.3976 47.7157 37.0435 47.4703 37.4783 46.9195C37.9231 46.3561 37.9944 45.6687 37.8956 45.0277L36.9073 45.1799L35.9189 45.3322C35.9424 45.4843 35.9358 45.5779 35.9263 45.6276C35.9217 45.6514 35.9166 45.6647 35.914 45.6707C35.9115 45.6763 35.9097 45.6787 35.9085 45.6802C35.9082 45.6807 35.892 45.7025 35.8292 45.7326C35.7624 45.7647 35.6495 45.8026 35.472 45.8281L35.6142 46.818ZM36.9073 45.1799L37.8956 45.0277C37.7123 43.8377 37.1225 42.8539 35.9842 42.4273L35.6333 43.3637L35.2823 44.3001C35.5509 44.4008 35.8104 44.6278 35.9189 45.3322L36.9073 45.1799ZM35.6333 43.3637L35.9842 42.4273C35.0143 42.0638 33.95 42.1165 32.8576 42.4568L33.155 43.4115L33.4524 44.3663C34.2575 44.1155 34.8454 44.1363 35.2823 44.3001L35.6333 43.3637ZM33.155 43.4115L32.8576 42.4568C31.7101 42.8142 30.7908 43.4727 30.1753 44.4507L31.0216 44.9834L31.8679 45.5161C32.1995 44.9892 32.7025 44.5999 33.4524 44.3663L33.155 43.4115ZM31.0216 44.9834L30.1753 44.4507C29.8568 44.9566 29.6496 45.5632 29.7795 46.2115C29.9101 46.8633 30.3379 47.341 30.8324 47.6785L31.3961 46.8525L31.9599 46.0266C31.7311 45.8704 31.7348 45.7898 31.7406 45.8185C31.7456 45.8438 31.7128 45.7626 31.8679 45.5161L31.0216 44.9834ZM31.3961 46.8525L30.8324 47.6785C31.7837 48.3278 32.8754 48.5442 34.0419 48.3649L33.89 47.3765L33.7381 46.3881C33.026 46.4976 32.4551 46.3646 31.9599 46.0266L31.3961 46.8525ZM33.89 47.3765L34.0419 48.3649C35.0658 48.2075 36.0698 47.92 37.0525 47.5053L36.6637 46.5839L36.2748 45.6626C35.438 46.0158 34.5928 46.2567 33.7381 46.3881L33.89 47.3765ZM36.6637 46.5839L37.0525 47.5053C38.202 47.0201 39.0147 46.1767 39.1783 44.9435L38.187 44.812L37.1957 44.6805C37.1477 45.042 36.9449 45.3798 36.2748 45.6626L36.6637 46.5839ZM38.187 44.812L39.1783 44.9435C39.3256 43.8329 38.9735 42.7864 38.2661 41.8424L37.4659 42.4421L36.6656 43.0417C37.1313 43.6631 37.2599 44.1966 37.1957 44.6805L38.187 44.812ZM37.4659 42.4421L38.2661 41.8424C37.484 40.7987 36.3841 40.267 35.0707 40.26L35.0654 41.26L35.0601 42.2599C35.7743 42.2637 36.2747 42.5201 36.6656 43.0417L37.4659 42.4421ZM35.0654 41.26L35.0707 40.26C33.9518 40.254 32.8713 40.4217 31.8342 40.7661L32.1493 41.7151L32.4643 42.6642C33.2878 42.3908 34.1514 42.2551 35.0601 42.2599L35.0654 41.26ZM32.1493 41.7151L31.8342 40.7661C30.7284 41.1332 29.7848 41.7713 29.0163 42.6639L29.7742 43.3163L30.532 43.9688C31.0697 43.3442 31.7095 42.9148 32.4643 42.6642L32.1493 41.7151ZM29.7742 43.3163L29.0163 42.6639C28.5893 43.1599 28.2969 43.7271 28.1899 44.361C28.083 44.9937 28.1717 45.6277 28.4059 46.2418L29.3403 45.8855L30.2747 45.5293C30.145 45.1892 30.1241 44.9178 30.1619 44.6941C30.1995 44.4716 30.306 44.2314 30.532 43.9688L29.7742 43.3163ZM29.3403 45.8855L28.4059 46.2418C28.8317 47.3588 29.5003 48.2525 30.4493 48.8281L30.9679 47.9731L31.4865 47.1181C30.9929 46.8187 30.5764 46.3207 30.2747 45.5293L29.3403 45.8855ZM30.9679 47.9731L30.4493 48.8281C31.4394 49.4287 32.568 49.5315 33.7454 49.2409L33.5057 48.27L33.2661 47.2991C32.5022 47.4877 31.9389 47.3925 31.4865 47.1181L30.9679 47.9731ZM33.5057 48.27L33.7454 49.2409C34.8836 48.9599 35.8545 48.4193 36.6162 47.6017L35.8845 46.9201L35.1528 46.2384C34.6841 46.7416 34.0692 47.1009 33.2661 47.2991L33.5057 48.27ZM35.8845 46.9201L36.6162 47.6017C37.0427 47.1439 37.3389 46.5854 37.3726 45.9361C37.4058 45.294 37.175 44.7037 36.8188 44.189L35.9965 44.7582L35.1743 45.3273C35.3585 45.5935 35.3793 45.7539 35.3752 45.8325C35.3716 45.9038 35.3415 46.0359 35.1528 46.2384L35.8845 46.9201ZM35.9965 44.7582L36.8188 44.189C36.0989 43.1491 35.0563 42.5744 33.7851 42.4794L33.7106 43.4766L33.6361 44.4739C34.3318 44.5259 34.8131 44.8055 35.1743 45.3273L35.9965 44.7582ZM33.7106 43.4766L33.7851 42.4794C33.1549 42.4323 32.4286 42.5379 31.9122 43.0947C31.4056 43.641 31.338 44.3691 31.4059 44.9971L32.4001 44.8896L33.3943 44.7821C33.3748 44.6015 33.3857 44.4957 33.3969 44.4449C33.4066 44.4008 33.4112 44.4196 33.3786 44.4548C33.3446 44.4914 33.3183 44.4941 33.345 44.4866C33.3801 44.4768 33.4693 44.4614 33.6361 44.4739L33.7106 43.4766ZM32.4001 44.8896L31.4059 44.9971C31.5431 46.2652 32.1116 47.306 33.1879 47.9313L33.6902 47.0667L34.1926 46.202C33.7683 45.9555 33.4768 45.5449 33.3943 44.7821L32.4001 44.8896ZM33.6902 47.0667L33.1879 47.9313C33.7384 48.2512 34.3563 48.3928 35.0003 48.2632C35.6238 48.1377 36.1564 47.7811 36.6047 47.3237L35.8904 46.6238L35.1762 45.9239C34.9079 46.1976 34.7156 46.2804 34.6057 46.3025C34.5163 46.3205 34.3924 46.3181 34.1926 46.202L33.6902 47.0667ZM35.8904 46.6238L36.6047 47.3237C37.0522 46.867 37.4234 46.2854 37.4389 45.5895C37.4551 44.8658 37.0835 44.2827 36.6089 43.8509L35.9359 44.5906L35.263 45.3303C35.4746 45.5228 35.4384 45.5907 35.4394 45.5447C35.4399 45.5265 35.4452 45.6493 35.1762 45.9239L35.8904 46.6238ZM35.9359 44.5906L36.6089 43.8509C35.7225 43.0445 34.6566 42.673 33.4717 42.782L33.5634 43.7778L33.655 44.7736C34.2612 44.7178 34.777 44.8882 35.263 45.3303L35.9359 44.5906ZM33.5634 43.7778L33.4717 42.782C32.5087 42.8706 31.5182 43.0607 30.5014 43.3482L30.7735 44.3105L31.0457 45.2728C31.9576 45.0149 32.827 44.8498 33.655 44.7736L33.5634 43.7778ZM30.7735 44.3105L30.5014 43.3482C29.8965 43.5193 29.3385 43.809 28.9319 44.2823C28.5121 44.771 28.3306 45.366 28.3341 45.9916L29.3341 45.986L30.3341 45.9805C30.3328 45.7617 30.389 45.6554 30.4489 45.5856C30.5222 45.5003 30.6862 45.3744 31.0457 45.2728L30.7735 44.3105ZM29.3341 45.986L28.3341 45.9916C28.3375 46.6065 28.5144 47.1949 28.9259 47.6786C29.3272 48.1502 29.8769 48.4345 30.4715 48.5961L30.7338 47.6311L30.9961 46.6661C30.6622 46.5754 30.5144 46.4592 30.4491 46.3825C30.3941 46.3178 30.3353 46.2099 30.3341 45.9805L29.3341 45.986ZM30.7338 47.6311L30.4715 48.5961C31.5612 48.8923 32.6738 48.9126 33.795 48.664L33.5785 47.6877L33.362 46.7114C32.5472 46.8921 31.7634 46.8747 30.9961 46.6661L30.7338 47.6311ZM33.5785 47.6877L33.795 48.664C35.0162 48.3932 35.9682 47.7218 36.4896 46.6143L35.5848 46.1883L34.6801 45.7624C34.4624 46.2247 34.0768 46.5529 33.362 46.7114L33.5785 47.6877ZM35.5848 46.1883L36.4896 46.6143C36.758 46.0441 36.862 45.3724 36.5513 44.724C36.2597 44.1156 35.6996 43.7378 35.1256 43.4941L34.7348 44.4146L34.344 45.3351C34.7063 45.4889 34.7559 45.6056 34.7477 45.5884C34.7409 45.5742 34.7422 45.5627 34.7415 45.5734C34.7404 45.5916 34.7321 45.6519 34.6801 45.7624L35.5848 46.1883ZM34.7348 44.4146L35.1256 43.4941C33.9175 42.9812 32.6932 43.0256 31.5434 43.6445L32.0174 44.525L32.4913 45.4056C33.0923 45.0821 33.6796 45.053 34.344 45.3351L34.7348 44.4146ZM32.0174 44.525L31.5434 43.6445C30.5193 44.1958 29.7307 44.9478 29.2583 45.9218L30.1581 46.3582L31.0579 46.7945C31.3138 46.2668 31.7647 45.7967 32.4913 45.4056L32.0174 44.525ZM30.1581 46.3582L29.2583 45.9218C28.9939 46.4671 28.8916 47.0606 29.0253 47.6664C29.1563 48.2596 29.4915 48.7658 29.9263 49.1911L30.6256 48.4763L31.3249 47.7615C31.0839 47.5257 31.0033 47.3483 30.9783 47.2354C30.9562 47.1351 30.9581 47.0002 31.0579 46.7945L30.1581 46.3582ZM30.6256 48.4763L29.9263 49.1911C30.7277 49.9753 31.6765 50.5076 32.7578 50.7759L32.9986 49.8053L33.2393 48.8347C32.5083 48.6534 31.8751 48.2998 31.3249 47.7615L30.6256 48.4763ZM32.9986 49.8053L32.7578 50.7759C33.8938 51.0576 35.0285 50.9394 36.1275 50.4542L35.7236 49.5394L35.3197 48.6246C34.5977 48.9434 33.9157 49.0024 33.2393 48.8347L32.9986 49.8053ZM35.7236 49.5394L36.1275 50.4542C37.2229 49.9706 38.0793 49.2177 38.6553 48.1999L37.7851 47.7074L36.9148 47.2148C36.5633 47.8358 36.0454 48.3042 35.3197 48.6246L35.7236 49.5394ZM37.7851 47.7074L38.6553 48.1999C38.9651 47.6527 39.1339 47.0519 39.0697 46.4223C39.0055 45.7918 38.7183 45.2382 38.3017 44.7678L37.5531 45.4308L36.8044 46.0938C37.0063 46.3217 37.067 46.4967 37.0801 46.6251C37.0932 46.7543 37.0688 46.9426 36.9148 47.2148L37.7851 47.7074ZM37.5531 45.4308L38.3017 44.7678C37.534 43.9009 36.5748 43.369 35.4497 43.2275L35.3249 44.2197L35.2001 45.2119C35.809 45.2884 36.3353 45.564 36.8044 46.0938L37.5531 45.4308ZM35.3249 44.2197L35.4497 43.2275C34.2822 43.0806 33.222 43.4304 32.3315 44.2165L32.9932 44.9662L33.655 45.7159C34.1392 45.2885 34.6334 45.1406 35.2001 45.2119L35.3249 44.2197ZM32.9932 44.9662L32.3315 44.2165C31.8717 44.6223 31.503 45.1482 31.4256 45.8028C31.3476 46.4617 31.5874 47.0575 31.9499 47.553L32.757 46.9625L33.564 46.3719C33.3967 46.1433 33.4109 46.0444 33.4117 46.0379C33.413 46.027 33.4274 45.9168 33.655 45.7159L32.9932 44.9662ZM32.757 46.9625L31.9499 47.553C32.2892 48.0166 32.7911 48.4762 33.4899 48.5409C34.201 48.6067 34.7742 48.2338 35.1793 47.8234L34.4677 47.1208L33.7561 46.4182C33.6595 46.5161 33.6011 46.5494 33.5853 46.557C33.5769 46.561 33.6122 46.5436 33.6742 46.5494C33.7346 46.555 33.7585 46.5768 33.7388 46.5628C33.7136 46.545 33.6524 46.4928 33.564 46.3719L32.757 46.9625ZM34.4677 47.1208L35.1793 47.8234C35.5548 47.4431 35.8873 46.971 35.9808 46.4068C36.0836 45.7858 35.8693 45.2325 35.491 44.8044L34.7417 45.4666L33.9924 46.1288C34.0254 46.1662 34.0217 46.1744 34.0143 46.1516C34.0055 46.1246 34.005 46.0959 34.0076 46.08C34.0094 46.0697 34.0077 46.0936 33.9709 46.155C33.9335 46.2174 33.8673 46.3056 33.7561 46.4182L34.4677 47.1208ZM34.7417 45.4666L35.491 44.8044C35.4651 44.7751 35.4486 44.7527 35.4388 44.7377C35.4289 44.7227 35.4266 44.7165 35.4278 44.7192C35.4291 44.7223 35.4336 44.734 35.4372 44.7535C35.4408 44.7734 35.4426 44.7975 35.4409 44.824C35.4392 44.8504 35.4343 44.8735 35.4284 44.8918C35.4227 44.9097 35.4173 44.9196 35.4164 44.921C35.4157 44.9222 35.4197 44.915 35.4324 44.9001C35.4452 44.8851 35.4654 44.8637 35.4958 44.8366L34.8312 44.0894L34.1666 43.3422C33.8092 43.6601 33.4832 44.1091 33.4451 44.6942C33.4069 45.2818 33.6744 45.7691 33.9924 46.1288L34.7417 45.4666ZM34.8312 44.0894L35.4958 44.8366C36.0203 44.3701 36.4836 43.8402 36.6775 43.2473L35.7271 42.9364L34.7766 42.6255C34.7515 42.7023 34.6176 42.9411 34.1666 43.3422L34.8312 44.0894ZM35.7271 42.9364L36.6775 43.2473C36.7228 43.1087 36.8955 42.5099 36.4113 42.0418C36.1902 41.8279 35.9355 41.7587 35.7672 41.7373C35.6002 41.7161 35.4521 41.7323 35.3482 41.7504C34.9785 41.8146 34.532 42.0243 34.0984 42.2549L34.5679 43.1379L35.0374 44.0208C35.2423 43.9118 35.4038 43.8341 35.526 43.7825C35.6586 43.7264 35.7047 43.7184 35.6906 43.7209C35.6833 43.7221 35.6163 43.7342 35.515 43.7213C35.4122 43.7083 35.2077 43.66 35.0211 43.4796C34.8214 43.2865 34.7568 43.0538 34.7468 42.8913C34.7379 42.7479 34.7688 42.6495 34.7766 42.6255L35.7271 42.9364ZM34.5679 43.1379L34.0984 42.2549C33.518 42.5636 33.0394 42.9909 32.7161 43.552C32.3938 44.1115 32.2613 44.7421 32.2738 45.4031L33.2737 45.3841L34.2735 45.3651C34.2665 44.9978 34.34 44.7398 34.449 44.5505C34.5571 44.3629 34.7355 44.1813 35.0374 44.0208L34.5679 43.1379ZM33.2737 45.3841L32.2738 45.4031C32.286 46.0415 32.4285 46.6774 32.8218 47.191C33.2331 47.7281 33.8193 48.003 34.4534 48.0862L34.5836 47.0948L34.7138 46.1033C34.4942 46.0744 34.4351 46.0081 34.4097 45.975C34.3664 45.9184 34.2809 45.755 34.2735 45.3651L33.2737 45.3841ZM34.5836 47.0948L34.4534 48.0862C35.0167 48.1602 35.6801 48.1078 36.2015 47.6534C36.7242 47.1979 36.8651 46.547 36.8657 45.9786L35.8657 45.9775L34.8657 45.9764C34.8656 46.1123 34.848 46.1795 34.8407 46.2004C34.8358 46.2145 34.8449 46.1828 34.8875 46.1456C34.93 46.1086 34.9617 46.1046 34.9449 46.108C34.9214 46.1128 34.8504 46.1212 34.7138 46.1033L34.5836 47.0948ZM35.8657 45.9775L36.8657 45.9786C36.8669 44.9232 36.5666 43.9061 36.0039 42.94L35.1398 43.4433L34.2757 43.9467C34.6827 44.6454 34.8664 45.3178 34.8657 45.9764L35.8657 45.9775ZM35.1398 43.4433L36.0039 42.94C35.6799 42.3839 35.2384 41.9318 34.6622 41.6524C34.0881 41.374 33.4579 41.3047 32.8168 41.3838L32.9391 42.3763L33.0615 43.3687C33.4025 43.3267 33.6302 43.3747 33.7896 43.452C33.9471 43.5284 34.1147 43.6703 34.2757 43.9467L35.1398 43.4433ZM32.9391 42.3763L32.8168 41.3838C32.166 41.464 31.5666 41.695 31.0736 42.1181C30.5821 42.5399 30.2599 43.098 30.0708 43.7287L31.0287 44.0159L31.9866 44.3031C32.0889 43.9617 32.2308 43.7605 32.3761 43.6358C32.5199 43.5124 32.7301 43.4096 33.0615 43.3687L32.9391 42.3763ZM31.0287 44.0159L30.0708 43.7287C29.9034 44.287 29.8 45.0173 30.1903 45.6375C30.6175 46.3161 31.365 46.4633 31.9486 46.4552L31.9348 45.4553L31.921 44.4554C31.8531 44.4564 31.805 44.4524 31.7733 44.4477C31.7417 44.443 31.732 44.4384 31.7381 44.4408C31.745 44.4435 31.7684 44.4538 31.7986 44.4777C31.8299 44.5025 31.8595 44.5348 31.8829 44.572C31.9308 44.648 31.9217 44.6922 31.9214 44.6453C31.9212 44.6222 31.9234 44.5825 31.9333 44.5235C31.9432 44.4647 31.96 44.3917 31.9866 44.3031L31.0287 44.0159ZM31.9348 45.4553L31.9486 46.4552C32.2208 46.4515 32.5 46.4251 32.7586 46.3516C33.0097 46.2802 33.334 46.1378 33.5757 45.8338C34.1478 45.1144 33.7423 44.3146 33.5206 43.9725L32.6815 44.5165L31.8423 45.0604C31.9039 45.1554 31.8835 45.1555 31.8712 45.0789C31.8638 45.0333 31.8589 44.9563 31.8804 44.8606C31.9028 44.7611 31.9481 44.6672 32.0104 44.5889C32.1277 44.4414 32.2467 44.4179 32.2117 44.4278C32.1842 44.4356 32.0965 44.453 31.921 44.4554L31.9348 45.4553ZM32.6815 44.5165L33.5206 43.9725C33.4176 43.8136 33.2702 43.6013 33.0882 43.4463C33.018 43.3865 32.7776 43.1868 32.4135 43.1677C32.1973 43.1563 31.9683 43.2116 31.7678 43.3487C31.5812 43.4764 31.475 43.6366 31.4168 43.7527C31.3113 43.9632 31.2951 44.1659 31.2902 44.2571C31.2841 44.3721 31.2899 44.4862 31.2991 44.5868C31.3175 44.7896 31.3582 45.0303 31.4125 45.2949L32.3921 45.094L33.3717 44.8931C33.3236 44.6584 33.2995 44.5007 33.2909 44.4057C33.2865 44.3574 33.2882 44.3477 33.2874 44.3643C33.2869 44.3735 33.285 44.4019 33.2768 44.4429C33.2692 44.4807 33.2508 44.557 33.2049 44.6487C33.1588 44.7407 33.067 44.8832 32.8971 44.9994C32.7134 45.1251 32.5035 45.1751 32.3088 45.1649C31.9876 45.1481 31.7996 44.9758 31.7911 44.9687C31.7327 44.9188 31.7465 44.9126 31.8423 45.0604L32.6815 44.5165ZM32.3921 45.094L31.4125 45.2949C31.6867 46.6322 32.5076 47.589 33.7847 48.0761L34.1411 47.1418L34.4974 46.2074C33.8521 45.9613 33.507 45.553 33.3717 44.8931L32.3921 45.094ZM34.1411 47.1418L33.7847 48.0761C34.0726 48.1859 34.3693 48.2709 34.6609 48.3011C34.9481 48.3309 35.302 48.3148 35.6415 48.1436C36.4437 47.739 36.5057 46.8898 36.4528 46.3754L35.4581 46.4776L34.4633 46.5799C34.4759 46.7025 34.4568 46.7075 34.4773 46.6481C34.4895 46.6127 34.5151 46.5573 34.5646 46.4981C34.6155 46.4374 34.6773 46.3899 34.7409 46.3578C34.8609 46.2973 34.93 46.3183 34.8672 46.3118C34.8087 46.3057 34.6901 46.2809 34.4974 46.2074L34.1411 47.1418ZM35.4581 46.4776L36.4528 46.3754C36.3979 45.8408 36.2031 45.2098 35.6324 44.823C35.0613 44.436 34.4029 44.4894 33.8861 44.6371L34.1609 45.5986L34.4358 46.5601C34.4946 46.5433 34.5396 46.5344 34.5722 46.5299C34.6048 46.5255 34.6214 46.5261 34.6244 46.5262C34.6269 46.5264 34.6146 46.526 34.5921 46.5188C34.5809 46.5153 34.5678 46.5103 34.5535 46.5035C34.5392 46.4966 34.5247 46.4883 34.5104 46.4786C34.4961 46.4689 34.483 46.4585 34.4714 46.4478C34.4598 46.4371 34.4503 46.4269 34.4429 46.4178C34.4281 46.3996 34.4232 46.3885 34.4244 46.391C34.4257 46.394 34.4324 46.4093 34.4405 46.4414C34.4485 46.4735 34.457 46.5188 34.4633 46.5799L35.4581 46.4776ZM34.1609 45.5986L33.8861 44.6371C33.3281 44.7966 32.7818 45.1189 32.4804 45.7131C32.1876 46.2902 32.231 46.9198 32.3892 47.4717L33.3505 47.1962L34.3118 46.9206C34.2287 46.6309 34.2866 46.5734 34.264 46.618C34.2531 46.6395 34.2417 46.6452 34.2543 46.6361C34.2718 46.6236 34.3241 46.592 34.4358 46.5601L34.1609 45.5986ZM33.3505 47.1962L32.3892 47.4717C32.5535 48.0448 32.8602 48.5822 33.3901 48.9335C33.9221 49.2862 34.5368 49.3571 35.1283 49.2779L34.9955 48.2867L34.8627 47.2956C34.5987 47.331 34.5115 47.2774 34.4952 47.2666C34.4768 47.2544 34.3888 47.1892 34.3118 46.9206L33.3505 47.1962ZM34.9955 48.2867L35.1283 49.2779C35.6625 49.2063 36.1918 49.0388 36.6167 48.6919C37.0684 48.3233 37.3172 47.8208 37.3789 47.2625L36.3849 47.1526L35.391 47.0428C35.3853 47.0943 35.3748 47.1158 35.3724 47.1203C35.3707 47.1235 35.3674 47.13 35.3521 47.1425C35.3139 47.1737 35.1839 47.2525 34.8627 47.2956L34.9955 48.2867ZM36.3849 47.1526L37.3789 47.2625C37.4002 47.0701 37.4177 46.7798 37.3294 46.4961C37.2813 46.3416 37.1811 46.1216 36.9669 45.9407C36.7341 45.744 36.458 45.6706 36.2101 45.6773C35.8071 45.6881 35.501 45.9064 35.3685 46.0068C35.1926 46.14 35.0168 46.311 34.8466 46.4948L35.5803 47.1743L36.3141 47.8537C36.4475 47.7096 36.533 47.6337 36.576 47.6011C36.5968 47.5853 36.588 47.5949 36.5531 47.6116C36.5239 47.6256 36.4201 47.6724 36.2638 47.6766C36.0829 47.6814 35.8633 47.6265 35.6763 47.4686C35.508 47.3264 35.4431 47.1654 35.4197 47.0902C35.3807 46.9651 35.4052 46.9144 35.391 47.0428L36.3849 47.1526ZM35.5803 47.1743L34.8466 46.4948C34.6688 46.6868 34.5032 46.8916 34.3793 47.1044C34.2672 47.2971 34.1179 47.6161 34.1477 48.0002C34.1847 48.476 34.472 48.819 34.8088 49.0007C35.0897 49.1522 35.3919 49.1901 35.617 49.1998L35.66 48.2007L35.703 47.2017C35.5979 47.1971 35.6491 47.1816 35.7583 47.2405C35.8236 47.2757 35.9199 47.3436 36.003 47.462C36.0896 47.5854 36.1321 47.7216 36.1417 47.8454C36.1583 48.0584 36.0749 48.1671 36.108 48.1103C36.1294 48.0735 36.1881 47.9897 36.3141 47.8537L35.5803 47.1743ZM35.66 48.2007L35.617 49.1998C35.8582 49.2102 36.1798 49.192 36.4872 49.0408C36.8492 48.8628 37.1125 48.5369 37.1943 48.1223C37.2635 47.7714 37.1848 47.4484 37.1035 47.2206C37.017 46.9782 36.8875 46.7344 36.7397 46.4978L35.8915 47.0274L35.0432 47.557C35.1485 47.7257 35.1992 47.8348 35.2199 47.8929C35.2458 47.9656 35.2015 47.8905 35.2321 47.7352C35.2497 47.6461 35.2906 47.5406 35.3681 47.4412C35.4448 47.3426 35.5332 47.2812 35.6047 47.246C35.7278 47.1855 35.792 47.2055 35.703 47.2017L35.66 48.2007ZM35.8915 47.0274L36.7397 46.4978C36.0663 45.4192 35.0588 44.8121 33.7919 44.826L33.803 45.826L33.814 46.8259C34.3195 46.8203 34.7044 47.0142 35.0432 47.557L35.8915 47.0274ZM33.803 45.826L33.7919 44.826C33.534 44.8289 33.2666 44.8495 33.0239 44.9124C32.8184 44.9656 32.4121 45.1034 32.1651 45.5085C31.8689 45.9943 32.0142 46.4788 32.1518 46.7393C32.284 46.9893 32.4818 47.1947 32.6557 47.3516L33.3255 46.6091L33.9953 45.8665C33.8853 45.7673 33.89 45.7479 33.92 45.8046C33.9382 45.8391 33.9813 45.9312 33.9909 46.0691C34.0016 46.2219 33.9677 46.3939 33.8728 46.5496C33.7845 46.6944 33.676 46.7722 33.6153 46.8075C33.5561 46.8419 33.5183 46.8503 33.5254 46.8485C33.5439 46.8437 33.6288 46.828 33.814 46.8259L33.803 45.826ZM33.3255 46.6091L32.6557 47.3516C33.1013 47.7535 33.6558 47.9982 34.2891 47.9715C34.8917 47.946 35.4371 47.6797 35.9093 47.3235L35.307 46.5253L34.7047 45.727C34.4237 45.939 34.2624 45.9708 34.2046 45.9732C34.1774 45.9744 34.1177 45.9769 33.9953 45.8665L33.3255 46.6091ZM35.307 46.5253L35.9093 47.3235C36.1339 47.1541 36.3517 46.9613 36.5201 46.7424C36.6807 46.5338 36.8764 46.197 36.8595 45.7672C36.8408 45.2892 36.5735 44.9497 36.307 44.7487C36.0615 44.5635 35.7746 44.4575 35.5227 44.3892L35.2611 45.3544L34.9995 46.3195C35.1394 46.3574 35.1483 46.3798 35.1025 46.3453C35.0738 46.3236 35.0149 46.2727 34.9609 46.1827C34.9034 46.0868 34.8659 45.9701 34.8611 45.8456C34.8519 45.6109 34.9592 45.4915 34.9353 45.5225C34.9193 45.5433 34.8566 45.6124 34.7047 45.727L35.307 46.5253ZM35.2611 45.3544L35.5227 44.3892C35.3324 44.3376 35.2087 44.3005 35.1388 44.2767C35.1002 44.2636 35.1027 44.2628 35.1264 44.2738C35.1355 44.2781 35.1818 44.2998 35.2403 44.3403C35.2698 44.3607 35.3237 44.4005 35.3825 44.4616C35.4349 44.516 35.5418 44.639 35.6063 44.8318C35.6819 45.0577 35.6834 45.3406 35.5449 45.6061C35.4244 45.837 35.2487 45.9565 35.1577 46.0083C34.9896 46.1039 34.8391 46.1213 34.824 46.1234C34.7523 46.1334 34.711 46.129 34.7468 46.1304C34.7944 46.1322 34.899 46.141 35.0798 46.1628L35.1994 45.17L35.3191 44.1772C35.1286 44.1542 34.9573 44.1371 34.8244 44.1319C34.7699 44.1298 34.6622 44.1266 34.548 44.1425C34.5116 44.1476 34.3458 44.1691 34.1684 44.2701C34.0727 44.3246 33.8938 44.447 33.7716 44.6811C33.6314 44.9499 33.6327 45.2363 33.7096 45.4661C33.7753 45.6628 33.885 45.7898 33.9417 45.8487C34.0047 45.9142 34.0644 45.9587 34.1012 45.9842C34.1742 46.0347 34.2409 46.0676 34.2765 46.0843C34.3529 46.1202 34.4322 46.1489 34.494 46.1699C34.6252 46.2146 34.7979 46.2649 34.9995 46.3195L35.2611 45.3544ZM35.1994 45.17L35.0798 46.1628C35.6155 46.2274 36.1455 46.1593 36.6378 45.925C37.1256 45.6928 37.5172 45.3255 37.8264 44.8816L37.0058 44.31L36.1853 43.7384C36.0328 43.9573 35.8924 44.0648 35.7781 44.1192C35.6682 44.1715 35.5259 44.2021 35.3191 44.1772L35.1994 45.17ZM37.0058 44.31L37.8264 44.8816C38.3602 44.1153 38.6982 43.2926 38.6778 42.4388L37.6781 42.4626L36.6784 42.4864C36.6852 42.7701 36.5749 43.1791 36.1853 43.7384L37.0058 44.31ZM37.6781 42.4626L38.6778 42.4388C38.6709 42.1474 38.6542 41.8687 38.6117 41.6511C38.596 41.5705 38.5525 41.3537 38.4157 41.1501C38.3422 41.0405 38.1705 40.8283 37.8585 40.73C37.5066 40.6192 37.1966 40.7193 37.0056 40.836L37.5272 41.6892L38.0487 42.5425C37.8796 42.6458 37.5902 42.7424 37.2577 42.6377C36.9652 42.5455 36.8119 42.3492 36.7555 42.2652C36.653 42.1127 36.6393 41.9859 36.6487 42.0342C36.6566 42.0744 36.6718 42.2089 36.6784 42.4864L37.6781 42.4626ZM37.5272 41.6892L36.9135 40.8997L36.7156 41.0535L37.3293 41.843L37.9429 42.6326L38.1408 42.4788L37.5272 41.6892ZM37.3293 41.843L38.069 42.5159L38.1363 42.442L37.3966 41.7691L36.6568 41.0962L36.5895 41.1702L37.3293 41.843Z" fill="#FF5454"/>
<path d="M24.3217 21.2804C23.833 21.5377 23.6455 22.1425 23.9028 22.6312C24.1601 23.1199 24.7648 23.3074 25.2535 23.0501L24.7876 22.1653L24.3217 21.2804ZM26.0149 22.5627C26.1851 22.0373 25.897 21.4734 25.3716 21.3033C24.8462 21.1331 24.2823 21.4212 24.1122 21.9466L25.0636 22.2546L26.0149 22.5627ZM24.7876 22.1653L25.2535 23.0501C25.2339 23.0605 25.1578 23.0993 25.0397 23.119C24.9158 23.1397 24.6905 23.1468 24.4524 23.0147C24.2074 22.8787 24.0873 22.6725 24.0357 22.5312C23.9887 22.4025 23.9871 22.3025 23.9872 22.2733L24.9872 22.276L25.9872 22.2788C25.9875 22.1629 25.9805 21.5753 25.4228 21.2658C25.1515 21.1153 24.8845 21.1173 24.7107 21.1463C24.5425 21.1743 24.4081 21.235 24.3217 21.2804L24.7876 22.1653ZM24.9872 22.276L23.9872 22.2733C23.9871 22.3204 23.9879 22.3762 23.9918 22.4323C23.9928 22.4467 23.9994 22.6039 24.0644 22.7709C24.0845 22.8227 24.1266 22.9195 24.2066 23.0234C24.2855 23.1258 24.4505 23.2977 24.7264 23.3768C25.3603 23.5583 25.7458 23.0897 25.782 23.0454C25.8724 22.9351 25.9186 22.8299 25.9326 22.798C25.9531 22.7508 25.9675 22.7091 25.9765 22.6815L25.0251 22.3734L24.0737 22.0654C24.0763 22.0575 24.0846 22.0321 24.0996 21.9978C24.1079 21.9787 24.149 21.8829 24.2346 21.7784C24.266 21.74 24.6471 21.2737 25.2771 21.4541C25.551 21.5325 25.7141 21.703 25.7912 21.8031C25.8694 21.9047 25.9099 21.9984 25.9284 22.0461C25.9656 22.1416 25.9775 22.2187 25.9804 22.2378C25.9851 22.2675 25.9866 22.2883 25.987 22.2941C25.9878 22.306 25.9872 22.3037 25.9872 22.2788L24.9872 22.276ZM25.0251 22.3734L25.9765 22.6815L26.0149 22.5627L25.0636 22.2546L24.1122 21.9466L24.0737 22.0654L25.0251 22.3734Z" fill="#FF5454"/>
</g>
<defs>
<clipPath id="clip0_302_269">
<rect width="68" height="68" fill="white"/>
</clipPath>
</defs>
</svg>
