<svg width="68" height="68" viewBox="0 0 68 68" fill="none" xmlns="http://www.w3.org/2000/svg">
<rect width="68" height="68" fill="white"/>
<path d="M24.1485 15.982C24.6754 16.1473 25.2366 15.8541 25.4019 15.3271C25.5672 14.8001 25.274 14.2389 24.747 14.0736L24.4478 15.0278L24.1485 15.982ZM24.3523 14.9979L24.6516 14.0437L24.6278 14.0362L24.6035 14.0299L24.3523 14.9979ZM20.1992 13.6307L19.7722 14.5349L20.1992 13.6307ZM11.5491 11.3959L11.2427 12.3478L11.5491 11.3959ZM4.71469 25.6584L3.72879 25.8258L4.71469 25.6584ZM4.99701 28.622L3.99727 28.6447L4.99701 28.622ZM15.0488 27.9316L14.2647 27.311L15.0488 27.9316ZM19.4267 20.2203L20.3984 20.4566L20.4001 20.4497L20.4017 20.4427L19.4267 20.2203ZM19.7299 18.8912L18.8229 18.4701L18.7784 18.5659L18.7549 18.6688L19.7299 18.8912ZM20.679 19.2217C20.9116 18.7207 20.6941 18.1261 20.1931 17.8935C19.6922 17.6609 19.0976 17.8785 18.865 18.3794L19.772 18.8005L20.679 19.2217ZM24.4478 15.0278L24.747 14.0736L24.6516 14.0437L24.3523 14.9979L24.0531 15.952L24.1485 15.982L24.4478 15.0278ZM24.3523 14.9979L24.6035 14.0299C22.7578 13.5509 21.4464 13.1138 20.6262 12.7264L20.1992 13.6307L19.7722 14.5349C20.7657 15.0041 22.2231 15.4784 24.1011 15.9658L24.3523 14.9979ZM20.1992 13.6307L20.6262 12.7264C19.6363 12.259 18.6009 11.9345 17.5224 11.7537L17.3571 12.74L17.1918 13.7262C18.0889 13.8766 18.9482 14.1459 19.7722 14.5349L20.1992 13.6307ZM17.3571 12.74L17.5224 11.7537C16.551 11.5909 15.5891 11.4048 14.6368 11.1956L14.4222 12.1723L14.2076 13.149C15.1929 13.3655 16.1877 13.5579 17.1918 13.7262L17.3571 12.74ZM14.4222 12.1723L14.6368 11.1956C13.699 10.9896 12.772 10.7391 11.8556 10.444L11.5491 11.3959L11.2427 12.3478C12.2193 12.6622 13.2077 12.9293 14.2076 13.149L14.4222 12.1723ZM11.5491 11.3959L11.8556 10.444C10.8461 10.119 9.81417 9.89659 8.76084 9.77707L8.6481 10.7707L8.53536 11.7643C9.457 11.8689 10.3591 12.0633 11.2427 12.3478L11.5491 11.3959ZM8.6481 10.7707L8.76084 9.77707C7.5365 9.63815 6.423 9.9338 5.59758 10.8055L6.32369 11.493L7.04979 12.1806C7.34862 11.8651 7.78473 11.6791 8.53536 11.7643L8.6481 10.7707ZM6.32369 11.493L5.59758 10.8055C4.8784 11.5649 4.4349 12.5333 4.225 13.6512L5.20783 13.8358L6.19065 14.0203C6.34432 13.2019 6.64473 12.6084 7.04979 12.1806L6.32369 11.493ZM5.20783 13.8358L4.225 13.6512C4.04616 14.6038 3.84267 15.562 3.61448 16.5259L4.58759 16.7563L5.56069 16.9866C5.79592 15.9929 6.00593 15.0042 6.19065 14.0203L5.20783 13.8358ZM4.58759 16.7563L3.61448 16.5259C3.35217 17.634 3.31338 18.7578 3.49669 19.8897L4.48383 19.7298L5.47097 19.5699C5.32921 18.6947 5.3596 17.8361 5.56069 16.9866L4.58759 16.7563ZM4.48383 19.7298L3.49669 19.8897C3.64632 20.8135 3.68052 21.7256 3.60096 22.6281L4.5971 22.7159L5.59324 22.8037C5.68773 21.7318 5.64642 20.6532 5.47097 19.5699L4.48383 19.7298ZM4.5971 22.7159L3.60096 22.6281C3.50646 23.7001 3.54904 24.7667 3.72879 25.8258L4.71469 25.6584L5.70059 25.4911C5.54951 24.601 5.5137 23.7059 5.59324 22.8037L4.5971 22.7159ZM4.71469 25.6584L3.72879 25.8258C3.88598 26.7519 3.97555 27.6914 3.99727 28.6447L4.99701 28.622L5.99675 28.5992C5.97286 27.5502 5.87421 26.5141 5.70059 25.4911L4.71469 25.6584ZM4.99701 28.622L3.99727 28.6447C4.02301 29.7752 4.26176 30.8591 4.71327 31.8887L5.62908 31.4871L6.54489 31.0855C6.19924 30.2972 6.0166 29.471 5.99675 28.5992L4.99701 28.622ZM5.62908 31.4871L4.71327 31.8887C5.15766 32.902 5.75727 33.8072 6.51105 34.5983L7.23505 33.9085L7.95905 33.2187C7.3687 32.5991 6.89766 31.8899 6.54489 31.0855L5.62908 31.4871ZM7.23505 33.9085L6.51105 34.5983C6.93687 35.0452 7.45784 35.4038 8.08147 35.5116C8.72877 35.6235 9.33106 35.4391 9.84526 35.0923L9.28615 34.2632L8.72703 33.4341C8.54589 33.5563 8.45867 33.5471 8.42227 33.5408C8.3622 33.5305 8.20529 33.4772 7.95905 33.2187L7.23505 33.9085ZM9.28615 34.2632L9.84526 35.0923C10.5338 34.628 11.3032 34.1217 12.1538 33.5734L11.612 32.7329L11.0702 31.8924C10.2103 32.4467 9.42915 32.9606 8.72703 33.4341L9.28615 34.2632ZM11.612 32.7329L12.1538 33.5734C13.1746 32.9154 13.9364 32.0201 14.4232 30.9068L13.507 30.5062L12.5908 30.1055C12.2614 30.8587 11.76 31.4478 11.0702 31.8924L11.612 32.7329ZM13.507 30.5062L14.4232 30.9068C14.7976 30.0507 15.2675 29.2667 15.8329 28.5522L15.0488 27.9316L14.2647 27.311C13.5905 28.1629 13.0325 29.0952 12.5908 30.1055L13.507 30.5062ZM15.0488 27.9316L15.8329 28.5522C16.5004 27.7087 17.0621 26.8011 17.5168 25.8306L16.6113 25.4063L15.7057 24.9821C15.3168 25.8121 14.8368 26.5881 14.2647 27.311L15.0488 27.9316ZM16.6113 25.4063L17.5168 25.8306C17.9081 24.9955 18.3882 24.2033 18.9586 23.4534L18.1627 22.848L17.3668 22.2426C16.7122 23.1032 16.1581 24.0166 15.7057 24.9821L16.6113 25.4063ZM18.1627 22.848L18.9586 23.4534C19.6512 22.5428 20.1344 21.5421 20.3984 20.4566L19.4267 20.2203L18.455 19.984C18.2586 20.7915 17.8992 21.5426 17.3668 22.2426L18.1627 22.848ZM19.4267 20.2203L20.4017 20.4427L20.7048 19.1136L19.7299 18.8912L18.7549 18.6688L18.4518 19.9979L19.4267 20.2203ZM19.7299 18.8912L20.6369 19.3124L20.679 19.2217L19.772 18.8005L18.865 18.3794L18.8229 18.4701L19.7299 18.8912Z" fill="#FF5454"/>
<path d="M46.126 16.0647C45.5738 16.0599 45.1222 16.5037 45.1174 17.056C45.1126 17.6083 45.5564 18.0599 46.1087 18.0647L46.1173 17.0647L46.126 16.0647ZM46.2173 17.0656L46.2086 18.0655L46.2378 18.0658L46.267 18.0643L46.2173 17.0656ZM53.5682 17.1889L53.4544 16.1954L53.5682 17.1889ZM59.5309 17.1279L59.3926 18.1183L59.5309 17.1279ZM64.3411 19.17L63.383 19.4563L64.3411 19.17ZM63.1793 27.8904L64.1784 27.9336L63.1793 27.8904ZM62.5997 30.82L63.539 31.163L62.5997 30.82ZM61.6393 33.6766L60.6836 33.3822V33.3822L61.6393 33.6766ZM53.733 34.3932L52.9112 34.9629L53.733 34.3932ZM52.5355 31.6643L53.5104 31.442L52.5355 31.6643ZM49.9005 26.308L50.8329 25.9467L49.9005 26.308ZM43.8776 20.8643L43.9305 19.8657L43.9114 19.8647L43.8924 19.8644L43.8776 20.8643ZM42.6898 20.8468L42.1907 21.7134L42.4156 21.8429L42.675 21.8467L42.6898 20.8468ZM43.1022 19.9303C42.6236 19.6547 42.0122 19.8192 41.7365 20.2978C41.4609 20.7764 41.6255 21.3879 42.1041 21.6635L42.6031 20.7969L43.1022 19.9303ZM46.1173 17.0647L46.1087 18.0647L46.2086 18.0655L46.2173 17.0656L46.226 16.0656L46.126 16.0647L46.1173 17.0647ZM46.2173 17.0656L46.267 18.0643C48.1722 17.9697 49.5504 17.9991 50.4426 18.1304L50.5882 17.1411L50.7338 16.1517C49.6432 15.9913 48.1075 15.9704 46.1677 16.0668L46.2173 17.0656ZM50.5882 17.1411L50.4426 18.1304C51.5199 18.289 52.6004 18.3063 53.682 18.1824L53.5682 17.1889L53.4544 16.1954C52.5454 16.2995 51.6393 16.285 50.7338 16.1517L50.5882 17.1411ZM53.5682 17.1889L53.682 18.1824C54.6505 18.0715 55.6184 18.0002 56.5859 17.9686L56.5533 16.9692L56.5206 15.9697C55.4986 16.0031 54.4765 16.0783 53.4544 16.1954L53.5682 17.1889ZM56.5533 16.9692L56.5859 17.9686C57.5232 17.938 58.4586 17.9879 59.3926 18.1183L59.5309 17.1279L59.6692 16.1375C58.6225 15.9913 57.5728 15.9353 56.5206 15.9697L56.5533 16.9692ZM59.5309 17.1279L59.3926 18.1183C60.3798 18.2562 61.3562 18.3973 62.3217 18.5416L62.4695 17.5526L62.6174 16.5636C61.6454 16.4183 60.6627 16.2763 59.6692 16.1375L59.5309 17.1279ZM62.4695 17.5526L62.3217 18.5416C62.6545 18.5913 62.8665 18.698 63.0101 18.8221C63.1534 18.946 63.288 19.1385 63.383 19.4563L64.3411 19.17L65.2992 18.8837C65.1153 18.2681 64.7984 17.7242 64.3179 17.3089C63.8376 16.8939 63.2534 16.6586 62.6174 16.5636L62.4695 17.5526ZM64.3411 19.17L63.383 19.4563C63.6189 20.2459 63.6774 21.0635 63.5531 21.92L64.5428 22.0636L65.5324 22.2073C65.6971 21.0726 65.6212 19.9611 65.2992 18.8837L64.3411 19.17ZM64.5428 22.0636L63.5531 21.92C63.4193 22.8421 63.1857 23.7362 62.8522 24.6036L63.7855 24.9625L64.7189 25.3215C65.106 24.3149 65.3772 23.2764 65.5324 22.2073L64.5428 22.0636ZM63.7855 24.9625L62.8522 24.6036C62.4525 25.6428 62.2287 26.7255 62.1803 27.8473L63.1793 27.8904L64.1784 27.9336C64.2176 27.0254 64.3979 26.1562 64.7189 25.3215L63.7855 24.9625ZM63.1793 27.8904L62.1803 27.8473C62.1408 28.7616 61.9672 29.6369 61.6604 30.4769L62.5997 30.82L63.539 31.163C63.9174 30.127 64.1302 29.0492 64.1784 27.9336L63.1793 27.8904ZM62.5997 30.82L61.6604 30.4769C61.3119 31.4312 60.9863 32.3997 60.6836 33.3822L61.6393 33.6766L62.595 33.971C62.8877 33.0208 63.2024 32.0848 63.539 31.163L62.5997 30.82ZM61.6393 33.6766L60.6836 33.3822C60.4365 34.1844 60.0121 34.87 59.4009 35.4526L60.0909 36.1765L60.7808 36.9003C61.6388 36.0824 62.2467 35.1015 62.595 33.971L61.6393 33.6766ZM60.0909 36.1765L59.4009 35.4526C58.7628 36.0609 58.1252 36.4283 57.4905 36.6041L57.7573 37.5678L58.0241 38.5316C59.0316 38.2526 59.9498 37.6925 60.7808 36.9003L60.0909 36.1765ZM57.7573 37.5678L57.4905 36.6041C57.2606 36.6677 57.0859 36.6543 56.9328 36.5987C56.769 36.5393 56.5608 36.4055 56.3202 36.1222L55.558 36.7695L54.7957 37.4168C55.2002 37.893 55.6811 38.2721 56.2504 38.4787C56.8304 38.6893 57.4327 38.6953 58.0241 38.5316L57.7573 37.5678ZM55.558 36.7695L56.3202 36.1222C55.6965 35.3877 55.108 34.6215 54.5549 33.8235L53.733 34.3932L52.9112 34.9629C53.5012 35.8142 54.1294 36.6322 54.7957 37.4168L55.558 36.7695ZM53.733 34.3932L54.5549 33.8235C54.0573 33.1057 53.7093 32.3143 53.5104 31.442L52.5355 31.6643L51.5605 31.8866C51.8152 33.0037 52.2656 34.0316 52.9112 34.9629L53.733 34.3932ZM52.5355 31.6643L53.5104 31.442C53.2546 30.3199 52.7932 29.2856 52.1292 28.3459L51.3125 28.923L50.4958 29.5001C51.0089 30.2261 51.3628 31.0194 51.5605 31.8866L52.5355 31.6643ZM51.3125 28.923L52.1292 28.3459C51.5858 27.577 51.1549 26.7774 50.8329 25.9467L49.9005 26.308L48.9681 26.6693C49.3517 27.6595 49.8621 28.6033 50.4958 29.5001L51.3125 28.923ZM49.9005 26.308L50.8329 25.9467C50.4419 24.9376 49.8995 24.005 49.2093 23.1512L48.4316 23.7799L47.654 24.4086C48.2166 25.1046 48.6535 25.8574 48.9681 26.6693L49.9005 26.308ZM48.4316 23.7799L49.2093 23.1512C48.5289 22.3097 47.7613 21.5792 46.9066 20.9633L46.322 21.7747L45.7375 22.586C46.4426 23.094 47.0814 23.7004 47.654 24.4086L48.4316 23.7799ZM46.322 21.7747L46.9066 20.9633C45.9919 20.3043 44.9958 19.9221 43.9305 19.8657L43.8776 20.8643L43.8248 21.8629C44.4589 21.8965 45.0924 22.1212 45.7375 22.586L46.322 21.7747ZM43.8776 20.8643L43.8924 19.8644L42.7045 19.8469L42.6898 20.8468L42.675 21.8467L43.8629 21.8642L43.8776 20.8643ZM42.6898 20.8468L43.1888 19.9802L43.1022 19.9303L42.6031 20.7969L42.1041 21.6635L42.1907 21.7134L42.6898 20.8468Z" fill="#FF5454"/>
<path d="M28.5062 37.9775C29.0153 38.1918 29.6016 37.9528 29.8159 37.4438C30.0301 36.9348 29.7912 36.3484 29.2821 36.1342L28.8942 37.0558L28.5062 37.9775ZM28.802 37.017L29.19 36.0954L29.1822 36.0921L29.1744 36.089L28.802 37.017ZM17.3697 36.4522L16.5973 35.8171L17.3697 36.4522ZM15.8535 38.9632L14.9324 38.5739L15.8535 38.9632ZM14.9825 41.8014L14.0016 41.6066L14.9825 41.8014ZM13.0663 50.3971L12.0895 50.6114L13.0663 50.3971ZM17.4161 53.2467L18.3723 52.9542L17.4161 53.2467ZM20.3636 55.199L21.0293 55.9452L20.3636 55.199ZM26.0944 58.9568L25.3092 59.576L26.0944 58.9568ZM27.3092 58.4274L28.2337 58.8085L27.3092 58.4274ZM31.7285 60.9485L30.9423 61.5664L31.7285 60.9485ZM40.7713 59.6757L39.9444 59.1133L40.7713 59.6757ZM42.5083 57.2442L41.708 56.6446L42.5083 57.2442ZM44.888 51.785L45.7973 52.2011L44.888 51.785ZM46.0809 49.0501L45.1573 48.6666L46.0809 49.0501ZM47.059 45.9828L48.0403 45.7904L47.059 45.9828ZM47.1014 48.8195L46.112 48.6743L47.1014 48.8195ZM47.2746 51.7991L46.308 52.0556L47.2746 51.7991ZM47.9891 54.413L48.9512 54.1399L47.9891 54.413ZM48.8722 54.1205L47.9418 53.7538L48.8722 54.1205ZM49.4211 51.1783L48.4211 51.1866L49.4211 51.1783ZM50.0423 45.2377L49.071 44.9998L50.0423 45.2377ZM50.1973 42.2761L51.1878 42.1386L50.1973 42.2761ZM47.4176 34.248L47.8902 33.3667L47.4176 34.248ZM36.6756 35.2823L36.138 34.4391L36.1183 34.4517L36.0991 34.4652L36.6756 35.2823ZM36.1561 35.6489L36.4178 36.614L36.5883 36.5678L36.7326 36.466L36.1561 35.6489ZM35.7978 34.7099C35.2648 34.8545 34.9499 35.4037 35.0944 35.9368C35.2389 36.4698 35.7882 36.7847 36.3213 36.6402L36.0596 35.6751L35.7978 34.7099ZM28.8942 37.0558L29.2821 36.1342L29.19 36.0954L28.802 37.017L28.4141 37.9387L28.5062 37.9775L28.8942 37.0558ZM28.802 37.017L29.1744 36.089C27.4051 35.3791 26.1385 34.7888 25.3409 34.3177L24.8323 35.1788L24.3238 36.0398C25.2549 36.5898 26.6348 37.225 28.4296 37.9451L28.802 37.017ZM24.8323 35.1788L25.3409 34.3177C24.3775 33.7488 23.3465 33.3594 22.2524 33.1524L22.0665 34.1349L21.8805 35.1175C22.7455 35.2812 23.5584 35.5877 24.3238 36.0398L24.8323 35.1788ZM22.0665 34.1349L22.2524 33.1524C21.0508 32.9249 19.9158 33.105 18.9151 33.7412L19.4515 34.5851L19.988 35.429C20.5148 35.0942 21.1231 34.9741 21.8805 35.1175L22.0665 34.1349ZM19.4515 34.5851L18.9151 33.7412C18.0548 34.2881 17.2828 34.9833 16.5973 35.8171L17.3697 36.4522L18.1422 37.0872C18.705 36.4027 19.3208 35.8532 19.988 35.429L19.4515 34.5851ZM17.3697 36.4522L16.5973 35.8171C15.9114 36.6514 15.3562 37.5713 14.9324 38.5739L15.8535 38.9632L16.7746 39.3525C17.1242 38.5253 17.5798 37.7713 18.1422 37.0872L17.3697 36.4522ZM15.8535 38.9632L14.9324 38.5739C14.5192 39.5516 14.2089 40.5629 14.0016 41.6066L14.9825 41.8014L15.9633 41.9961C16.1442 41.0854 16.4145 40.2045 16.7746 39.3525L15.8535 38.9632ZM14.9825 41.8014L14.0016 41.6066C13.8139 42.5519 13.581 43.484 13.3027 44.4029L14.2598 44.6927L15.2169 44.9825C15.5142 44.0007 15.763 43.0053 15.9633 41.9961L14.9825 41.8014ZM14.2598 44.6927L13.3027 44.4029C13.0219 45.3305 12.7057 46.2554 12.3541 47.1777L13.2885 47.534L14.2229 47.8903C14.5909 46.9249 14.9223 45.9556 15.2169 44.9825L14.2598 44.6927ZM13.2885 47.534L12.3541 47.1777C11.9265 48.2992 11.835 49.4518 12.0895 50.6114L13.0663 50.3971L14.043 50.1827C13.874 49.4126 13.9307 48.6564 14.2229 47.8903L13.2885 47.534ZM13.0663 50.3971L12.0895 50.6114C12.3215 51.6688 12.7565 52.6296 13.582 53.1625L14.1243 52.3223L14.6666 51.4822C14.5049 51.3777 14.2344 51.055 14.043 50.1827L13.0663 50.3971ZM14.1243 52.3223L13.582 53.1625C13.7951 53.3 14.1046 53.4467 14.4792 53.4382C14.8984 53.4288 15.2383 53.23 15.4688 52.9643C15.675 52.7265 15.7875 52.4467 15.8554 52.2103C15.9264 51.9635 15.9697 51.6894 15.9956 51.4036L14.9997 51.3133L14.0038 51.2229C13.9847 51.4328 13.9578 51.5725 13.9333 51.6577C13.9059 51.7531 13.8976 51.7234 13.958 51.6537C13.9932 51.6132 14.0536 51.5573 14.1442 51.5116C14.2376 51.4645 14.3383 51.4409 14.4342 51.4388C14.6125 51.4347 14.7004 51.5039 14.6666 51.4822L14.1243 52.3223ZM14.9997 51.3133L15.9956 51.4036C16.0142 51.1989 16.0415 51.1055 16.0501 51.0831C16.0651 51.044 16.0062 51.2376 15.7508 51.3555C15.4567 51.4913 15.2205 51.387 15.1844 51.3683C15.1573 51.3542 15.203 51.3735 15.3233 51.5036L16.0576 50.8248L16.792 50.146C16.6045 49.9432 16.3755 49.7333 16.1064 49.5935C15.8283 49.449 15.3828 49.3225 14.9124 49.5397C14.4808 49.739 14.2783 50.1177 14.1827 50.367C14.0806 50.6333 14.0302 50.932 14.0038 51.2229L14.9997 51.3133ZM16.0576 50.8248L15.3233 51.5036C15.8272 52.0487 16.2093 52.7204 16.4598 53.5393L17.4161 53.2467L18.3723 52.9542C18.0423 51.8753 17.5188 50.9323 16.792 50.146L16.0576 50.8248ZM17.4161 53.2467L16.4598 53.5393C16.7751 54.5698 17.2052 55.4481 17.7915 56.107L18.5386 55.4422L19.2856 54.7775C18.9558 54.4068 18.6376 53.8215 18.3723 52.9542L17.4161 53.2467ZM18.5386 55.4422L17.7915 56.107C18.2095 56.5768 18.7926 56.849 19.4704 56.7587C20.0648 56.6795 20.5892 56.3379 21.0293 55.9452L20.3636 55.199L19.6978 54.4528C19.5479 54.5866 19.4279 54.6705 19.3378 54.7204C19.2477 54.7704 19.2057 54.7763 19.2062 54.7762C19.2147 54.7751 19.2485 54.7746 19.287 54.7902C19.3208 54.804 19.3182 54.8141 19.2856 54.7775L18.5386 55.4422ZM20.3636 55.199L21.0293 55.9452C21.3074 55.6971 21.5118 55.6199 21.644 55.6013C21.7625 55.5847 21.9165 55.6011 22.1377 55.7343L22.6537 54.8777L23.1696 54.021C22.6227 53.6916 22.011 53.5302 21.3661 53.6207C20.735 53.7093 20.1784 54.0241 19.6978 54.4528L20.3636 55.199ZM22.6537 54.8777L22.1377 55.7343C22.758 56.1079 23.308 56.6493 23.7804 57.388L24.6229 56.8492L25.4653 56.3105C24.8484 55.3457 24.0855 54.5727 23.1696 54.021L22.6537 54.8777ZM24.6229 56.8492L23.7804 57.388C24.336 58.2567 24.8458 58.9884 25.3092 59.576L26.0944 58.9568L26.8796 58.3376C26.4704 57.8186 25.9992 57.1453 25.4653 56.3105L24.6229 56.8492ZM26.0944 58.9568L25.3092 59.576C25.47 59.7799 25.6969 60.0087 26.0069 60.1475C26.3563 60.304 26.7532 60.3181 27.1248 60.1561C27.4544 60.0125 27.6822 59.7665 27.835 59.554C27.9934 59.3338 28.1232 59.0766 28.2337 58.8085L27.3092 58.4274L26.3847 58.0463C26.3084 58.2313 26.2476 58.336 26.2113 58.3864C26.1694 58.4446 26.1987 58.3781 26.3258 58.3227C26.3964 58.2919 26.486 58.27 26.5865 58.2715C26.6859 58.2729 26.7675 58.2967 26.8246 58.3223C26.9243 58.367 26.9369 58.4103 26.8796 58.3376L26.0944 58.9568ZM27.3092 58.4274L28.2337 58.8085C28.3102 58.6231 28.3821 58.4861 28.4452 58.3881C28.509 58.2891 28.5539 58.2454 28.571 58.2312C28.5846 58.2198 28.5653 58.2394 28.5142 58.2514C28.4604 58.2639 28.4191 58.2569 28.4072 58.2536L28.673 57.2896L28.9388 56.3256C28.3313 56.1581 27.7493 56.312 27.2897 56.6954C26.8815 57.036 26.5975 57.53 26.3847 58.0463L27.3092 58.4274ZM28.673 57.2896L28.4072 58.2536C28.5626 58.2965 28.9235 58.5225 29.4216 59.3348L30.2741 58.812L31.1266 58.2893C30.5611 57.3671 29.8546 56.5781 28.9388 56.3256L28.673 57.2896ZM30.2741 58.812L29.4216 59.3348C29.9657 60.2221 30.4728 60.969 30.9423 61.5664L31.7285 60.9485L32.5148 60.3305C32.1087 59.8138 31.6461 59.1364 31.1266 58.2893L30.2741 58.812ZM31.7285 60.9485L30.9423 61.5664C31.3176 62.0439 31.8391 62.3534 32.4719 62.398C33.0588 62.4394 33.6305 62.245 34.1476 61.9637L33.6697 61.0853L33.1918 60.2069C32.8526 60.3914 32.6726 60.4072 32.6125 60.403C32.5898 60.4014 32.5838 60.3973 32.5818 60.3962C32.5777 60.394 32.5536 60.38 32.5148 60.3305L31.7285 60.9485ZM33.6697 61.0853L34.1476 61.9637C35.0496 61.473 35.9277 60.9043 36.7822 60.2588L36.1795 59.4609L35.5767 58.6629C34.7974 59.2517 34.0024 59.7659 33.1918 60.2069L33.6697 61.0853ZM36.1795 59.4609L36.7822 60.2588C36.9441 60.1365 37.0285 60.0999 37.0451 60.0942C37.0603 60.0889 36.9108 60.1447 36.7046 60.0532C36.4907 59.9583 36.4244 59.7982 36.4216 59.791C36.4198 59.7864 36.4269 59.8037 36.4348 59.8521C36.4425 59.8994 36.4495 59.9666 36.4523 60.057L37.4518 60.0255L38.4513 59.9939C38.4417 59.6897 38.4014 59.3664 38.2877 59.0717C38.1711 58.769 37.9418 58.4142 37.5158 58.2251C37.0976 58.0395 36.6869 58.1019 36.3918 58.2039C36.0982 58.3054 35.8233 58.4766 35.5767 58.6629L36.1795 59.4609ZM37.4518 60.0255L36.4523 60.057C36.4708 60.6409 36.6036 61.3247 37.1094 61.7971C37.6694 62.3203 38.3872 62.3232 38.9627 62.1782L38.7183 61.2085L38.474 60.2388C38.3584 60.2679 38.3192 60.2591 38.3335 60.2613C38.343 60.2628 38.3652 60.2676 38.3943 60.2813C38.424 60.2953 38.4517 60.3142 38.4746 60.3356C38.5208 60.3787 38.517 60.4022 38.4992 60.3476C38.4804 60.2903 38.4572 60.1792 38.4513 59.9939L37.4518 60.0255ZM38.7183 61.2085L38.9627 62.1782C40.0545 61.9031 40.9308 61.2194 41.5982 60.2381L40.7713 59.6757L39.9444 59.1133C39.5005 59.766 39.0082 60.1042 38.474 60.2388L38.7183 61.2085ZM40.7713 59.6757L41.5982 60.2381C42.1451 59.4339 42.7153 58.6358 43.3087 57.8437L42.5083 57.2442L41.708 56.6446C41.0967 57.4606 40.5088 58.2835 39.9444 59.1133L40.7713 59.6757ZM42.5083 57.2442L43.3087 57.8437C43.9826 56.9442 44.4804 55.9511 44.8001 54.8699L43.8411 54.5863L42.8821 54.3028C42.6295 55.1572 42.2388 55.9361 41.708 56.6446L42.5083 57.2442ZM43.8411 54.5863L44.8001 54.8699C45.0731 53.9464 45.4056 53.057 45.7973 52.2011L44.888 51.785L43.9787 51.3688C43.5469 52.3124 43.1815 53.2905 42.8821 54.3028L43.8411 54.5863ZM44.888 51.785L45.7973 52.2011C46.214 51.2905 46.6164 50.368 47.0044 49.4336L46.0809 49.0501L45.1573 48.6666C44.7783 49.5793 44.3854 50.4801 43.9787 51.3688L44.888 51.785ZM46.0809 49.0501L47.0044 49.4336C47.4328 48.4021 47.6731 47.3227 47.7253 46.201L46.7264 46.1545L45.7275 46.1081C45.686 47 45.496 47.851 45.1573 48.6666L46.0809 49.0501ZM46.7264 46.1545L47.7253 46.201C47.7365 45.9592 47.7505 45.8067 47.7627 45.724C47.7695 45.6784 47.7708 45.6891 47.758 45.7288C47.7518 45.7479 47.7318 45.8079 47.6879 45.883C47.6533 45.9422 47.5407 46.1225 47.3035 46.245C46.9987 46.4023 46.6629 46.3775 46.4069 46.2451C46.2076 46.1421 46.1033 46.0003 46.0716 45.9553C46.0021 45.8566 45.9822 45.7819 45.9936 45.8153C46.0062 45.8521 46.0355 45.9602 46.0776 46.1751L47.059 45.9828L48.0403 45.7904C47.9949 45.5591 47.9448 45.3398 47.8859 45.1678C47.8616 45.0968 47.808 44.9475 47.7068 44.8037C47.6593 44.7362 47.5396 44.5793 47.3255 44.4685C47.0546 44.3285 46.7044 44.3034 46.3858 44.4679C46.1348 44.5976 46.0087 44.7925 45.9613 44.8736C45.9046 44.9707 45.8721 45.0602 45.8542 45.116C45.8177 45.2295 45.7973 45.3434 45.7843 45.4309C45.7571 45.6142 45.7396 45.8464 45.7275 46.1081L46.7264 46.1545ZM47.059 45.9828L46.0776 46.1751C46.2285 46.9446 46.2439 47.7754 46.112 48.6743L47.1014 48.8195L48.0908 48.9648C48.252 47.8661 48.2393 46.8056 48.0403 45.7904L47.059 45.9828ZM47.1014 48.8195L46.112 48.6743C45.9454 49.8088 46.0116 50.9387 46.308 52.0556L47.2746 51.7991L48.2411 51.5426C48.0133 50.6843 47.9641 49.8278 48.0908 48.9648L47.1014 48.8195ZM47.2746 51.7991L46.308 52.0556C46.5712 53.0472 46.8109 53.9241 47.0271 54.686L47.9891 54.413L48.9512 54.1399C48.7388 53.3918 48.5022 52.5262 48.2411 51.5426L47.2746 51.7991ZM47.9891 54.413L47.0271 54.686C47.0902 54.9081 47.1905 55.1941 47.3739 55.4312C47.4714 55.5572 47.6321 55.7216 47.8756 55.8242C48.143 55.9369 48.4287 55.9402 48.685 55.8554C49.1088 55.715 49.3467 55.3718 49.4492 55.2113C49.5823 55.0028 49.6983 54.7516 49.8025 54.4872L48.8722 54.1205L47.9418 53.7538C47.8588 53.9644 47.7976 54.0816 47.7635 54.135C47.747 54.1609 47.7517 54.1481 47.7819 54.1182C47.8086 54.0918 47.8983 54.0091 48.0562 53.9568C48.2389 53.8963 48.4536 53.8974 48.6524 53.9812C48.8272 54.0549 48.9219 54.1637 48.9558 54.2075C49.0121 54.2803 48.9952 54.2953 48.9512 54.1399L47.9891 54.413ZM48.8722 54.1205L49.8025 54.4872C50.2235 53.419 50.4306 52.311 50.4211 51.1699L49.4211 51.1783L48.4211 51.1866C48.4285 52.0686 48.2696 52.9221 47.9418 53.7538L48.8722 54.1205ZM49.4211 51.1783L50.4211 51.1699C50.4129 50.1911 50.4528 49.2275 50.5405 48.279L49.5447 48.1869L48.5489 48.0948C48.4549 49.1118 48.4124 50.1424 48.4211 51.1866L49.4211 51.1783ZM49.5447 48.1869L50.5405 48.279C50.6266 47.3466 50.7842 46.4123 51.0136 45.4756L50.0423 45.2377L49.071 44.9998C48.8187 46.0299 48.6445 47.0617 48.5489 48.0948L49.5447 48.1869ZM50.0423 45.2377L51.0136 45.4756C51.2842 44.371 51.3429 43.2564 51.1878 42.1386L50.1973 42.2761L49.2068 42.4136C49.3267 43.2779 49.2822 44.1377 49.071 44.9998L50.0423 45.2377ZM50.1973 42.2761L51.1878 42.1386C51.047 41.1246 50.8719 40.1208 50.6623 39.127L49.6838 39.3333L48.7053 39.5397C48.9052 40.4875 49.0724 41.4454 49.2068 42.4136L50.1973 42.2761ZM49.6838 39.3333L50.6623 39.127C50.457 38.1532 50.2466 37.1776 50.0312 36.2L49.0546 36.4152L48.078 36.6304C48.2921 37.6021 48.5012 38.5719 48.7053 39.5397L49.6838 39.3333ZM49.0546 36.4152L50.0312 36.2C49.7539 34.9415 49.0249 33.9753 47.8902 33.3667L47.4176 34.248L46.9449 35.1292C47.5634 35.4609 47.9258 35.9395 48.078 36.6304L49.0546 36.4152ZM47.4176 34.248L47.8902 33.3667C46.8845 32.8273 45.8018 32.5226 44.6525 32.4528L44.5919 33.4509L44.5312 34.4491C45.3964 34.5017 46.1975 34.7283 46.9449 35.1292L47.4176 34.248ZM44.5919 33.4509L44.6525 32.4528C43.5154 32.3837 42.4046 32.5333 41.3273 32.901L41.6503 33.8474L41.9733 34.7938C42.8037 34.5104 43.6539 34.3958 44.5312 34.4491L44.5919 33.4509ZM41.6503 33.8474L41.3273 32.901C40.4176 33.2114 39.4985 33.4543 38.5698 33.63L38.7556 34.6126L38.9415 35.5951C39.9646 35.4016 40.9753 35.1344 41.9733 34.7938L41.6503 33.8474ZM38.7556 34.6126L38.5698 33.63C37.5715 33.8188 36.7185 34.069 36.138 34.4391L36.6756 35.2823L37.2132 36.1255C37.4542 35.9718 37.9879 35.7755 38.9415 35.5951L38.7556 34.6126ZM36.6756 35.2823L36.0991 34.4652L35.5795 34.8318L36.1561 35.6489L36.7326 36.466L37.2522 36.0993L36.6756 35.2823ZM36.1561 35.6489L35.8944 34.6837L35.7978 34.7099L36.0596 35.6751L36.3213 36.6402L36.4178 36.614L36.1561 35.6489Z" fill="#FF5454"/>
<path d="M26.6573 30.1053C27.1421 29.8406 27.3204 29.2331 27.0557 28.7484C26.791 28.2637 26.1835 28.0853 25.6987 28.35L26.178 29.2277L26.6573 30.1053ZM24.8705 28.7815C24.6749 29.2979 24.9349 29.8752 25.4514 30.0709C25.9679 30.2665 26.5451 30.0065 26.7408 29.49L25.8057 29.1357L24.8705 28.7815ZM26.178 29.2277L25.6987 28.35C25.7214 28.3376 25.7923 28.3011 25.9016 28.2809C26.0171 28.2595 26.2024 28.2523 26.4062 28.3399C26.8441 28.5282 26.9123 28.9249 26.9179 28.9589L25.9312 29.1215L24.9445 29.2842C24.9744 29.4655 25.096 29.9536 25.6161 30.1773C26.0986 30.3847 26.5191 30.1808 26.6573 30.1053L26.178 29.2277ZM25.9312 29.1215L26.9179 28.9589C26.9088 28.9038 26.8955 28.8336 26.8749 28.7607C26.8646 28.7242 26.8164 28.5427 26.68 28.3686C26.6079 28.2765 26.4245 28.0748 26.1028 28.0021C25.7337 27.9187 25.4313 28.0569 25.2595 28.19C25.1099 28.3059 25.029 28.4357 24.9956 28.4933C24.9559 28.5621 24.9303 28.6237 24.9151 28.6639L25.8502 29.0181L26.7854 29.3724C26.7776 29.393 26.7594 29.4385 26.7269 29.4947C26.7008 29.5398 26.627 29.6605 26.4845 29.7709C26.3197 29.8986 26.0244 30.0348 25.6622 29.953C25.3474 29.8819 25.1709 29.6853 25.1055 29.6018C25.0324 29.5085 24.9952 29.4249 24.9807 29.3905C24.9634 29.3494 24.954 29.3178 24.9501 29.3037C24.9423 29.2763 24.9415 29.2656 24.9445 29.2842L25.9312 29.1215ZM25.8502 29.0181L24.9151 28.6639L24.8705 28.7815L25.8057 29.1357L26.7408 29.49L26.7854 29.3724L25.8502 29.0181Z" fill="#FF5454"/>
<path d="M31.1483 41.7592C31.6973 41.8197 32.1913 41.4237 32.2518 40.8747C32.3122 40.3257 31.9162 39.8317 31.3672 39.7713L31.2578 40.7653L31.1483 41.7592ZM31.1584 40.7543L31.2678 39.7603L29.5608 39.5724L30.2399 41.1497L31.1584 40.7543ZM31.3578 41.3175L30.673 42.0462L31.3578 41.3175ZM30.6419 41.2481L30.6443 40.2481L30.6419 41.2481ZM30.9883 41.6918L31.9464 41.9783L30.9883 41.6918ZM31.6504 40.1816L31.9357 39.2232L31.6504 40.1816ZM30.3367 42.0772L31.2224 41.6129L30.3367 42.0772ZM29.8849 42.7166L30.2854 41.8003L29.8849 42.7166ZM32.4866 41.8178L33.2336 41.153L32.4866 41.8178ZM31.1832 42.1013L32.103 42.4938L31.1832 42.1013ZM31.0898 43.4838L30.6507 44.3822L30.6829 44.3979L30.7161 44.4113L31.0898 43.4838ZM31.6004 43.6895L31.5504 44.6883L31.9741 42.762L31.6004 43.6895ZM31.5505 42.6858C30.9989 42.6582 30.5294 43.0829 30.5018 43.6345C30.4742 44.1861 30.8989 44.6557 31.4505 44.6833L31.5005 43.6845L31.5505 42.6858ZM31.2578 40.7653L31.3672 39.7713L31.2678 39.7603L31.1584 40.7543L31.0489 41.7483L31.1483 41.7592L31.2578 40.7653ZM31.1584 40.7543L30.2399 41.1497C30.3299 41.359 30.3802 41.4846 30.4014 41.5445C30.4221 41.6027 30.3939 41.5388 30.3806 41.4354C30.3768 41.4057 30.3658 41.3144 30.3803 41.1967C30.3886 41.1288 30.4372 40.7439 30.8159 40.4915C31.2544 40.1992 31.6806 40.3657 31.796 40.4207C31.9323 40.4857 32.0185 40.5662 32.0427 40.5888L31.3578 41.3175L30.673 42.0462C30.7031 42.0746 30.7945 42.1589 30.9351 42.2259C31.0547 42.283 31.4842 42.4496 31.9251 42.1557C32.3062 41.9017 32.3564 41.5133 32.3654 41.4401C32.3805 41.3171 32.3692 41.2188 32.3643 41.1802C32.3464 41.0412 32.2993 40.9125 32.2867 40.8768C32.2415 40.749 32.1679 40.5704 32.0769 40.3589L31.1584 40.7543ZM31.3578 41.3175L32.0427 40.5888C31.8214 40.3809 31.5624 40.3256 31.518 40.315C31.4188 40.2914 31.3202 40.2787 31.2393 40.2709C31.0735 40.2548 30.87 40.2486 30.6443 40.2481L30.6419 41.2481L30.6394 42.2481C30.8429 42.2486 30.9733 42.2545 31.0461 42.2616C31.0846 42.2653 31.0815 42.267 31.054 42.2604C31.0399 42.2571 31.0004 42.2471 30.9477 42.2253C30.9203 42.2139 30.8821 42.1964 30.8381 42.1704C30.795 42.1449 30.7357 42.1051 30.673 42.0462L31.3578 41.3175ZM30.6419 41.2481L30.6443 40.2481C30.5236 40.2478 30.2972 40.2518 30.0761 40.3302C29.97 40.3679 29.7147 40.4737 29.5311 40.7486C29.3022 41.0913 29.3301 41.4648 29.4313 41.7185C29.5145 41.9269 29.6446 42.0626 29.7085 42.1243C29.7844 42.1975 29.8624 42.2558 29.9258 42.2992C30.053 42.3863 30.2021 42.4684 30.3533 42.5444L30.8026 41.651L31.2519 40.7576C31.1349 40.6988 31.0762 40.663 31.0559 40.6491C31.0456 40.642 31.065 40.6539 31.0973 40.6851C31.1176 40.7048 31.2192 40.8026 31.289 40.9775C31.3768 41.1977 31.4064 41.5418 31.1943 41.8594C31.0275 42.1092 30.804 42.1941 30.7449 42.2151C30.6177 42.2602 30.5455 42.2478 30.6394 42.2481L30.6419 41.2481ZM30.8026 41.651L30.3533 42.5444C30.5345 42.6355 30.7516 42.7243 30.987 42.7626C31.2218 42.8008 31.5734 42.8028 31.9101 42.5911C32.2607 42.3707 32.4123 42.0348 32.4699 41.7734C32.5247 41.5251 32.512 41.2809 32.4854 41.083L31.4943 41.2161L30.5032 41.3492C30.5142 41.4311 30.5009 41.415 30.5169 41.3427C30.5357 41.2575 30.6102 41.046 30.8455 40.898C31.0669 40.7588 31.265 40.7815 31.3081 40.7885C31.3517 40.7956 31.3389 40.8014 31.2519 40.7576L30.8026 41.651ZM31.4943 41.2161L32.4854 41.083C32.4671 40.9464 32.4255 40.6592 32.2749 40.4115C32.1967 40.283 31.9663 39.9652 31.5133 39.8997C31.0543 39.8334 30.7409 40.0791 30.6265 40.1866C30.4117 40.3886 30.2962 40.6596 30.2441 40.7846C30.1714 40.9595 30.1003 41.1708 30.0302 41.4053L30.9883 41.6918L31.9464 41.9783C32.0073 41.7744 32.0557 41.637 32.0906 41.5531C32.1081 41.5111 32.1161 41.4974 32.1133 41.5023C32.1115 41.5054 32.1033 41.5198 32.0878 41.5411C32.0733 41.561 32.0435 41.5996 31.9963 41.6439C31.9241 41.7118 31.65 41.9403 31.2273 41.8792C30.8106 41.819 30.6136 41.5289 30.5659 41.4505C30.5335 41.3972 30.5156 41.3539 30.5073 41.332C30.4984 41.3086 30.4945 41.2936 30.4938 41.2909C30.4927 41.2869 30.4971 41.3034 30.5032 41.3492L31.4943 41.2161ZM30.9883 41.6918L30.0302 41.4053C29.8839 41.8945 29.7639 42.5938 30.1379 43.188C30.5672 43.8702 31.3221 43.9531 31.8367 43.9129L31.7587 42.9159L31.6807 41.919C31.5679 41.9278 31.5521 41.912 31.593 41.9257C31.6173 41.9339 31.6588 41.9518 31.7061 41.9874C31.7547 42.0239 31.7976 42.0704 31.8306 42.1228C31.896 42.2267 31.8888 42.298 31.8889 42.2657C31.8891 42.2317 31.8976 42.1413 31.9464 41.9783L30.9883 41.6918ZM31.7587 42.9159L31.8367 43.9129C32.374 43.8708 32.9157 43.7018 33.342 43.3027C33.7747 42.8977 33.9727 42.3645 34.0262 41.8232L33.031 41.7249L32.0359 41.6266C32.0262 41.7248 32.0076 41.7814 31.9952 41.8097C31.9841 41.8349 31.9764 41.8415 31.9752 41.8426C31.9734 41.8443 31.9598 41.8572 31.9182 41.873C31.8741 41.8898 31.7988 41.9097 31.6807 41.919L31.7587 42.9159ZM33.031 41.7249L34.0262 41.8232C34.0878 41.199 33.9161 40.6037 33.4855 40.1224C33.0849 39.6747 32.5268 39.3992 31.9357 39.2232L31.6504 40.1816L31.3651 41.1401C31.7668 41.2597 31.9352 41.3892 31.9949 41.4559C32.0199 41.4838 32.027 41.5014 32.0305 41.5128C32.0346 41.5257 32.0425 41.5594 32.0359 41.6266L33.031 41.7249ZM31.6504 40.1816L31.9357 39.2232C31.6409 39.1355 31.3349 39.0716 31.0393 39.0671C30.7514 39.0628 30.3662 39.1138 30.0288 39.3711C29.6605 39.6518 29.5141 40.0493 29.4859 40.3996C29.4599 40.7231 29.5279 41.0402 29.615 41.3121L30.5673 41.0072L31.5197 40.7023C31.4714 40.5512 31.483 40.5167 31.4795 40.56C31.4772 40.5885 31.4678 40.6529 31.4287 40.7334C31.3873 40.8184 31.3235 40.8989 31.2412 40.9617C31.0843 41.0813 30.9586 41.0661 31.0092 41.0669C31.052 41.0675 31.1634 41.0801 31.3651 41.1401L31.6504 40.1816ZM30.5673 41.0072L29.615 41.3121C29.7832 41.8375 30.0445 42.3347 30.459 42.7004C30.8972 43.0869 31.4332 43.2612 32.0014 43.2422L31.9679 42.2428L31.9344 41.2433C31.8774 41.2452 31.8472 41.2374 31.8335 41.2327C31.821 41.2284 31.8051 41.2208 31.7822 41.2006C31.7299 41.1545 31.6223 41.0228 31.5197 40.7023L30.5673 41.0072ZM31.9679 42.2428L32.0014 43.2422C32.4599 43.2268 33.1225 43.0857 33.4854 42.46C33.8191 41.8847 33.681 41.2525 33.5304 40.8333L32.5893 41.1715L31.6482 41.5097C31.6885 41.622 31.6912 41.6697 31.6911 41.6672C31.6908 41.6598 31.6893 41.5705 31.7554 41.4565C31.8261 41.3347 31.9237 41.2712 31.98 41.2466C32.0231 41.2278 32.0205 41.2404 31.9344 41.2433L31.9679 42.2428ZM32.5893 41.1715L33.5304 40.8333C33.3362 40.2929 32.9719 39.8058 32.3771 39.5597C31.8159 39.3275 31.2165 39.3808 30.6804 39.5351L30.9571 40.4961L31.2337 41.4571C31.5371 41.3697 31.6295 41.4148 31.6124 41.4077C31.6 41.4026 31.5907 41.3938 31.5909 41.394C31.5944 41.3981 31.619 41.4284 31.6482 41.5097L32.5893 41.1715ZM30.9571 40.4961L30.6804 39.5351C30.1274 39.6943 29.5093 40.0248 29.2414 40.7074C28.9814 41.3703 29.1852 42.0345 29.4511 42.5416L30.3367 42.0772L31.2224 41.6129C31.1494 41.4736 31.128 41.3918 31.1228 41.3599C31.1186 41.3345 31.1292 41.3718 31.1033 41.4379C31.0912 41.4686 31.0754 41.4944 31.0601 41.5135C31.0454 41.5319 31.0355 41.5387 31.0382 41.5367C31.0472 41.5301 31.1006 41.4954 31.2337 41.4571L30.9571 40.4961ZM30.3367 42.0772L29.4511 42.5416C29.5837 42.7945 29.7479 43.0484 29.9583 43.2547C30.1708 43.4631 30.4876 43.6764 30.9061 43.7092C31.3364 43.743 31.6904 43.5723 31.9394 43.3731C32.1777 43.1826 32.3611 42.9364 32.5055 42.6974L31.6495 42.1803L30.7936 41.6633C30.7134 41.7961 30.6736 41.8245 30.6902 41.8113C30.7175 41.7894 30.8512 41.6988 31.0627 41.7154C31.1588 41.7229 31.2352 41.751 31.2868 41.7781C31.3355 41.8038 31.3585 41.8266 31.3585 41.8266C31.3587 41.8268 31.3446 41.8127 31.3185 41.7752C31.2929 41.7383 31.2605 41.6855 31.2224 41.6129L30.3367 42.0772ZM31.6495 42.1803L32.5055 42.6974C32.7711 42.2576 33.0128 41.6869 32.907 41.0811C32.7842 40.3775 32.2681 39.9704 31.7537 39.7705L31.3915 40.7025L31.0292 41.6346C31.0892 41.6579 31.0751 41.6642 31.0369 41.6246C31.0168 41.6037 30.994 41.574 30.9743 41.5355C30.9545 41.4969 30.9427 41.4587 30.9369 41.4251C30.9255 41.3599 30.9408 41.3395 30.9267 41.3878C30.9122 41.4368 30.8758 41.5272 30.7936 41.6633L31.6495 42.1803ZM31.3915 40.7025L31.7537 39.7705C30.6596 39.3452 29.635 39.7416 28.8178 40.5022L29.4991 41.2342L30.1804 41.9662C30.6437 41.535 30.8808 41.5769 31.0292 41.6346L31.3915 40.7025ZM29.4991 41.2342L28.8178 40.5022C28.4277 40.8653 27.938 41.4985 28.1476 42.3036C28.3367 43.0302 28.9919 43.4176 29.4844 43.6329L29.8849 42.7166L30.2854 41.8003C30.2038 41.7646 30.141 41.7322 30.094 41.7043C30.0467 41.6763 30.0208 41.6562 30.0097 41.6466C29.9853 41.6255 30.0498 41.6722 30.0831 41.7999C30.0995 41.863 30.1027 41.9265 30.0957 41.9832C30.089 42.0378 30.0747 42.0734 30.0683 42.087C30.0623 42.0997 30.063 42.094 30.0815 42.0706C30.0997 42.0473 30.1309 42.0123 30.1804 41.9662L29.4991 41.2342ZM29.8849 42.7166L29.4844 43.6329C30.5157 44.0837 31.5543 44.2528 32.5341 43.9718L32.2585 43.0105L31.9829 42.0493C31.5929 42.1611 31.0491 42.1342 30.2854 41.8003L29.8849 42.7166ZM32.2585 43.0105L32.5341 43.9718C32.9535 43.8515 33.6601 43.5437 33.8114 42.7529C33.9452 42.0533 33.5226 41.4778 33.2336 41.153L32.4866 41.8178L31.7395 42.4826C31.7845 42.5331 31.8156 42.5733 31.8363 42.603C31.8572 42.6332 31.8637 42.6473 31.863 42.6459C31.8624 42.6446 31.8511 42.6198 31.8433 42.5742C31.8352 42.5267 31.8315 42.4583 31.847 42.3772C31.8819 42.1945 31.9854 42.0819 32.0427 42.0372C32.0848 42.0044 32.0842 42.0202 31.9829 42.0493L32.2585 43.0105ZM32.4866 41.8178L33.2336 41.153C32.9208 40.8015 32.3323 40.292 31.5485 40.4625C30.8154 40.622 30.4486 41.2748 30.2634 41.7089L31.1832 42.1013L32.103 42.4938C32.1315 42.4269 32.1565 42.3783 32.1762 42.3446C32.1963 42.3106 32.2075 42.2976 32.2069 42.2983C32.2066 42.2986 32.1327 42.3822 31.9737 42.4168C31.8053 42.4534 31.681 42.4052 31.6431 42.3855C31.6185 42.3726 31.6526 42.3849 31.7395 42.4826L32.4866 41.8178ZM31.1832 42.1013L30.2634 41.7089C30.0822 42.1336 29.9371 42.5699 29.91 42.9704C29.8833 43.3653 29.9717 44.0504 30.6507 44.3822L31.0898 43.4838L31.5289 42.5853C31.6022 42.6212 31.6752 42.6734 31.7386 42.7426C31.8014 42.8111 31.8422 42.8825 31.8674 42.9442C31.9142 43.0589 31.9038 43.1303 31.9055 43.1052C31.9068 43.0856 31.9147 43.0252 31.9477 42.9131C31.9797 42.804 32.0298 42.6653 32.103 42.4938L31.1832 42.1013ZM31.0898 43.4838L30.7161 44.4113L31.2267 44.617L31.6004 43.6895L31.9741 42.762L31.4635 42.5562L31.0898 43.4838ZM31.6004 43.6895L31.6504 42.6908L31.5505 42.6858L31.5005 43.6845L31.4505 44.6833L31.5504 44.6883L31.6004 43.6895Z" fill="#FF5454"/>
<path d="M45.6852 15.26C46.1454 15.5654 46.766 15.44 47.0714 14.9798C47.3768 14.5197 47.2514 13.8991 46.7913 13.5936L46.2382 14.4268L45.6852 15.26ZM46.1549 14.3715L46.7079 13.5383L46.6907 13.5269L46.673 13.5162L46.1549 14.3715ZM40.0667 10.2553L39.6446 11.1618L40.0667 10.2553ZM37.3855 9.04359L36.9845 9.95966L37.3855 9.04359ZM22.787 11.0239L22.0086 10.3961L21.8252 10.6235L21.7931 10.914L22.787 11.0239ZM22.9035 10.8794L23.6819 11.5072L24.7766 10.1499L23.0523 9.89055L22.9035 10.8794ZM22.9534 9.87568C22.4072 9.79352 21.8979 10.1697 21.8158 10.7158C21.7336 11.2619 22.1097 11.7713 22.6559 11.8534L22.8046 10.8646L22.9534 9.87568ZM46.2382 14.4268L46.7913 13.5936L46.7079 13.5383L46.1549 14.3715L45.6019 15.2047L45.6852 15.26L46.2382 14.4268ZM46.1549 14.3715L46.673 13.5162C45.0429 12.5288 43.9053 11.7361 43.2199 11.1331L42.5594 11.8839L41.8989 12.6347C42.7201 13.3571 43.9795 14.2229 45.6368 15.2268L46.1549 14.3715ZM42.5594 11.8839L43.2199 11.1331C42.395 10.4074 41.4838 9.81206 40.4888 9.34873L40.0667 10.2553L39.6446 11.1618C40.4664 11.5445 41.2171 12.0349 41.8989 12.6347L42.5594 11.8839ZM40.0667 10.2553L40.4888 9.34873C39.5736 8.92262 38.6729 8.51554 37.7865 8.12752L37.3855 9.04359L36.9845 9.95966C37.8561 10.3412 38.7428 10.7419 39.6446 11.1618L40.0667 10.2553ZM37.3855 9.04359L37.7865 8.12752C37.2598 7.89697 36.6521 7.74336 36.0539 7.89079C35.3873 8.05507 34.9583 8.53216 34.7286 9.08946L35.6532 9.47052L36.5777 9.85158C36.6052 9.78494 36.6214 9.77708 36.6058 9.79186C36.5852 9.81149 36.5552 9.82709 36.5324 9.83269C36.517 9.83649 36.5393 9.82706 36.6186 9.84026C36.699 9.85365 36.8192 9.88731 36.9845 9.95966L37.3855 9.04359ZM35.6532 9.47052L34.7286 9.08946C34.46 9.74119 34.1743 10.3814 33.8714 11.0103L34.7724 11.4442L35.6733 11.8781C35.9931 11.2142 36.2945 10.5387 36.5777 9.85158L35.6532 9.47052ZM34.7724 11.4442L33.8714 11.0103C33.7925 11.1742 33.6006 11.4105 32.8097 11.4068L32.805 12.4068L32.8004 13.4068C34.0099 13.4124 35.1296 13.0069 35.6733 11.8781L34.7724 11.4442ZM32.805 12.4068L32.8097 11.4068C31.8732 11.4024 30.9491 11.3093 30.0367 11.1274L29.8412 12.1081L29.6457 13.0888C30.6845 13.2959 31.7364 13.4018 32.8004 13.4068L32.805 12.4068ZM29.8412 12.1081L30.0367 11.1274C29.0986 10.9404 28.1685 10.6991 27.2462 10.4032L26.9407 11.3554L26.6352 12.3076C27.6289 12.6263 28.6325 12.8868 29.6457 13.0888L29.8412 12.1081ZM26.9407 11.3554L27.2462 10.4032C26.1688 10.0575 25.0942 9.93204 24.0315 10.0443L24.1366 11.0388L24.2416 12.0332C25.0018 11.9529 25.7966 12.0385 26.6352 12.3076L26.9407 11.3554ZM24.1366 11.0388L24.0315 10.0443C23.5834 10.0916 23.2908 10.1091 23.1266 10.1073C23.0316 10.1063 23.0458 10.0988 23.1107 10.1153C23.1347 10.1214 23.2715 10.1551 23.4195 10.2706C23.5019 10.3349 23.6089 10.4412 23.6878 10.6017C23.771 10.771 23.8006 10.9564 23.781 11.1338L22.787 11.0239L21.7931 10.914C21.7443 11.355 21.9754 11.6806 22.189 11.8473C22.3629 11.983 22.54 12.0338 22.6188 12.0538C22.7932 12.0981 22.9746 12.1058 23.1046 12.1072C23.3903 12.1103 23.7782 12.0822 24.2416 12.0332L24.1366 11.0388ZM22.787 11.0239L23.5654 11.6517L23.6819 11.5072L22.9035 10.8794L22.1251 10.2516L22.0086 10.3961L22.787 11.0239ZM22.9035 10.8794L23.0523 9.89055L22.9534 9.87568L22.8046 10.8646L22.6559 11.8534L22.7548 11.8683L22.9035 10.8794Z" fill="#FF5454"/>
<path d="M37.1625 29.7367C37.7075 29.6469 38.0765 29.1324 37.9867 28.5875C37.8969 28.0425 37.3824 27.6735 36.8375 27.7633L37 28.75L37.1625 29.7367ZM37.3944 28.9472C37.6414 28.4532 37.4412 27.8526 36.9472 27.6056C36.4532 27.3586 35.8526 27.5588 35.6056 28.0528L36.5 28.5L37.3944 28.9472ZM37 28.75L36.8375 27.7633C36.8478 27.7616 37.0886 27.7177 37.3531 27.8963C37.6655 28.1071 37.7153 28.4174 37.719 28.5269L36.7196 28.5608L35.7202 28.5946C35.7292 28.8602 35.8284 29.28 36.2342 29.554C36.5922 29.7956 36.9705 29.7683 37.1625 29.7367L37 28.75ZM36.7196 28.5608L37.719 28.5269C37.7164 28.4499 37.7077 28.3278 37.6695 28.1935C37.6399 28.0898 37.5385 27.7787 37.2098 27.5733C36.8052 27.3205 36.4016 27.425 36.1994 27.5232C36.0189 27.6109 35.8996 27.7313 35.845 27.7899L36.5768 28.4715L37.3085 29.1531C37.2989 29.1634 37.2193 29.2513 37.0732 29.3223C36.9053 29.4038 36.5309 29.5074 36.1501 29.2695C35.8452 29.079 35.7623 28.7985 35.7459 28.7412C35.7321 28.6927 35.7263 28.655 35.7237 28.6346C35.7209 28.6131 35.7203 28.599 35.7202 28.5946L36.7196 28.5608ZM36.5768 28.4715L35.845 27.7899C35.7935 27.8452 35.8065 27.827 35.8492 27.7919C35.8594 27.7836 35.9108 27.741 35.9875 27.6986C36.0226 27.6791 36.1121 27.6316 36.2373 27.6019C36.341 27.5772 36.6623 27.5185 36.995 27.7256C37.3666 27.9568 37.4484 28.3215 37.4624 28.4903C37.4759 28.6533 37.4452 28.7786 37.4336 28.8228C37.4074 28.9229 37.3712 28.9938 37.3653 29.0054L36.4709 28.5582L35.5765 28.111C35.5658 28.1323 35.5264 28.2107 35.4988 28.3163C35.4865 28.3632 35.4555 28.4907 35.4692 28.6554C35.4833 28.8258 35.5657 29.1917 35.9382 29.4236C36.272 29.6313 36.5947 29.5727 36.7002 29.5476C36.8273 29.5173 36.919 29.4689 36.9568 29.448C37.0389 29.4025 37.0975 29.3548 37.1164 29.3392C37.1945 29.2753 37.27 29.1944 37.3085 29.1531L36.5768 28.4715ZM36.4709 28.5582L37.3653 29.0054L37.3944 28.9472L36.5 28.5L35.6056 28.0528L35.5765 28.111L36.4709 28.5582Z" fill="#FF5454"/>
</svg>
